<svg width="600" height="360" viewBox="0 0 600 360" fill="none" xmlns="http://www.w3.org/2000/svg">
<rect width="600" height="360" fill="url(#paint0_linear_131_3)"/>
<path d="M37.8008 189.237H9.47595V193.47H37.8008V189.237Z" fill="#903FEE"/>
<path d="M35.1405 244.744H0V274.582H35.1405V244.744Z" fill="white"/>
<path d="M308.027 123.094L33.9893 161.708V274.583H308.027H582.066V161.708L308.027 123.094Z" fill="white"/>
<g opacity="0.3">
<path d="M582.065 244.744H33.9893V274.582H582.065V244.744Z" fill="black"/>
</g>
<g opacity="0.3">
<path d="M33.9893 174.626L310.795 134.845L582.066 170.598V161.708L310.292 123.094L33.9893 161.708V174.626Z" fill="black"/>
</g>
<path d="M309.875 118L26.0549 157.734L26.363 164.218L309.875 126.488L589.939 164.218L590 157.144L309.875 118Z" fill="#903FEE"/>
<path d="M191.809 196.449H118.304V274.583H191.809V196.449Z" fill="#263238"/>
<path d="M491.066 196.449H417.562V274.583H491.066V196.449Z" fill="#263238"/>
<path d="M191.809 196.449H118.304V208.047H191.809V196.449Z" fill="#903FEE"/>
<g opacity="0.3">
<path d="M123.803 274.583V201.828H191.828V196.449H118.323V274.583H123.803Z" fill="black"/>
</g>
<g opacity="0.3">
<path d="M423.041 274.583V201.828H491.066V196.449H417.562V274.583H423.041Z" fill="black"/>
</g>
<path d="M341.438 196.449H267.933V274.583H341.438V196.449Z" fill="#903FEE"/>
<path d="M291.743 251.513H277.505V259.984H291.743V251.513Z" fill="#263238"/>
<path d="M313.012 251.513H298.773V259.984H313.012V251.513Z" fill="#263238"/>
<path d="M334.28 251.513H320.042V259.984H334.28V251.513Z" fill="#263238"/>
<g opacity="0.3">
<path d="M273.413 274.583V201.828H341.438V196.449H267.933V274.583H273.413Z" fill="black"/>
</g>
<path d="M341.438 201.09C341.438 201.21 325.002 201.306 304.733 201.306C284.456 201.306 268.023 201.209 268.023 201.09C268.023 200.97 284.455 200.874 304.733 200.874C325.002 200.874 341.438 200.97 341.438 201.09Z" fill="#263238"/>
<path d="M341.438 205.579C341.438 205.699 325.002 205.795 304.733 205.795C284.456 205.795 268.023 205.698 268.023 205.579C268.023 205.46 284.455 205.363 304.733 205.363C325.002 205.363 341.438 205.46 341.438 205.579Z" fill="#263238"/>
<path d="M341.438 210.068C341.438 210.187 325.002 210.283 304.733 210.283C284.456 210.283 268.023 210.186 268.023 210.068C268.023 209.949 284.455 209.852 304.733 209.852C325.002 209.852 341.438 209.949 341.438 210.068Z" fill="#263238"/>
<path d="M341.438 214.558C341.438 214.677 325.002 214.775 304.733 214.775C284.456 214.775 268.023 214.677 268.023 214.558C268.023 214.438 284.455 214.342 304.733 214.342C325.002 214.342 341.438 214.439 341.438 214.558Z" fill="#263238"/>
<path d="M341.438 219.048C341.438 219.168 325.002 219.264 304.733 219.264C284.456 219.264 268.023 219.167 268.023 219.048C268.023 218.928 284.455 218.832 304.733 218.832C325.002 218.831 341.438 218.928 341.438 219.048Z" fill="#263238"/>
<path d="M341.438 223.536C341.438 223.656 325.002 223.752 304.733 223.752C284.456 223.752 268.023 223.655 268.023 223.536C268.023 223.417 284.455 223.32 304.733 223.32C325.002 223.319 341.438 223.417 341.438 223.536Z" fill="#263238"/>
<path d="M341.438 228.026C341.438 228.145 325.002 228.241 304.733 228.241C284.456 228.241 268.023 228.144 268.023 228.026C268.023 227.907 284.455 227.81 304.733 227.81C325.002 227.81 341.438 227.906 341.438 228.026Z" fill="#263238"/>
<path d="M341.438 232.515C341.438 232.634 325.002 232.731 304.733 232.731C284.456 232.731 268.023 232.634 268.023 232.515C268.023 232.395 284.455 232.299 304.733 232.299C325.002 232.299 341.438 232.395 341.438 232.515Z" fill="#263238"/>
<path d="M341.438 237.004C341.438 237.124 325.002 237.22 304.733 237.22C284.456 237.22 268.023 237.124 268.023 237.004C268.023 236.884 284.455 236.788 304.733 236.788C325.002 236.788 341.438 236.885 341.438 237.004Z" fill="#263238"/>
<path d="M341.438 241.493C341.438 241.613 325.002 241.709 304.733 241.709C284.456 241.709 268.023 241.612 268.023 241.493C268.023 241.375 284.455 241.277 304.733 241.277C325.002 241.277 341.438 241.375 341.438 241.493Z" fill="#263238"/>
<path d="M341.438 245.984C341.438 246.103 325.002 246.199 304.733 246.199C284.456 246.199 268.023 246.102 268.023 245.984C268.023 245.865 284.455 245.768 304.733 245.768C325.002 245.767 341.438 245.864 341.438 245.984Z" fill="#263238"/>
<path d="M341.438 250.473C341.438 250.592 325.002 250.689 304.733 250.689C284.456 250.689 268.023 250.592 268.023 250.473C268.023 250.353 284.455 250.257 304.733 250.257C325.002 250.256 341.438 250.353 341.438 250.473Z" fill="#263238"/>
<path d="M341.438 254.774C341.438 254.893 325.002 254.99 304.733 254.99C284.456 254.99 268.023 254.892 268.023 254.774C268.023 254.654 284.455 254.558 304.733 254.558C325.002 254.558 341.438 254.655 341.438 254.774Z" fill="#263238"/>
<path d="M341.438 259.074C341.438 259.194 325.002 259.29 304.733 259.29C284.456 259.29 268.023 259.193 268.023 259.074C268.023 258.956 284.455 258.858 304.733 258.858C325.002 258.858 341.438 258.955 341.438 259.074Z" fill="#263238"/>
<path d="M341.438 263.376C341.438 263.496 325.002 263.592 304.733 263.592C284.456 263.592 268.023 263.495 268.023 263.376C268.023 263.257 284.455 263.16 304.733 263.16C325.002 263.16 341.438 263.256 341.438 263.376Z" fill="#263238"/>
<path d="M341.438 267.676C341.438 267.796 325.002 267.892 304.733 267.892C284.456 267.892 268.023 267.795 268.023 267.676C268.023 267.557 284.455 267.46 304.733 267.46C325.002 267.46 341.438 267.557 341.438 267.676Z" fill="#263238"/>
<path d="M341.438 271.978C341.438 272.097 325.002 272.194 304.733 272.194C284.456 272.194 268.023 272.096 268.023 271.978C268.023 271.859 284.455 271.762 304.733 271.762C325.002 271.761 341.438 271.858 341.438 271.978Z" fill="#263238"/>
<path d="M191.764 204.231C191.764 204.35 175.328 204.447 155.059 204.447C134.782 204.447 118.35 204.349 118.35 204.231C118.35 204.111 134.782 204.015 155.059 204.015C175.329 204.014 191.764 204.111 191.764 204.231Z" fill="#263238"/>
<path d="M191.764 199.647C191.764 199.766 175.328 199.863 155.059 199.863C134.782 199.863 118.35 199.765 118.35 199.647C118.35 199.528 134.782 199.431 155.059 199.431C175.329 199.431 191.764 199.527 191.764 199.647Z" fill="#263238"/>
<path d="M175.953 249.417H150.842V260.234H175.953V249.417Z" fill="#903FEE"/>
<path d="M163.831 250.781H160.11V253.275H163.831V250.781Z" fill="white"/>
<g opacity="0.3">
<path d="M165.925 249.417H150.842V260.234H165.925V249.417Z" fill="black"/>
</g>
<path d="M165.924 259.915C165.804 259.915 165.708 257.549 165.708 254.63C165.708 251.711 165.805 249.345 165.924 249.345C166.043 249.345 166.14 251.711 166.14 254.63C166.141 257.549 166.044 259.915 165.924 259.915Z" fill="#263238"/>
<path d="M172.713 249.417H170.668V251.911H172.713V249.417Z" fill="white"/>
<path d="M172.713 257.802H170.668V260.296H172.713V257.802Z" fill="white"/>
<path d="M150.716 238.724H125.605V249.541H150.716V238.724Z" fill="#903FEE"/>
<path d="M138.595 240.088H134.874V242.582H138.595V240.088Z" fill="white"/>
<g opacity="0.3">
<path d="M140.688 238.724H125.605V249.541H140.688V238.724Z" fill="black"/>
</g>
<path d="M140.688 249.221C140.569 249.221 140.472 246.855 140.472 243.936C140.472 241.017 140.569 238.65 140.688 238.65C140.808 238.65 140.904 241.017 140.904 243.936C140.904 246.855 140.808 249.221 140.688 249.221Z" fill="#263238"/>
<path d="M147.476 238.724H145.432V241.218H147.476V238.724Z" fill="white"/>
<path d="M147.476 247.109H145.432V249.604H147.476V247.109Z" fill="white"/>
<path d="M150.376 249.332H125.264V260.149H150.376V249.332Z" fill="#903FEE"/>
<path d="M138.255 250.697H134.534V253.191H138.255V250.697Z" fill="white"/>
<g opacity="0.3">
<path d="M140.348 249.332H125.264V260.149H140.348V249.332Z" fill="black"/>
</g>
<path d="M140.348 259.83C140.228 259.83 140.132 257.464 140.132 254.546C140.132 251.626 140.229 249.26 140.348 249.26C140.467 249.26 140.564 251.626 140.564 254.546C140.564 257.464 140.467 259.83 140.348 259.83Z" fill="#263238"/>
<path d="M147.137 249.332H145.092V251.826H147.137V249.332Z" fill="white"/>
<path d="M147.137 257.718H145.092V260.212H147.137V257.718Z" fill="white"/>
<path d="M165.727 249.422H140.616V260.239H165.727V249.422Z" fill="#903FEE"/>
<path d="M153.605 250.786H149.884V253.28H153.605V250.786Z" fill="white"/>
<g opacity="0.3">
<path d="M155.699 249.422H140.616V260.239H155.699V249.422Z" fill="black"/>
</g>
<path d="M155.698 259.92C155.579 259.92 155.482 257.554 155.482 254.635C155.482 251.716 155.579 249.35 155.698 249.35C155.818 249.35 155.914 251.716 155.914 254.635C155.915 257.554 155.818 259.92 155.698 259.92Z" fill="#263238"/>
<path d="M162.487 249.422H160.442V251.916H162.487V249.422Z" fill="white"/>
<path d="M162.487 257.807H160.442V260.301H162.487V257.807Z" fill="white"/>
<path d="M150.345 260.198H125.234V271.016H150.345V260.198Z" fill="#903FEE"/>
<path d="M138.224 261.563H134.503V264.058H138.224V261.563Z" fill="white"/>
<g opacity="0.3">
<path d="M140.317 260.198H125.234V271.016H140.317V260.198Z" fill="black"/>
</g>
<path d="M140.317 270.697C140.197 270.697 140.101 268.331 140.101 265.412C140.101 262.492 140.198 260.126 140.317 260.126C140.436 260.126 140.533 262.492 140.533 265.412C140.533 268.331 140.436 270.697 140.317 270.697Z" fill="#263238"/>
<path d="M147.106 260.198H145.061V262.692H147.106V260.198Z" fill="white"/>
<path d="M147.106 268.584H145.061V271.011H147.106V268.584Z" fill="white"/>
<path d="M165.672 260.266H140.56V271.083H165.672V260.266Z" fill="#903FEE"/>
<path d="M153.549 261.629H149.828V264.123H153.549V261.629Z" fill="white"/>
<g opacity="0.3">
<path d="M155.643 260.266H140.56V271.083H155.643V260.266Z" fill="black"/>
</g>
<path d="M155.642 270.764C155.523 270.764 155.427 268.398 155.427 265.479C155.427 262.56 155.524 260.193 155.642 260.193C155.762 260.193 155.858 262.56 155.858 265.479C155.859 268.397 155.762 270.764 155.642 270.764Z" fill="#263238"/>
<path d="M162.431 260.266H160.387V262.76H162.431V260.266Z" fill="white"/>
<path d="M162.431 268.651H160.387V271.083H162.431V268.651Z" fill="white"/>
<path d="M181.116 260.265H156.005V271.082H181.116V260.265Z" fill="#903FEE"/>
<path d="M168.994 261.629H165.273V264.123H168.994V261.629Z" fill="white"/>
<g opacity="0.3">
<path d="M171.088 260.265H156.005V271.082H171.088V260.265Z" fill="black"/>
</g>
<path d="M171.087 270.763C170.967 270.763 170.871 268.397 170.871 265.478C170.871 262.559 170.968 260.192 171.087 260.192C171.206 260.192 171.303 262.559 171.303 265.478C171.304 268.397 171.206 270.763 171.087 270.763Z" fill="#263238"/>
<path d="M177.876 260.265H175.831V262.759H177.876V260.265Z" fill="white"/>
<path d="M177.876 268.65H175.831V271.024H177.876V268.65Z" fill="white"/>
<path d="M175.828 238.729H150.716V249.546H175.828V238.729Z" fill="#903FEE"/>
<path d="M163.706 240.093H159.986V242.587H163.706V240.093Z" fill="white"/>
<g opacity="0.3">
<path d="M165.8 238.729H150.716V249.546H165.8V238.729Z" fill="black"/>
</g>
<path d="M165.8 249.227C165.68 249.227 165.584 246.861 165.584 243.942C165.584 241.023 165.681 238.656 165.8 238.656C165.918 238.656 166.015 241.023 166.015 243.942C166.015 246.86 165.919 249.227 165.8 249.227Z" fill="#263238"/>
<path d="M172.589 238.729H170.544V241.223H172.589V238.729Z" fill="white"/>
<path d="M172.589 247.114H170.544V249.608H172.589V247.114Z" fill="white"/>
<path d="M180.864 260.21C180.864 260.33 168.465 260.426 153.172 260.426C137.875 260.426 125.478 260.329 125.478 260.21C125.478 260.091 137.875 259.994 153.172 259.994C168.465 259.993 180.864 260.09 180.864 260.21Z" fill="#263238"/>
<path d="M176.288 249.245C176.288 249.365 164.912 249.461 150.884 249.461C136.851 249.461 125.478 249.364 125.478 249.245C125.478 249.126 136.851 249.029 150.884 249.029C164.913 249.029 176.288 249.126 176.288 249.245Z" fill="#263238"/>
<g opacity="0.3">
<path d="M152.235 238.721H150.676V249.222H152.235V238.721Z" fill="black"/>
</g>
<path d="M157.115 271.011H124.743V272.875H157.115V271.011Z" fill="#AE7461"/>
<path d="M127.668 272.874H124.794V275.063H127.668V272.874Z" fill="#AE7461"/>
<g opacity="0.3">
<path d="M127.668 272.874H124.794V273.403H127.668V272.874Z" fill="black"/>
</g>
<path d="M142.367 272.874H139.492V275.063H142.367V272.874Z" fill="#AE7461"/>
<g opacity="0.3">
<path d="M142.367 272.874H139.492V273.403H142.367V272.874Z" fill="black"/>
</g>
<path d="M157.115 272.874H154.24V275.063H157.115V272.874Z" fill="#AE7461"/>
<g opacity="0.3">
<path d="M157.115 272.874H154.24V273.403H157.115V272.874Z" fill="black"/>
</g>
<path d="M189.823 271.011H157.451V272.875H189.823V271.011Z" fill="#AE7461"/>
<path d="M160.376 272.874H157.501V275.063H160.376V272.874Z" fill="#AE7461"/>
<g opacity="0.3">
<path d="M160.376 272.874H157.501V273.403H160.376V272.874Z" fill="black"/>
</g>
<path d="M175.074 272.874H172.2V275.063H175.074V272.874Z" fill="#AE7461"/>
<g opacity="0.3">
<path d="M175.074 272.874H172.2V273.403H175.074V272.874Z" fill="black"/>
</g>
<path d="M189.823 272.874H186.948V275.063H189.823V272.874Z" fill="#AE7461"/>
<g opacity="0.3">
<path d="M189.823 272.874H186.948V273.403H189.823V272.874Z" fill="black"/>
</g>
<path d="M206.48 234.342H197.608V250.473H206.48V234.342Z" fill="#455A64"/>
<path d="M359.502 234.342H350.63V250.473H359.502V234.342Z" fill="#455A64"/>
<path d="M505.168 234.342H496.296V250.473H505.168V234.342Z" fill="#455A64"/>
<path d="M88.6722 226.948H63.3441V274.582H88.6722V226.948Z" fill="#903FEE"/>
<g opacity="0.3">
<path d="M65.776 274.583V229.306H88.6722V226.948H63.3441V274.583H65.776Z" fill="black"/>
</g>
<path d="M564.022 226.948H538.694V274.582H564.022V226.948Z" fill="#903FEE"/>
<g opacity="0.3">
<path d="M541.126 274.583V229.306H564.023V226.948H538.694V274.583H541.126Z" fill="black"/>
</g>
<g opacity="0.4">
<path d="M33.9893 244.744H29.7102V274.582H33.9893V244.744Z" fill="black"/>
</g>
<path d="M33.8232 274.583C33.7036 274.583 33.6072 249.9 33.6072 219.459C33.6072 189.008 33.7044 164.33 33.8232 164.33C33.9428 164.33 34.0391 189.008 34.0391 219.459C34.0391 249.9 33.9428 274.583 33.8232 274.583Z" fill="#263238"/>
<path d="M29.2974 230.884H4.18604V241.701H29.2974V230.884Z" fill="#903FEE"/>
<path d="M17.1753 232.248H13.4543V234.742H17.1753V232.248Z" fill="white"/>
<g opacity="0.3">
<path d="M19.2691 230.884H4.18604V241.701H19.2691V230.884Z" fill="black"/>
</g>
<path d="M19.2683 241.381C19.1487 241.381 19.0524 239.015 19.0524 236.096C19.0524 233.177 19.1495 230.811 19.2683 230.811C19.3879 230.811 19.4843 233.177 19.4843 236.096C19.4851 239.015 19.3879 241.381 19.2683 241.381Z" fill="#263238"/>
<path d="M26.0574 230.884H24.0125V233.378H26.0574V230.884Z" fill="white"/>
<path d="M26.0574 239.269H24.0125V241.763H26.0574V239.269Z" fill="white"/>
<path d="M29.2974 220.096H4.18604V230.913H29.2974V220.096Z" fill="#903FEE"/>
<path d="M17.1753 221.459H13.4543V223.953H17.1753V221.459Z" fill="white"/>
<g opacity="0.3">
<path d="M19.2691 220.096H4.18604V230.913H19.2691V220.096Z" fill="black"/>
</g>
<path d="M19.2683 230.594C19.1487 230.594 19.0524 228.228 19.0524 225.309C19.0524 222.39 19.1495 220.023 19.2683 220.023C19.3879 220.023 19.4843 222.39 19.4843 225.309C19.4851 228.227 19.3879 230.594 19.2683 230.594Z" fill="#263238"/>
<path d="M26.0574 220.096H24.0125V222.59H26.0574V220.096Z" fill="white"/>
<path d="M26.0574 228.48H24.0125V230.975H26.0574V228.48Z" fill="white"/>
<path d="M4.09302 230.884C4.09302 230.764 9.67775 230.668 16.5665 230.668C23.4569 230.668 29.0408 230.765 29.0408 230.884C29.0408 231.003 23.4569 231.1 16.5665 231.1C9.67775 231.1 4.09302 231.003 4.09302 230.884Z" fill="#263238"/>
<path d="M30.1587 240.69H3.32477V242.554H30.1587V240.69Z" fill="#AE7461"/>
<path d="M5.74917 242.555H3.36627V244.744H5.74917V242.555Z" fill="#AE7461"/>
<g opacity="0.3">
<path d="M5.74917 242.555H3.36627V243.084H5.74917V242.555Z" fill="black"/>
</g>
<path d="M17.9328 242.555H15.5499V244.744H17.9328V242.555Z" fill="#AE7461"/>
<g opacity="0.3">
<path d="M17.9328 242.555H15.5499V243.084H17.9328V242.555Z" fill="black"/>
</g>
<path d="M30.1587 242.555H27.7758V244.744H30.1587V242.555Z" fill="#AE7461"/>
<g opacity="0.3">
<path d="M30.1587 242.555H27.7758V243.084H30.1587V242.555Z" fill="black"/>
</g>
<path d="M201.973 274.936H198.515V258.02C198.515 257.133 199.233 256.415 200.119 256.415H200.369C201.256 256.415 201.974 257.133 201.974 258.02V274.936H201.973Z" fill="#455A64"/>
<path d="M111.966 274.936H108.508V258.02C108.508 257.133 109.226 256.415 110.112 256.415H110.362C111.249 256.415 111.967 257.133 111.967 258.02L111.966 274.936Z" fill="#455A64"/>
<path d="M261.609 274.936H258.15V258.02C258.15 257.133 258.869 256.415 259.755 256.415H260.005C260.891 256.415 261.61 257.133 261.61 258.02L261.609 274.936Z" fill="#455A64"/>
<path d="M501.258 274.936H497.8V258.02C497.8 257.133 498.518 256.415 499.404 256.415H499.654C500.54 256.415 501.259 257.133 501.259 258.02L501.258 274.936Z" fill="#455A64"/>
<path d="M411.251 274.936H407.793V258.02C407.793 257.133 408.511 256.415 409.397 256.415H409.647C410.534 256.415 411.252 257.133 411.252 258.02L411.251 274.936Z" fill="#455A64"/>
<path d="M319.317 173.718H293.698V186.947H319.317V173.718Z" fill="#455A64"/>
<g opacity="0.2">
<path d="M308.262 173.718C307.842 173.718 293.698 186.947 293.698 186.947H299.071L314.243 173.718H308.262Z" fill="white"/>
</g>
<g opacity="0.2">
<path d="M302.613 186.947C302.613 186.947 317.298 173.718 317.492 173.718C317.685 173.718 319.318 173.718 319.318 173.718V175.237L305.19 186.947H302.613Z" fill="white"/>
</g>
<path d="M246.323 173.718H220.704V186.947H246.323V173.718Z" fill="#455A64"/>
<path d="M170.793 173.718H145.174V186.947H170.793V173.718Z" fill="#455A64"/>
<g opacity="0.2">
<path d="M159.738 173.718C159.318 173.718 145.174 186.947 145.174 186.947H150.546L165.719 173.718H159.738Z" fill="white"/>
</g>
<path d="M90.9928 173.718H65.374V186.947H90.9928V173.718Z" fill="#455A64"/>
<g opacity="0.2">
<path d="M79.938 173.718C79.5177 173.718 65.374 186.947 65.374 186.947H70.7461L85.918 173.718H79.938Z" fill="white"/>
</g>
<g opacity="0.2">
<path d="M74.2884 186.947C74.2884 186.947 88.9736 173.718 89.1672 173.718C89.3607 173.718 90.9936 173.718 90.9936 173.718V175.237L76.8656 186.947H74.2884Z" fill="white"/>
</g>
<path d="M401.653 173.718H376.034V186.947H401.653V173.718Z" fill="#455A64"/>
<path d="M480.003 173.718H454.384V186.947H480.003V173.718Z" fill="#455A64"/>
<g opacity="0.2">
<path d="M468.948 173.718C468.528 173.718 454.384 186.947 454.384 186.947H459.756L474.928 173.718H468.948Z" fill="white"/>
</g>
<path d="M556.434 173.718H530.815V186.947H556.434V173.718Z" fill="#455A64"/>
<g opacity="0.2">
<path d="M545.379 173.718C544.958 173.718 530.815 186.947 530.815 186.947H536.187L551.36 173.718H545.379Z" fill="white"/>
</g>
<g opacity="0.2">
<path d="M539.729 186.947C539.729 186.947 554.414 173.718 554.608 173.718C554.801 173.718 556.434 173.718 556.434 173.718V175.237L542.306 186.947H539.729Z" fill="white"/>
</g>
<g opacity="0.3">
<path d="M206.02 222.604H197.608V231.016H206.02V222.604Z" fill="black"/>
</g>
<g opacity="0.3">
<path d="M359.272 222.604H350.86V231.016H359.272V222.604Z" fill="black"/>
</g>
<g opacity="0.3">
<path d="M504.937 222.604H496.525V231.016H504.937V222.604Z" fill="black"/>
</g>
<path d="M454.149 321.748C480.741 321.748 502.298 315.773 502.298 308.403C502.298 301.032 480.741 295.058 454.149 295.058C427.557 295.058 406 301.032 406 308.403C406 315.773 427.557 321.748 454.149 321.748Z" fill="#F5F5F5"/>
<path d="M484.066 210.226H423.7V276.203H484.066V210.226Z" fill="#E0E0E0"/>
<path d="M484.066 276.204C484.066 276.204 484.058 276.093 484.055 275.886C484.052 275.666 484.049 275.361 484.043 274.965C484.038 274.143 484.03 272.951 484.02 271.401C484.007 268.277 483.99 263.725 483.967 257.943C483.942 246.383 483.907 229.914 483.865 210.227L484.065 210.427C466.367 210.435 445.693 210.444 423.707 210.455H423.701L423.929 210.227C423.917 234.499 423.905 257.169 423.895 276.204L423.701 276.009C441.821 276.051 456.887 276.085 467.438 276.11C472.713 276.132 476.857 276.148 479.7 276.16C481.109 276.17 482.192 276.178 482.94 276.183C483.675 276.189 484.066 276.204 484.066 276.204C484.066 276.204 483.705 276.219 482.983 276.226C482.243 276.232 481.173 276.239 479.78 276.249C476.948 276.261 472.819 276.278 467.561 276.3C456.981 276.324 441.872 276.359 423.701 276.4L423.506 276.401V276.206C423.496 257.171 423.484 234.501 423.471 210.228V210H423.701H423.707C445.693 210.011 466.368 210.019 484.065 210.028H484.266V210.228C484.224 229.969 484.189 246.482 484.165 258.074C484.142 263.837 484.124 268.373 484.112 271.486C484.102 273.019 484.093 274.199 484.088 275.011C484.083 275.398 484.079 275.695 484.077 275.909C484.073 276.108 484.066 276.204 484.066 276.204Z" fill="#263238"/>
<path d="M429.568 268.221L429.329 268.159C429.185 268.005 426.445 264.639 424.094 261.729C418.982 255.398 418.995 255.367 419.068 255.197L419.271 255.064V255.284L419.47 255.197C419.785 255.768 429.571 267.775 429.65 267.86L429.491 268.007L429.568 268.221Z" fill="#455A64"/>
<path d="M430.58 264.298L430.342 264.234C430.195 264.075 427.626 260.922 425.097 257.789C419.996 251.472 420.01 251.442 420.084 251.271L420.286 251.14V251.359L420.485 251.272C420.803 251.849 430.586 263.851 430.664 263.936L430.506 264.083L430.58 264.298Z" fill="#455A64"/>
<path d="M419.781 260.125H418.626C417.176 260.125 416 258.949 416 257.499V249.019C416 247.569 417.175 246.394 418.626 246.394H419.781C421.231 246.394 422.407 247.569 422.407 249.019V257.499C422.407 258.95 421.231 260.125 419.781 260.125Z" fill="#455A64"/>
<path d="M479.484 268.222L479.558 268.015L479.401 267.861C479.48 267.776 489.265 255.769 489.582 255.198L489.761 255.297L489.779 255.286V255.064L489.983 255.197C490.057 255.367 490.07 255.398 484.957 261.729C482.606 264.64 479.867 268.005 479.723 268.159L479.484 268.222Z" fill="#455A64"/>
<path d="M478.47 264.297L478.544 264.09L478.388 263.936C478.467 263.851 488.252 251.843 488.568 251.272L488.747 251.371L488.766 251.36V251.139L488.97 251.271C489.043 251.441 489.057 251.472 483.944 257.803C481.593 260.714 478.853 264.08 478.709 264.234L478.47 264.297Z" fill="#455A64"/>
<path d="M489.271 260.125H490.426C491.876 260.125 493.052 258.949 493.052 257.499V249.019C493.052 247.569 491.877 246.394 490.426 246.394H489.271C487.821 246.394 486.645 247.569 486.645 249.019V257.499C486.645 258.95 487.821 260.125 489.271 260.125Z" fill="#455A64"/>
<path d="M432.66 285.909H422.932V303.686H432.66V285.909Z" fill="#263238"/>
<path d="M487.036 285.909H476.855V303.686H487.036V285.909Z" fill="#263238"/>
<path d="M434.364 234.369C433.03 234.388 431.794 235.058 431.037 236.156C430.618 236.765 430.222 237.441 430.046 238.032C429.588 239.56 427.079 243.785 425.091 258.763C424.363 263.369 423.773 268.679 423.257 274.353L422.646 279.688L486.315 279.953C486.315 279.953 484.487 261.852 484.064 258.757C483.643 255.664 478.72 236.617 478.72 236.617C478.72 236.617 478.86 234.988 475.485 234.397C472.561 233.884 442.364 234.26 434.364 234.369Z" fill="#903FEE"/>
<g opacity="0.3">
<path d="M437.413 268.493H471.927L485.071 267.457L486.315 279.626L471.295 279.953L422.646 279.689L423.409 272.72L423.947 267.457L437.413 268.493Z" fill="black"/>
</g>
<path d="M431.766 242.723C431.766 242.723 429.207 242.822 428.223 247.644C427.239 252.467 426.452 260.242 426.452 260.242H482.847L479.993 246.267C479.993 246.267 479.608 243.885 476.352 242.723C473.073 241.554 433.166 241.394 431.766 242.723Z" fill="#455A64"/>
<path d="M458.159 244.117H450.772C449.842 244.117 449.088 243.362 449.088 242.432V241.795H459.843V242.432C459.843 243.363 459.089 244.117 458.159 244.117Z" fill="#263238"/>
<path d="M426.452 260.243L426.677 258.184H482.294L482.846 260.243H426.452Z" fill="#263238"/>
<path d="M478.697 258.86H478.34C478.34 255.969 475.987 253.616 473.096 253.616C470.205 253.616 467.853 255.969 467.853 258.86H467.495C467.495 255.771 470.008 253.259 473.096 253.259C476.185 253.259 478.697 255.771 478.697 258.86Z" fill="#263238"/>
<path d="M466.126 258.501C466.126 258.501 466.903 257.06 469.158 256.999C471.251 256.943 476.565 257.002 476.565 257.002C476.565 257.002 479.159 257.115 479.909 258.184V258.861H466.126V258.501Z" fill="#263238"/>
<path d="M430.221 258.555C429.995 258.841 430.329 254.35 430.844 252.379C430.963 251.925 431.372 251.608 431.842 251.608H441.03C441.537 251.608 441.969 251.977 442.047 252.479C442.257 253.835 442.821 256.439 442.949 258.569L430.221 258.555Z" fill="#263238"/>
<path d="M438.998 251.014H434.032C433.167 251.014 432.466 250.312 432.466 249.448V248.262C432.466 247.397 433.168 246.696 434.032 246.696H438.998C439.863 246.696 440.564 247.398 440.564 248.262V249.448C440.564 250.312 439.863 251.014 438.998 251.014Z" fill="#263238"/>
<path d="M446.6 258.555C446.373 258.841 446.709 254.35 447.222 252.379C447.341 251.925 447.75 251.608 448.22 251.608H457.408C457.916 251.608 458.348 251.977 458.426 252.479C458.636 253.835 459.2 256.439 459.328 258.569L446.6 258.555Z" fill="#263238"/>
<path d="M455.376 251.014H450.41C449.545 251.014 448.845 250.312 448.845 249.448V248.262C448.845 247.397 449.545 246.696 450.41 246.696H455.376C456.241 246.696 456.942 247.398 456.942 248.262V249.448C456.943 250.312 456.241 251.014 455.376 251.014Z" fill="#263238"/>
<path d="M463.508 258.555C463.281 258.841 463.616 254.35 464.13 252.379C464.249 251.925 464.658 251.608 465.128 251.608H474.316C474.824 251.608 475.256 251.977 475.334 252.479C475.544 253.835 476.107 256.439 476.236 258.569L463.508 258.555Z" fill="#263238"/>
<path d="M472.284 251.014H467.318C466.453 251.014 465.752 250.313 465.752 249.448V248.263C465.752 247.398 466.454 246.697 467.318 246.697H472.284C473.149 246.697 473.85 247.398 473.85 248.263V249.448C473.851 250.313 473.149 251.014 472.284 251.014Z" fill="#263238"/>
<path d="M482.846 260.242C482.846 260.242 482.851 260.317 482.849 260.463C482.846 260.615 482.842 260.83 482.837 261.109C482.821 261.684 482.799 262.519 482.771 263.592C482.705 265.755 482.609 268.874 482.492 272.722L482.49 272.787H482.425C475.248 272.794 465.461 272.803 454.684 272.813C443.677 272.802 433.704 272.793 426.452 272.786H426.385V272.72C426.397 269.018 426.408 266.021 426.415 263.942C426.423 262.911 426.428 262.108 426.432 261.556C426.437 261.288 426.439 261.083 426.442 260.935C426.446 260.795 426.452 260.723 426.452 260.723C426.452 260.723 426.458 260.795 426.461 260.935C426.464 261.082 426.467 261.288 426.471 261.556C426.475 262.109 426.481 262.912 426.489 263.942C426.496 266.021 426.506 269.018 426.518 272.72L426.452 272.653C433.703 272.646 443.677 272.636 454.684 272.626C465.461 272.635 475.248 272.645 482.425 272.651L482.357 272.716C482.5 268.868 482.616 265.751 482.696 263.588C482.74 262.516 482.774 261.681 482.798 261.106C482.812 260.828 482.822 260.614 482.83 260.461C482.838 260.317 482.846 260.242 482.846 260.242Z" fill="#263238"/>
<path d="M471.927 268.493C471.858 268.698 471.927 275.378 471.927 275.378C471.927 275.378 483.184 275.99 485.7 273.197L485.07 267.458L471.927 268.493Z" fill="#E0E0E0"/>
<path d="M471.927 268.492C471.924 268.488 472.006 268.478 472.167 268.461C472.342 268.444 472.58 268.421 472.882 268.392C473.525 268.336 474.441 268.255 475.588 268.154C477.93 267.96 481.219 267.688 485.064 267.369L485.148 267.362L485.158 267.447C485.354 269.225 485.569 271.165 485.793 273.184L485.798 273.227L485.77 273.256C485.526 273.508 485.231 273.745 484.905 273.926C483.776 274.555 482.539 274.817 481.361 275.036C480.175 275.238 479.017 275.347 477.907 275.418C475.686 275.548 473.66 275.53 471.924 275.446L471.858 275.442V275.376C471.846 273.256 471.847 271.534 471.859 270.343C471.865 269.747 471.873 269.284 471.886 268.97C471.892 268.66 471.92 268.485 471.927 268.492C471.927 268.741 471.93 269.264 471.935 270.344C471.95 271.548 471.97 273.265 471.997 275.376L471.931 275.307C473.66 275.376 475.684 275.383 477.895 275.245C479 275.171 480.154 275.058 481.33 274.856C482.496 274.639 483.723 274.374 484.812 273.766C485.127 273.591 485.403 273.367 485.632 273.133L485.609 273.205C485.389 271.185 485.178 269.244 484.985 267.466L485.079 267.543C481.25 267.829 477.974 268.074 475.642 268.248C474.486 268.329 473.565 268.393 472.917 268.439C472.608 268.458 472.365 268.473 472.186 268.485C472.11 268.488 472.048 268.491 471.996 268.493C471.951 268.495 471.928 268.494 471.927 268.492Z" fill="#263238"/>
<path d="M437.205 268.493C437.273 268.698 437.205 275.378 437.205 275.378C437.205 275.378 425.949 275.99 423.431 273.197L424.061 267.458L437.205 268.493Z" fill="#E0E0E0"/>
<path d="M437.205 268.493C437.203 268.494 437.18 268.495 437.137 268.493C437.085 268.491 437.023 268.488 436.946 268.485C436.767 268.473 436.525 268.458 436.216 268.439C435.569 268.393 434.647 268.329 433.491 268.248C431.158 268.074 427.883 267.83 424.054 267.543L424.148 267.466C423.955 269.244 423.744 271.184 423.524 273.206L423.5 273.134C423.729 273.367 424.005 273.591 424.32 273.766C425.409 274.374 426.636 274.639 427.802 274.857C428.978 275.058 430.132 275.171 431.237 275.245C433.448 275.383 435.472 275.376 437.201 275.307L437.135 275.376C437.161 273.266 437.182 271.549 437.197 270.344C437.2 269.264 437.203 268.741 437.205 268.493C437.211 268.486 437.239 268.66 437.247 268.971C437.26 269.286 437.268 269.748 437.274 270.344C437.286 271.535 437.287 273.257 437.275 275.377V275.443L437.209 275.447C435.473 275.531 433.447 275.549 431.226 275.419C430.116 275.348 428.958 275.239 427.772 275.037C426.594 274.818 425.357 274.556 424.228 273.927C423.902 273.745 423.607 273.509 423.363 273.257L423.335 273.228L423.34 273.185C423.564 271.165 423.779 269.225 423.975 267.448L423.985 267.363L424.069 267.37C427.914 267.689 431.202 267.961 433.545 268.155C434.692 268.256 435.608 268.337 436.251 268.393C436.553 268.422 436.791 268.445 436.966 268.462C437.126 268.479 437.207 268.489 437.205 268.493Z" fill="#263238"/>
<path d="M422.646 279.689C422.646 279.689 422.024 288.01 423.456 293.066C423.918 294.697 425.417 295.813 427.112 295.813H483.139C484.354 295.813 485.448 295.072 485.886 293.938C486.775 291.64 487.731 287.766 486.315 279.627L469.739 279.689H422.646Z" fill="#263238"/>
<g opacity="0.3">
<path d="M424.212 282.415C424.39 282.534 424.922 286.156 427.465 286.688C430.008 287.22 434.265 286.924 434.265 286.924V282.415H424.212Z" fill="black"/>
</g>
<path d="M432.125 284.662C432.125 285.797 431.205 286.717 430.071 286.717C428.936 286.717 428.016 285.797 428.016 284.662C428.016 283.528 428.936 282.607 430.071 282.607C431.205 282.607 432.125 283.527 432.125 284.662Z" fill="white"/>
<g opacity="0.3">
<path d="M482.713 282.466C482.535 282.584 482.003 286.207 479.46 286.739C476.917 287.271 472.66 286.975 472.66 286.975V282.466H482.713Z" fill="black"/>
</g>
<path d="M474.801 284.711C474.801 285.846 475.721 286.766 476.856 286.766C477.99 286.766 478.911 285.846 478.911 284.711C478.911 283.577 477.99 282.656 476.856 282.656C475.72 282.656 474.801 283.576 474.801 284.711Z" fill="white"/>
<path d="M439.107 282.415V285.947C439.107 287.854 440.653 289.401 442.56 289.401H466.539C468.446 289.401 469.993 287.854 469.993 285.947V282.606L439.107 282.415Z" fill="#455A64"/>
<g opacity="0.3">
<path d="M466.538 288.005H442.56C440.652 288.005 439.106 286.458 439.106 284.551V286.009C439.106 287.916 440.652 289.462 442.56 289.462H466.538C468.446 289.462 469.992 287.916 469.992 286.009V284.551C469.992 286.459 468.446 288.005 466.538 288.005Z" fill="black"/>
</g>
<path d="M440.997 272.72C440.997 272.72 439.374 273.373 439.107 275.849C438.781 278.87 442.235 279.689 442.235 279.689H468.494C468.494 279.689 469.927 278.064 469.993 275.849C470.058 273.633 467.973 272.72 467.973 272.72H440.997Z" fill="#263238"/>
<path d="M486.315 279.627C486.315 279.627 486.587 280.893 486.854 283.219C486.98 284.381 487.103 285.811 487.08 287.476C487.056 289.135 486.896 291.048 486.268 293.056C486.185 293.305 486.102 293.557 486.007 293.808C485.918 294.06 485.803 294.319 485.645 294.549C485.334 295.015 484.881 295.401 484.344 295.633C484.077 295.75 483.789 295.828 483.493 295.863C483.194 295.898 482.901 295.883 482.605 295.887C482.012 295.888 481.408 295.888 480.793 295.889C478.334 295.892 475.709 295.895 472.944 295.898C467.416 295.901 461.34 295.903 454.961 295.905C448.58 295.903 442.502 295.9 436.973 295.898C434.208 295.896 431.582 295.892 429.123 295.889C428.508 295.888 427.904 295.888 427.311 295.887C426.714 295.905 426.113 295.798 425.579 295.57C424.507 295.108 423.719 294.179 423.419 293.159C422.866 291.13 422.681 289.234 422.574 287.577C422.473 285.917 422.465 284.485 422.479 283.315C422.494 282.145 422.537 281.238 422.573 280.624C422.594 280.321 422.61 280.089 422.62 279.925C422.633 279.767 422.646 279.688 422.646 279.688C422.646 279.688 422.646 279.768 422.64 279.926C422.633 280.091 422.623 280.323 422.611 280.625C422.587 281.24 422.556 282.147 422.552 283.316C422.549 284.484 422.567 285.914 422.677 287.57C422.794 289.221 422.99 291.114 423.544 293.12C423.838 294.103 424.601 294.995 425.635 295.437C426.153 295.655 426.721 295.756 427.311 295.737C427.903 295.737 428.507 295.736 429.122 295.735C431.581 295.732 434.207 295.73 436.972 295.726C442.501 295.723 448.579 295.722 454.96 295.719C461.339 295.722 467.416 295.724 472.943 295.726C475.707 295.729 478.334 295.732 480.792 295.735C481.407 295.736 482.011 295.737 482.604 295.737C482.901 295.735 483.197 295.75 483.476 295.717C483.758 295.685 484.032 295.611 484.287 295.5C484.799 295.281 485.232 294.915 485.531 294.471C485.684 294.25 485.791 294.011 485.881 293.759C485.978 293.51 486.06 293.26 486.143 293.013C486.775 291.026 486.944 289.125 486.977 287.471C487.01 285.814 486.898 284.386 486.783 283.224C486.729 282.642 486.665 282.127 486.605 281.681C486.551 281.234 486.495 280.857 486.447 280.553C486.403 280.253 486.369 280.023 486.345 279.861C486.322 279.708 486.315 279.627 486.315 279.627Z" fill="#455A64"/>
<path d="M486.315 279.626C486.315 279.678 472.867 279.719 456.281 279.719C439.689 279.719 426.244 279.678 426.244 279.626C426.244 279.574 439.689 279.533 456.281 279.533C472.867 279.533 486.315 279.574 486.315 279.626Z" fill="#455A64"/>
<path d="M456.453 185.429L463.703 176.153C472.426 174.399 480.749 170.03 487.42 162.989C503.154 146.381 503.67 120.033 488.635 102.789C471.262 82.8643 440.508 82.1253 422.205 101.471C406.666 117.895 405.956 143.83 420.547 161.101C427.787 169.672 437.464 174.801 447.62 176.447L447.594 176.45L456.453 185.429Z" fill="white"/>
<path d="M456.453 185.429C456.453 185.429 456.26 185.262 455.877 184.891C455.465 184.487 454.897 183.931 454.164 183.213C452.612 181.674 450.368 179.447 447.471 176.573C447.403 176.506 447.403 176.397 447.47 176.329C447.499 176.3 447.539 176.283 447.577 176.279C447.577 176.279 447.593 176.277 447.602 176.276L447.592 176.62C442.094 175.75 434.756 173.567 427.621 168.19C424.063 165.528 420.647 162.067 417.675 157.864C414.742 153.64 412.373 148.604 410.989 143.003C409.631 137.401 409.301 131.24 410.29 125.011C411.284 118.8 413.537 112.465 417.393 106.883C421.192 101.284 426.407 96.3904 432.611 92.8364C438.8 89.2384 446.079 87.2534 453.52 87.0434C457.29 86.8424 461.017 87.3664 464.641 88.0544C466.423 88.5304 468.213 88.9804 469.934 89.5864L472.476 90.5954L473.738 91.1044L474.941 91.7334C481.418 94.9584 486.881 99.6904 491.007 105.13C495.176 110.568 497.722 116.868 498.998 123.081C500.262 129.318 500.176 135.539 499.036 141.23C497.874 146.924 495.69 152.082 492.914 156.442C492.168 157.498 491.435 158.536 490.714 159.557C489.97 160.559 489.114 161.447 488.342 162.371C486.766 164.195 485.035 165.755 483.318 167.166C476.371 172.809 469.138 175.258 463.738 176.318L463.837 176.257C461.469 179.218 459.626 181.522 458.347 183.121C457.745 183.865 457.275 184.444 456.934 184.866C456.615 185.254 456.454 185.444 456.453 185.429C456.453 185.429 456.612 185.194 456.923 184.778C457.256 184.337 457.713 183.731 458.3 182.953C459.527 181.345 461.298 179.027 463.571 176.05C463.596 176.018 463.634 175.996 463.671 175.988C469.017 174.861 476.15 172.366 482.972 166.743C484.658 165.337 486.359 163.784 487.903 161.975C488.659 161.058 489.498 160.179 490.226 159.186C490.931 158.176 491.649 157.148 492.378 156.103C495.092 151.791 497.218 146.701 498.34 141.091C499.44 135.483 499.502 129.362 498.242 123.234C496.969 117.13 494.456 110.949 490.353 105.618C486.291 100.285 480.922 95.6464 474.565 92.4894L473.385 91.8724L472.146 91.3744L469.651 90.3854C467.962 89.7914 466.205 89.3514 464.457 88.8854C460.9 88.2134 457.243 87.6974 453.544 87.8954C446.243 88.1014 439.101 90.0434 433.027 93.5694C426.937 97.0504 421.808 101.851 418.071 107.339C414.274 112.81 412.048 119.027 411.054 125.131C410.065 131.252 410.369 137.315 411.683 142.833C413.024 148.351 415.333 153.321 418.202 157.499C421.109 161.656 424.46 165.095 427.956 167.748C434.965 173.108 442.204 175.339 447.65 176.276C447.744 176.291 447.809 176.379 447.795 176.474C447.783 176.553 447.716 176.611 447.64 176.62C447.631 176.621 447.615 176.623 447.615 176.623L447.721 176.329C450.523 179.231 452.694 181.48 454.195 183.034C454.916 183.789 455.475 184.375 455.88 184.799C456.256 185.202 456.453 185.429 456.453 185.429Z" fill="#263238"/>
<path d="M453.466 112.605L433.422 121.286V144.358L453.466 153.701L473.509 145.332V120.782L453.466 112.605Z" fill="#903FEE"/>
<path d="M453.475 130.687L433.127 121.977L433.717 120.599L453.457 129.048L473.199 120.1L473.819 121.466L453.475 130.687Z" fill="white"/>
<path d="M454.215 129.866H452.716V153.701H454.215V129.866Z" fill="white"/>
<path d="M473.027 152.225C476.937 152.225 480.106 149.056 480.106 145.146C480.106 141.237 476.937 138.067 473.027 138.067C469.118 138.067 465.948 141.237 465.948 145.146C465.948 149.056 469.118 152.225 473.027 152.225Z" fill="#455A64"/>
<path d="M469.261 145.347L470.301 144.196L472.507 145.967L475.784 142.204L476.856 143.248L472.457 148.087L469.261 145.347Z" fill="white"/>
<path d="M184.5 353.205C231.72 353.205 270 349.399 270 344.705C270 340.011 231.72 336.205 184.5 336.205C137.28 336.205 99 340.011 99 344.705C99 349.399 137.28 353.205 184.5 353.205Z" fill="#F5F5F5"/>
<path d="M151.863 317.362H107.516V342.916H151.863V317.362Z" fill="#263238"/>
<path d="M219.316 330.154H169.242V342.315H219.316V330.154Z" fill="#455A64"/>
<path d="M149.236 326.841V342.917H162.478L167.786 335.223H279.999V326.841H149.236Z" fill="#263238"/>
<path d="M145.838 266.352C145.804 265.75 145.296 265.286 144.693 265.311C138.838 265.551 111.031 266.826 105.314 269.575C100.938 271.678 96.143 279.54 92.762 284.833C90.3389 288.627 84.9846 297.052 83.9021 301.358C82.9847 305.005 82.4329 312.574 82.4961 316.335L82.8108 336.218H109.225L111.748 329.651C113.394 325.367 117.509 322.54 122.099 322.54H147.139V289.543L145.838 266.352Z" fill="#FE6336"/>
<path d="M102.327 271.774C98.8587 275.085 95.3855 280.727 92.7625 284.833C90.5186 288.346 85.7635 295.827 84.2109 300.335C84.182 300.419 84.1582 300.498 84.1315 300.58C84.8994 300.367 86.0799 299.933 86.4427 299.207C86.995 298.103 87.7044 294.327 96.4629 280.066C99.1322 275.72 101.729 273.177 102.327 271.774Z" fill="#455A64"/>
<path d="M82.1704 318.061C82.1722 317.698 82.3176 317.416 82.5019 317.414L86.5465 317.362C86.8849 317.358 87.137 318.003 87.1173 318.75L87.053 321.844C87.0426 322.341 86.8606 322.747 86.6369 322.768L82.488 323.147C82.3008 323.164 82.1467 322.877 82.1484 322.511L82.1704 318.061Z" fill="#EBEBEB"/>
<path d="M111.009 332.695H82V344.326H111.009V332.695Z" fill="#263238"/>
<path d="M113.905 340.383C113.778 349.147 120.78 356.354 129.544 356.481C138.309 356.607 145.516 349.604 145.643 340.841C145.769 332.076 138.767 324.869 130.002 324.743C121.239 324.617 114.031 331.618 113.905 340.383Z" fill="#263238"/>
<path d="M113.907 340.342C113.907 340.356 113.905 340.369 113.905 340.383C113.778 349.147 120.78 356.354 129.544 356.481C138.309 356.607 145.516 349.605 145.643 340.841C145.643 340.827 145.641 340.814 145.641 340.8L113.907 340.342Z" fill="#263238"/>
<path d="M118.632 340.451C118.544 346.604 123.46 351.665 129.613 351.753C135.766 351.842 140.826 346.926 140.915 340.773C141.004 334.62 136.087 329.56 129.934 329.471C123.782 329.382 118.722 334.298 118.632 340.451Z" fill="#FAFAFA"/>
<path d="M129.934 329.471C123.782 329.382 118.722 334.298 118.633 340.451L140.916 340.773C141.004 334.619 136.087 329.56 129.934 329.471Z" fill="#E0E0E0"/>
<path d="M122.987 340.514C122.933 344.262 125.928 347.344 129.675 347.398C133.424 347.452 136.506 344.457 136.56 340.709C136.614 336.96 133.62 333.878 129.871 333.824C126.123 333.771 123.041 336.766 122.987 340.514Z" fill="#263238"/>
<path d="M112.33 344.423L108.998 344.035C109.689 334.55 111.393 329.07 112.786 326.883C115.462 322.678 118.121 321.919 121.07 321.415C123.812 320.948 126.579 321.059 129.254 321.167L129.911 321.193C135.434 321.408 147.002 321.217 147.118 321.215L147.163 323.863C147.046 323.865 135.404 324.058 129.808 323.84L129.147 323.813C126.608 323.711 123.983 323.605 121.516 324.026C118.883 324.476 117.131 324.988 115.02 328.305C114.381 329.309 113.182 332.738 112.33 344.423Z" fill="#263238"/>
<path d="M276.67 326.759H149.402C149.311 326.759 149.236 326.685 149.236 326.594V249.316C149.236 249.225 149.311 249.15 149.402 249.15H276.67C276.761 249.15 276.835 249.225 276.835 249.316V326.594C276.835 326.685 276.761 326.759 276.67 326.759Z" fill="#E0E0E0"/>
<path d="M276.67 326.76C276.651 326.756 276.812 326.775 276.828 326.588C276.826 326.407 276.824 326.143 276.82 325.796C276.817 325.092 276.812 324.051 276.805 322.688C276.799 319.952 276.789 315.925 276.777 310.739C276.765 300.358 276.749 285.343 276.729 266.791C276.726 262.152 276.722 257.292 276.719 252.228C276.718 251.596 276.718 250.959 276.718 250.32L276.717 249.359C276.721 249.276 276.709 249.294 276.686 249.273C276.681 249.271 276.676 249.27 276.67 249.27H276.61H276.489L276.006 249.271C274.714 249.271 273.411 249.272 272.095 249.273C269.463 249.274 266.782 249.276 264.056 249.277C253.146 249.282 241.49 249.286 229.224 249.291C204.692 249.294 177.722 249.298 149.413 249.302C149.403 263.375 149.394 277.113 149.385 290.382C149.384 297.057 149.382 303.614 149.381 310.036C149.381 313.248 149.38 316.425 149.379 319.566C149.378 321.136 149.378 322.698 149.378 324.25C149.378 325.026 149.377 325.8 149.377 326.572C149.377 326.626 149.384 326.613 149.409 326.621H149.698H150.276L151.428 326.622C175.962 326.634 198.056 326.645 216.613 326.654C235.165 326.674 250.178 326.691 260.558 326.702C265.743 326.714 269.77 326.724 272.506 326.731C273.869 326.737 274.909 326.742 275.613 326.746C276.311 326.75 276.67 326.76 276.67 326.76C276.67 326.76 276.311 326.771 275.611 326.776C274.907 326.779 273.866 326.784 272.504 326.791C269.769 326.797 265.741 326.807 260.556 326.819C250.176 326.831 235.163 326.847 216.611 326.867C198.055 326.877 175.961 326.888 151.426 326.9L150.274 326.9H149.697H149.407C149.233 326.921 149.068 326.713 149.096 326.572C149.096 325.8 149.096 325.026 149.096 324.25C149.095 322.698 149.095 321.136 149.094 319.566C149.094 316.425 149.093 313.248 149.092 310.036C149.091 303.615 149.09 297.057 149.089 290.382C149.088 283.706 149.087 276.913 149.086 270.017C149.086 266.57 149.086 263.097 149.086 259.601C149.086 257.853 149.086 256.1 149.086 254.34C149.086 253.461 149.086 252.58 149.086 251.698V250.373V249.71V249.379C149.085 249.347 149.077 249.217 149.147 249.131C149.203 249.045 149.325 248.995 149.412 249C177.721 249.005 204.692 249.009 229.224 249.012C241.49 249.017 253.146 249.021 264.055 249.026C266.782 249.028 269.463 249.029 272.094 249.03C273.41 249.031 274.714 249.032 276.005 249.032H276.489H276.609H276.67C276.704 249.032 276.739 249.039 276.771 249.051C276.907 249.086 276.973 249.282 276.953 249.358L276.952 250.319C276.951 250.959 276.951 251.595 276.951 252.228C276.947 257.292 276.944 262.151 276.941 266.79C276.921 285.342 276.904 300.357 276.893 310.738C276.881 315.924 276.871 319.952 276.864 322.688C276.858 324.051 276.853 325.091 276.849 325.795C276.846 326.142 276.844 326.406 276.842 326.587C276.818 326.79 276.649 326.76 276.67 326.76Z" fill="#263238"/>
<path d="M240.04 356.438C247.844 355.763 253.622 348.89 252.947 341.087C252.272 333.283 245.399 327.505 237.595 328.18C229.792 328.855 224.013 335.728 224.688 343.532C225.364 351.335 232.237 357.114 240.04 356.438Z" fill="#263238"/>
<path d="M224.64 342.06C224.64 342.072 224.637 342.084 224.637 342.096C224.524 349.927 230.782 356.368 238.613 356.481C246.445 356.594 252.886 350.336 252.999 342.505C252.999 342.492 252.997 342.48 252.997 342.468L224.64 342.06Z" fill="#263238"/>
<path d="M228.862 342.157C228.783 347.656 233.176 352.177 238.674 352.256C244.173 352.336 248.694 347.943 248.774 342.444C248.853 336.946 244.46 332.424 238.962 332.345C233.462 332.266 228.941 336.659 228.862 342.157Z" fill="#FAFAFA"/>
<path d="M238.961 332.345C233.462 332.265 228.942 336.659 228.862 342.157L248.773 342.444C248.853 336.946 244.46 332.424 238.961 332.345Z" fill="#E0E0E0"/>
<path d="M232.753 342.213C232.705 345.562 235.381 348.316 238.73 348.365C242.079 348.413 244.834 345.737 244.882 342.388C244.93 339.039 242.255 336.284 238.905 336.236C235.556 336.187 232.801 338.864 232.753 342.213Z" fill="#263238"/>
<path d="M220.174 346.186C220.174 346.186 218.014 326.073 238.859 326.073C258.093 326.073 257.664 343.376 257.483 346.052H254.467C254.467 346.052 256.003 329 238.859 329C221.715 329 223.209 346.398 223.209 346.398C223.209 346.398 221.943 346.331 220.174 346.186Z" fill="#263238"/>
<path d="M92.9324 302.891C93.2285 302.989 107.941 302.891 107.941 302.891L140.326 290.45V269.419C140.326 269.419 118.505 270.604 114.161 271.295C109.817 271.986 106.886 275.918 104.781 279.13C101.902 283.523 92.9324 302.891 92.9324 302.891Z" fill="#455A64"/>
<path d="M92.9324 302.89C92.9324 302.89 92.9689 302.786 93.0599 302.58C93.1549 302.368 93.2882 302.07 93.4621 301.683C93.8283 300.888 94.3615 299.732 95.0459 298.247C96.4409 295.269 98.4582 290.953 101.101 285.676C101.762 284.356 102.472 282.982 103.236 281.561C103.999 280.138 104.872 278.691 105.898 277.283C106.924 275.878 108.08 274.461 109.551 273.295C111.001 272.129 112.825 271.236 114.809 271.069C118.712 270.617 122.82 270.362 127.086 270.066C131.353 269.785 135.777 269.518 140.318 269.267L140.477 269.259V269.418C140.477 270.263 140.477 271.172 140.477 272.087C140.475 278.466 140.473 284.641 140.471 290.449V290.55L140.378 290.586C127.326 295.577 116.035 299.895 107.974 302.978L107.957 302.985H107.941C103.208 302.985 99.4585 302.985 96.8802 302.985C95.6052 302.969 94.6206 302.957 93.9431 302.948C93.6174 302.937 93.3676 302.927 93.1874 302.921C93.0106 302.907 92.9324 302.89 92.9324 302.89C92.9324 302.89 94.3134 302.9 96.8802 302.883C99.4579 302.863 103.207 302.834 107.939 302.796L107.906 302.803C115.958 299.696 127.236 295.344 140.273 290.314L140.18 290.449C140.178 284.641 140.177 278.466 140.174 272.087C140.174 271.173 140.174 270.263 140.174 269.418L140.333 269.569C135.794 269.819 131.369 270.082 127.104 270.359C122.842 270.65 118.726 270.899 114.844 271.341C112.897 271.502 111.145 272.359 109.713 273.5C108.268 274.639 107.119 276.035 106.096 277.427C105.07 278.826 104.203 280.254 103.436 281.67C102.668 283.084 101.953 284.454 101.288 285.77C98.6217 291.031 96.5753 295.333 95.1485 298.295C94.4426 299.77 93.8927 300.918 93.5148 301.708C93.3299 302.09 93.1874 302.384 93.0865 302.593C92.9909 302.789 92.9324 302.89 92.9324 302.89Z" fill="#263238"/>
<g opacity="0.2">
<path d="M99.9917 302.934C100.273 302.928 108.396 280.106 112.453 278.481C116.51 276.855 140.326 275.735 140.326 275.735V269.419L117.887 270.58C112.31 270.868 107.298 274.076 104.701 279.02L93.2297 302.89L99.9917 302.934Z" fill="black"/>
</g>
<path d="M107.94 302.89L110.43 272.809L111.962 271.956L109.951 295.09C109.951 295.09 112.581 293.708 120.578 292.819C128.576 291.931 140.326 290.45 140.326 290.45L107.94 302.89Z" fill="#263238"/>
<path d="M91.5473 330.329C91.5473 330.329 91.5815 330.537 91.6331 330.945C91.6835 331.358 91.7571 331.962 91.8539 332.753C92.0422 334.351 92.3186 336.701 92.6768 339.74L92.6165 339.687C96.6594 339.678 102.006 339.667 108.407 339.652L108.313 339.738C108.646 337.833 109.173 335.893 109.698 333.838C110.26 331.801 110.728 329.62 111.658 327.487C112.588 325.369 114.073 323.349 116.134 321.911C118.214 320.52 120.779 319.688 123.462 319.772L123.451 319.771C129.48 319.754 136.071 319.737 142.99 319.718L142.849 319.86C142.753 307.646 142.641 294.248 142.654 280.248C142.66 278.315 142.666 276.394 142.707 274.482C142.725 273.522 142.789 272.575 142.819 271.63C142.84 270.688 142.886 269.737 142.744 268.831C142.668 268.387 142.54 267.935 142.229 267.655C141.918 267.385 141.465 267.266 141.016 267.276C140.104 267.269 139.166 267.337 138.246 267.395C136.399 267.519 134.567 267.675 132.752 267.83C129.122 268.162 125.557 268.488 122.066 268.807C120.32 268.97 118.592 269.132 116.885 269.292C116.031 269.369 115.181 269.446 114.337 269.522C113.491 269.591 112.677 269.721 111.876 269.94C110.28 270.389 108.816 271.178 107.484 272.094C106.152 273.015 104.955 274.096 103.898 275.263C101.891 277.693 100.231 280.307 98.7144 282.859C95.717 287.995 93.3114 293.018 91.5884 297.77C91.1619 298.958 90.7921 300.14 90.5586 301.31C90.3332 302.482 90.3552 303.661 90.3442 304.798C90.3465 307.077 90.4352 309.227 90.5198 311.236C90.6971 315.256 90.9057 318.715 91.075 321.543C91.2453 324.366 91.3775 326.559 91.4679 328.055C91.5038 328.795 91.5316 329.36 91.5502 329.75C91.5699 330.132 91.5473 330.329 91.5473 330.329C91.5473 330.329 91.5166 329.547 91.407 328.059C91.3039 326.564 91.1526 324.372 90.9579 321.551C90.7707 318.725 90.5453 315.265 90.3517 311.245C90.259 309.235 90.1628 307.084 90.1523 304.8C90.1605 303.661 90.1332 302.473 90.3592 301.275C90.5928 300.083 90.962 298.895 91.3868 297.7C92.2329 295.307 93.2801 292.862 94.4658 290.36C95.6556 287.861 96.9903 285.307 98.4982 282.733C100.018 280.167 101.668 277.555 103.7 275.087C104.77 273.902 105.977 272.808 107.328 271.871C108.678 270.94 110.166 270.135 111.799 269.673C112.614 269.449 113.468 269.312 114.312 269.243C115.156 269.166 116.005 269.089 116.858 269.011C118.566 268.849 120.293 268.686 122.038 268.521C125.531 268.2 129.096 267.872 132.726 267.537C134.542 267.381 136.375 267.224 138.226 267.099C139.154 267.041 140.076 266.971 141.031 266.979C141.507 266.972 142.029 267.089 142.431 267.436C142.826 267.798 142.958 268.316 143.04 268.784C143.189 269.742 143.14 270.692 143.119 271.642C143.09 272.591 143.026 273.543 143.008 274.492C142.968 276.397 142.962 278.319 142.955 280.251C142.942 294.247 143.048 307.646 143.132 319.859L143.133 320.001H142.991C136.071 320.011 129.481 320.02 123.452 320.029L123.441 320.028C120.844 319.943 118.303 320.753 116.27 322.111C114.25 323.516 112.787 325.493 111.865 327.58C110.945 329.674 110.467 331.857 109.901 333.892C109.37 335.936 108.836 337.897 108.502 339.758L108.486 339.843H108.407C102.006 339.83 96.6594 339.818 92.6165 339.809H92.562L92.5563 339.755C92.223 336.708 91.9657 334.352 91.7907 332.751C91.7078 331.96 91.6441 331.356 91.6006 330.942C91.56 330.536 91.5473 330.329 91.5473 330.329Z" fill="#263238"/>
<path d="M137.674 304.739C137.674 304.725 137.767 304.726 137.929 304.672C138.085 304.619 138.32 304.489 138.466 304.209C138.624 303.937 138.542 303.516 138.548 303.05C138.542 302.617 138.12 302.158 137.545 302.229C135.173 302.256 131.895 302.273 128.275 302.273C127.888 302.267 127.534 302.57 127.477 302.941C127.45 303.109 127.469 303.365 127.462 303.571C127.458 303.801 127.458 303.969 127.545 304.136C127.623 304.299 127.758 304.432 127.918 304.509C128.082 304.595 128.243 304.597 128.461 304.594C128.871 304.596 129.273 304.598 129.666 304.599C131.222 304.612 132.631 304.623 133.834 304.632C134.983 304.652 135.93 304.668 136.644 304.68C137.307 304.699 137.674 304.718 137.674 304.739C137.674 304.76 137.307 304.78 136.644 304.798C135.931 304.81 134.983 304.826 133.834 304.846C132.632 304.855 131.222 304.866 129.666 304.878C129.273 304.88 128.871 304.882 128.461 304.883C128.272 304.89 128.001 304.887 127.79 304.773C127.572 304.668 127.389 304.489 127.28 304.267C127.16 304.051 127.16 303.771 127.164 303.571C127.172 303.344 127.146 303.159 127.181 302.89C127.259 302.379 127.743 301.963 128.275 301.972C131.895 301.972 135.173 301.989 137.545 302.016C137.847 301.993 138.187 302.101 138.392 302.309C138.606 302.511 138.714 302.789 138.717 303.045C138.713 303.278 138.709 303.498 138.706 303.704C138.711 303.911 138.658 304.115 138.57 304.265C138.386 304.573 138.117 304.693 137.945 304.731C137.768 304.768 137.674 304.746 137.674 304.739Z" fill="#263238"/>
<path d="M95.2388 294.27H93.4904C92.1563 294.27 91.0749 293.188 91.0749 291.854V280.896C91.0749 279.562 92.1563 278.48 93.4904 278.48H95.2388C96.5729 278.48 97.6543 279.562 97.6543 280.896V291.854C97.6543 293.188 96.5729 294.27 95.2388 294.27Z" fill="#263238"/>
<path d="M93.039 301.085H92.7081V284.39C92.7081 282.734 94.0555 281.387 95.7112 281.387H96.5046V281.718H95.7112C94.238 281.718 93.039 282.917 93.039 284.39V301.085Z" fill="#263238"/>
<path d="M95.2951 301.104L94.3748 285.492C94.3423 284.946 94.5318 284.426 94.9068 284.028C95.2823 283.63 95.79 283.41 96.3377 283.41V283.741C95.8827 283.741 95.4603 283.924 95.1479 284.255C94.8355 284.585 94.6785 285.018 94.7051 285.473L95.6254 301.084L95.2951 301.104Z" fill="#263238"/>
<path d="M96.3377 299.579H91.8736V304.748H96.3377V299.579Z" fill="#263238"/>
<path d="M94.6895 289.771H92.8738V290.102H94.6895V289.771Z" fill="#263238"/>
<g opacity="0.2">
<path d="M105.596 277.92C105.491 278.098 128.782 294.885 128.782 294.885L137.182 291.658L111.962 271.957C111.962 271.957 108.694 272.658 105.596 277.92Z" fill="white"/>
</g>
<g opacity="0.2">
<path d="M103.067 282.11L123.457 296.93L120.073 298.23L101.449 285.218L103.067 282.11Z" fill="white"/>
</g>
<path d="M273.866 324.741C273.866 324.741 273.858 324.293 273.853 323.431C273.85 322.568 273.846 321.291 273.84 319.621C273.833 316.277 273.824 311.36 273.811 305.049C273.796 292.437 273.775 274.256 273.749 251.964L273.866 252.081C240.982 252.091 198.361 252.102 151.949 252.115H151.939L152.09 251.964C152.086 277.741 152.083 302.347 152.079 324.741L151.939 324.601C187.69 324.629 218.154 324.652 239.685 324.669C250.459 324.685 258.996 324.698 264.845 324.707C267.769 324.714 270.02 324.72 271.545 324.724C272.304 324.728 272.882 324.731 273.274 324.732C273.664 324.735 273.866 324.741 273.866 324.741C273.866 324.741 273.675 324.746 273.291 324.749C272.902 324.75 272.33 324.753 271.578 324.757C270.06 324.761 267.818 324.767 264.906 324.774C259.065 324.783 250.538 324.796 239.778 324.812C218.224 324.829 187.728 324.852 151.939 324.88H151.799V324.74C151.796 302.346 151.792 277.74 151.788 251.963V251.812H151.939H151.948C198.36 251.825 240.981 251.837 273.865 251.846H273.983V251.963C273.957 274.286 273.936 292.491 273.921 305.12C273.908 311.42 273.898 316.328 273.891 319.666C273.886 321.327 273.882 322.596 273.879 323.455C273.875 324.309 273.866 324.741 273.866 324.741Z" fill="#263238"/>
<defs>
<linearGradient id="paint0_linear_131_3" x1="300" y1="-4.47035e-07" x2="304.5" y2="354.5" gradientUnits="userSpaceOnUse">
<stop stop-color="#E5CFFF"/>
<stop offset="0.5" stop-color="white"/>
</linearGradient>
</defs>
</svg>
