<svg width="600" height="360" viewBox="0 0 600 360" fill="none" xmlns="http://www.w3.org/2000/svg">
<rect width="600" height="360" fill="url(#paint0_linear_51_7)"/>
<path d="M33.0341 33.3636V45H31.2784V33.3636H33.0341ZM37.1534 39.8182V45H35.4545V36.2727H37.0852V37.6932H37.1932C37.3939 37.2311 37.7083 36.8598 38.1364 36.5795C38.5682 36.2992 39.1117 36.1591 39.767 36.1591C40.3617 36.1591 40.8826 36.2841 41.3295 36.5341C41.7765 36.7803 42.1231 37.1477 42.3693 37.6364C42.6155 38.125 42.7386 38.7292 42.7386 39.4489V45H41.0398V39.6534C41.0398 39.0208 40.875 38.5265 40.5455 38.1705C40.2159 37.8106 39.7633 37.6307 39.1875 37.6307C38.7936 37.6307 38.4432 37.7159 38.1364 37.8864C37.8333 38.0568 37.5928 38.3068 37.4148 38.6364C37.2405 38.9621 37.1534 39.3561 37.1534 39.8182ZM52.1705 36.2727L49.0057 45H47.1875L44.017 36.2727H45.8409L48.0511 42.9886H48.142L50.3466 36.2727H52.1705ZM57.2315 45.1761C56.3717 45.1761 55.6312 44.9924 55.0099 44.625C54.3925 44.2538 53.9152 43.733 53.5781 43.0625C53.2448 42.3883 53.0781 41.5985 53.0781 40.6932C53.0781 39.7992 53.2448 39.0114 53.5781 38.3295C53.9152 37.6477 54.3849 37.1155 54.9872 36.733C55.5933 36.3504 56.3016 36.1591 57.1122 36.1591C57.6046 36.1591 58.0819 36.2405 58.544 36.4034C59.0062 36.5663 59.4209 36.822 59.7884 37.1705C60.1558 37.5189 60.4455 37.9716 60.6577 38.5284C60.8698 39.0814 60.9759 39.7538 60.9759 40.5455V41.1477H54.0384V39.875H59.3111C59.3111 39.428 59.2202 39.0322 59.0384 38.6875C58.8565 38.339 58.6009 38.0644 58.2713 37.8636C57.9455 37.6629 57.563 37.5625 57.1236 37.5625C56.6463 37.5625 56.2296 37.6799 55.8736 37.9148C55.5213 38.1458 55.2486 38.4489 55.0554 38.8239C54.866 39.1951 54.7713 39.5985 54.7713 40.0341V41.0284C54.7713 41.6117 54.8736 42.108 55.0781 42.517C55.2865 42.9261 55.5762 43.2386 55.9474 43.4545C56.3187 43.6667 56.7524 43.7727 57.2486 43.7727C57.5705 43.7727 57.8641 43.7273 58.1293 43.6364C58.3944 43.5417 58.6236 43.4015 58.8168 43.2159C59.0099 43.0303 59.1577 42.8011 59.2599 42.5284L60.8679 42.8182C60.7391 43.2917 60.508 43.7064 60.1747 44.0625C59.8452 44.4148 59.4304 44.6894 58.9304 44.8864C58.4342 45.0795 57.8679 45.1761 57.2315 45.1761ZM64.5597 39.8182V45H62.8608V36.2727H64.4915V37.6932H64.5994C64.8002 37.2311 65.1146 36.8598 65.5426 36.5795C65.9744 36.2992 66.518 36.1591 67.1733 36.1591C67.768 36.1591 68.2888 36.2841 68.7358 36.5341C69.1828 36.7803 69.5294 37.1477 69.7756 37.6364C70.0218 38.125 70.1449 38.7292 70.1449 39.4489V45H68.446V39.6534C68.446 39.0208 68.2813 38.5265 67.9517 38.1705C67.6222 37.8106 67.1695 37.6307 66.5938 37.6307C66.1998 37.6307 65.8494 37.7159 65.5426 37.8864C65.2396 38.0568 64.9991 38.3068 64.821 38.6364C64.6468 38.9621 64.5597 39.3561 64.5597 39.8182ZM76.4972 36.2727V37.6364H71.7301V36.2727H76.4972ZM73.0085 34.1818H74.7074V42.4375C74.7074 42.767 74.7566 43.0152 74.8551 43.1818C74.9536 43.3447 75.0805 43.4564 75.2358 43.517C75.3949 43.5739 75.5672 43.6023 75.7528 43.6023C75.8892 43.6023 76.0085 43.5928 76.1108 43.5739C76.2131 43.5549 76.2926 43.5398 76.3494 43.5284L76.6562 44.9318C76.5578 44.9697 76.4176 45.0076 76.2358 45.0455C76.054 45.0871 75.8267 45.1098 75.554 45.1136C75.107 45.1212 74.6903 45.0417 74.304 44.875C73.9176 44.7083 73.6051 44.4508 73.3665 44.1023C73.1278 43.7538 73.0085 43.3163 73.0085 42.7898V34.1818ZM81.9588 45.1761C81.1406 45.1761 80.4266 44.9886 79.8168 44.6136C79.2069 44.2386 78.7334 43.714 78.3963 43.0398C78.0592 42.3655 77.8906 41.5777 77.8906 40.6761C77.8906 39.7708 78.0592 38.9792 78.3963 38.3011C78.7334 37.6231 79.2069 37.0966 79.8168 36.7216C80.4266 36.3466 81.1406 36.1591 81.9588 36.1591C82.777 36.1591 83.491 36.3466 84.1009 36.7216C84.7107 37.0966 85.1842 37.6231 85.5213 38.3011C85.8584 38.9792 86.027 39.7708 86.027 40.6761C86.027 41.5777 85.8584 42.3655 85.5213 43.0398C85.1842 43.714 84.7107 44.2386 84.1009 44.6136C83.491 44.9886 82.777 45.1761 81.9588 45.1761ZM81.9645 43.75C82.4948 43.75 82.9342 43.6098 83.2827 43.3295C83.6312 43.0492 83.8887 42.6761 84.0554 42.2102C84.2259 41.7443 84.3111 41.2311 84.3111 40.6705C84.3111 40.1136 84.2259 39.6023 84.0554 39.1364C83.8887 38.6667 83.6312 38.2898 83.2827 38.0057C82.9342 37.7216 82.4948 37.5795 81.9645 37.5795C81.4304 37.5795 80.9872 37.7216 80.6349 38.0057C80.2865 38.2898 80.027 38.6667 79.8565 39.1364C79.6899 39.6023 79.6065 40.1136 79.6065 40.6705C79.6065 41.2311 79.6899 41.7443 79.8565 42.2102C80.027 42.6761 80.2865 43.0492 80.6349 43.3295C80.9872 43.6098 81.4304 43.75 81.9645 43.75ZM87.9233 45V36.2727H89.5653V37.6591H89.6562C89.8153 37.1894 90.0956 36.8201 90.4972 36.5511C90.9025 36.2784 91.3608 36.142 91.8722 36.142C91.9782 36.142 92.1032 36.1458 92.2472 36.1534C92.3949 36.161 92.5104 36.1705 92.5938 36.1818V37.8068C92.5256 37.7879 92.4044 37.767 92.2301 37.7443C92.0559 37.7178 91.8816 37.7045 91.7074 37.7045C91.3059 37.7045 90.9479 37.7898 90.6335 37.9602C90.3229 38.1269 90.0767 38.3598 89.8949 38.6591C89.7131 38.9545 89.6222 39.2917 89.6222 39.6705V45H87.9233ZM95.4034 48.2727C95.1496 48.2727 94.9186 48.2519 94.7102 48.2102C94.5019 48.1723 94.3466 48.1307 94.2443 48.0852L94.6534 46.6932C94.964 46.7765 95.2405 46.8125 95.483 46.8011C95.7254 46.7898 95.9394 46.6989 96.125 46.5284C96.3144 46.358 96.4811 46.0795 96.625 45.6932L96.8352 45.1136L93.642 36.2727H95.4602L97.6705 43.0455H97.7614L99.9716 36.2727H101.795L98.1989 46.1648C98.0322 46.6193 97.8201 47.0038 97.5625 47.3182C97.3049 47.6364 96.9981 47.875 96.642 48.0341C96.286 48.1932 95.8731 48.2727 95.4034 48.2727ZM117.871 39.1818C117.871 40.4242 117.643 41.4924 117.189 42.3864C116.734 43.2765 116.111 43.9621 115.32 44.4432C114.532 44.9205 113.636 45.1591 112.632 45.1591C111.625 45.1591 110.725 44.9205 109.933 44.4432C109.145 43.9621 108.524 43.2746 108.07 42.3807C107.615 41.4867 107.388 40.4205 107.388 39.1818C107.388 37.9394 107.615 36.8731 108.07 35.983C108.524 35.089 109.145 34.4034 109.933 33.9261C110.725 33.4451 111.625 33.2045 112.632 33.2045C113.636 33.2045 114.532 33.4451 115.32 33.9261C116.111 34.4034 116.734 35.089 117.189 35.983C117.643 36.8731 117.871 37.9394 117.871 39.1818ZM116.132 39.1818C116.132 38.2348 115.979 37.4375 115.672 36.7898C115.369 36.1383 114.952 35.6458 114.422 35.3125C113.895 34.9754 113.299 34.8068 112.632 34.8068C111.962 34.8068 111.363 34.9754 110.837 35.3125C110.31 35.6458 109.893 36.1383 109.587 36.7898C109.284 37.4375 109.132 38.2348 109.132 39.1818C109.132 40.1288 109.284 40.928 109.587 41.5795C109.893 42.2273 110.31 42.7197 110.837 43.0568C111.363 43.3902 111.962 43.5568 112.632 43.5568C113.299 43.5568 113.895 43.3902 114.422 43.0568C114.952 42.7197 115.369 42.2273 115.672 41.5795C115.979 40.928 116.132 40.1288 116.132 39.1818ZM127.389 36.2727L124.224 45H122.406L119.236 36.2727H121.06L123.27 42.9886H123.361L125.565 36.2727H127.389ZM132.45 45.1761C131.59 45.1761 130.85 44.9924 130.229 44.625C129.611 44.2538 129.134 43.733 128.797 43.0625C128.464 42.3883 128.297 41.5985 128.297 40.6932C128.297 39.7992 128.464 39.0114 128.797 38.3295C129.134 37.6477 129.604 37.1155 130.206 36.733C130.812 36.3504 131.52 36.1591 132.331 36.1591C132.823 36.1591 133.301 36.2405 133.763 36.4034C134.225 36.5663 134.64 36.822 135.007 37.1705C135.375 37.5189 135.664 37.9716 135.876 38.5284C136.089 39.0814 136.195 39.7538 136.195 40.5455V41.1477H129.257V39.875H134.53C134.53 39.428 134.439 39.0322 134.257 38.6875C134.075 38.339 133.82 38.0644 133.49 37.8636C133.164 37.6629 132.782 37.5625 132.342 37.5625C131.865 37.5625 131.448 37.6799 131.092 37.9148C130.74 38.1458 130.467 38.4489 130.274 38.8239C130.085 39.1951 129.99 39.5985 129.99 40.0341V41.0284C129.99 41.6117 130.092 42.108 130.297 42.517C130.505 42.9261 130.795 43.2386 131.166 43.4545C131.537 43.6667 131.971 43.7727 132.467 43.7727C132.789 43.7727 133.083 43.7273 133.348 43.6364C133.613 43.5417 133.842 43.4015 134.036 43.2159C134.229 43.0303 134.376 42.8011 134.479 42.5284L136.087 42.8182C135.958 43.2917 135.727 43.7064 135.393 44.0625C135.064 44.4148 134.649 44.6894 134.149 44.8864C133.653 45.0795 133.087 45.1761 132.45 45.1761ZM138.08 45V36.2727H139.722V37.6591H139.812C139.972 37.1894 140.252 36.8201 140.653 36.5511C141.059 36.2784 141.517 36.142 142.028 36.142C142.134 36.142 142.259 36.1458 142.403 36.1534C142.551 36.161 142.667 36.1705 142.75 36.1818V37.8068C142.682 37.7879 142.561 37.767 142.386 37.7443C142.212 37.7178 142.038 37.7045 141.864 37.7045C141.462 37.7045 141.104 37.7898 140.79 37.9602C140.479 38.1269 140.233 38.3598 140.051 38.6591C139.869 38.9545 139.778 39.2917 139.778 39.6705V45H138.08ZM151.952 36.2727L148.787 45H146.969L143.798 36.2727H145.622L147.832 42.9886H147.923L150.128 36.2727H151.952ZM153.548 45V36.2727H155.247V45H153.548ZM154.406 34.9261C154.111 34.9261 153.857 34.8277 153.645 34.6307C153.437 34.4299 153.332 34.1913 153.332 33.9148C153.332 33.6345 153.437 33.3958 153.645 33.1989C153.857 32.9981 154.111 32.8977 154.406 32.8977C154.702 32.8977 154.954 32.9981 155.162 33.1989C155.374 33.3958 155.48 33.6345 155.48 33.9148C155.48 34.1913 155.374 34.4299 155.162 34.6307C154.954 34.8277 154.702 34.9261 154.406 34.9261ZM161.294 45.1761C160.434 45.1761 159.694 44.9924 159.072 44.625C158.455 44.2538 157.978 43.733 157.641 43.0625C157.307 42.3883 157.141 41.5985 157.141 40.6932C157.141 39.7992 157.307 39.0114 157.641 38.3295C157.978 37.6477 158.447 37.1155 159.05 36.733C159.656 36.3504 160.364 36.1591 161.175 36.1591C161.667 36.1591 162.144 36.2405 162.607 36.4034C163.069 36.5663 163.483 36.822 163.851 37.1705C164.218 37.5189 164.508 37.9716 164.72 38.5284C164.932 39.0814 165.038 39.7538 165.038 40.5455V41.1477H158.101V39.875H163.374C163.374 39.428 163.283 39.0322 163.101 38.6875C162.919 38.339 162.663 38.0644 162.334 37.8636C162.008 37.6629 161.625 37.5625 161.186 37.5625C160.709 37.5625 160.292 37.6799 159.936 37.9148C159.584 38.1458 159.311 38.4489 159.118 38.8239C158.929 39.1951 158.834 39.5985 158.834 40.0341V41.0284C158.834 41.6117 158.936 42.108 159.141 42.517C159.349 42.9261 159.639 43.2386 160.01 43.4545C160.381 43.6667 160.815 43.7727 161.311 43.7727C161.633 43.7727 161.927 43.7273 162.192 43.6364C162.457 43.5417 162.686 43.4015 162.879 43.2159C163.072 43.0303 163.22 42.8011 163.322 42.5284L164.93 42.8182C164.802 43.2917 164.571 43.7064 164.237 44.0625C163.908 44.4148 163.493 44.6894 162.993 44.8864C162.497 45.0795 161.93 45.1761 161.294 45.1761ZM168.8 45L166.232 36.2727H167.987L169.697 42.6818H169.783L171.499 36.2727H173.254L174.959 42.6534H175.044L176.743 36.2727H178.499L175.936 45H174.203L172.43 38.6989H172.3L170.527 45H168.8Z" fill="black"/>
<path d="M148.483 82.5085V81.7273H153.938V82.5085H151.651V89H150.77V82.5085H148.483ZM156.608 89.1136C156.116 89.1136 155.683 88.9964 155.312 88.7621C154.942 88.5277 154.654 88.1998 154.445 87.7784C154.239 87.357 154.136 86.8646 154.136 86.3011C154.136 85.733 154.239 85.237 154.445 84.8132C154.654 84.3894 154.942 84.0604 155.312 83.826C155.683 83.5916 156.116 83.4744 156.608 83.4744C157.1 83.4744 157.531 83.5916 157.901 83.826C158.272 84.0604 158.561 84.3894 158.767 84.8132C158.975 85.237 159.08 85.733 159.08 86.3011C159.08 86.8646 158.975 87.357 158.767 87.7784C158.561 88.1998 158.272 88.5277 157.901 88.7621C157.531 88.9964 157.1 89.1136 156.608 89.1136ZM156.608 88.3608C156.982 88.3608 157.29 88.2649 157.531 88.0732C157.773 87.8814 157.951 87.6293 158.067 87.3168C158.183 87.0043 158.241 86.6657 158.241 86.3011C158.241 85.9366 158.183 85.5968 158.067 85.282C157.951 84.9671 157.773 84.7126 157.531 84.5185C157.29 84.3243 156.982 84.2273 156.608 84.2273C156.234 84.2273 155.926 84.3243 155.685 84.5185C155.443 84.7126 155.264 84.9671 155.148 85.282C155.032 85.5968 154.974 85.9366 154.974 86.3011C154.974 86.6657 155.032 87.0043 155.148 87.3168C155.264 87.6293 155.443 87.8814 155.685 88.0732C155.926 88.2649 156.234 88.3608 156.608 88.3608ZM162.731 83.5455V84.2557H159.904V83.5455H162.731ZM160.728 82.2386H161.566V87.4375C161.566 87.6742 161.601 87.8518 161.669 87.9702C161.74 88.0862 161.83 88.1643 161.939 88.2045C162.05 88.2424 162.168 88.2614 162.291 88.2614C162.383 88.2614 162.459 88.2566 162.518 88.2472C162.577 88.2353 162.624 88.2259 162.66 88.2188L162.83 88.9716C162.774 88.9929 162.694 89.0142 162.593 89.0355C162.491 89.0592 162.362 89.071 162.205 89.071C161.969 89.071 161.737 89.0201 161.509 88.9183C161.285 88.8165 161.097 88.6615 160.948 88.4531C160.802 88.2448 160.728 87.982 160.728 87.6648V82.2386ZM165.597 89.1278C165.251 89.1278 164.937 89.0627 164.656 88.9325C164.374 88.8 164.15 88.6094 163.985 88.3608C163.819 88.1098 163.736 87.8068 163.736 87.4517C163.736 87.1392 163.798 86.8859 163.921 86.6918C164.044 86.4953 164.208 86.3414 164.414 86.2301C164.62 86.1188 164.847 86.036 165.096 85.9815C165.347 85.9247 165.599 85.8797 165.852 85.8466C166.184 85.804 166.453 85.772 166.659 85.7507C166.867 85.727 167.018 85.688 167.113 85.6335C167.21 85.5791 167.259 85.4844 167.259 85.3494V85.321C167.259 84.9706 167.163 84.6984 166.971 84.5043C166.782 84.3101 166.494 84.2131 166.108 84.2131C165.708 84.2131 165.394 84.3007 165.167 84.4759C164.94 84.651 164.78 84.8381 164.688 85.0369L163.892 84.7528C164.034 84.4214 164.224 84.1634 164.46 83.9787C164.7 83.7917 164.96 83.6615 165.242 83.5881C165.526 83.5123 165.805 83.4744 166.08 83.4744C166.255 83.4744 166.456 83.4957 166.683 83.5384C166.913 83.5786 167.134 83.6626 167.347 83.7905C167.563 83.9183 167.742 84.1113 167.884 84.3693C168.026 84.6274 168.097 84.973 168.097 85.4062V89H167.259V88.2614H167.216C167.159 88.3797 167.065 88.5064 166.932 88.6413C166.799 88.7763 166.623 88.8911 166.403 88.9858C166.183 89.0805 165.914 89.1278 165.597 89.1278ZM165.725 88.375C166.056 88.375 166.335 88.3099 166.563 88.1797C166.792 88.0495 166.965 87.8814 167.081 87.6754C167.2 87.4695 167.259 87.2528 167.259 87.0256V86.2585C167.223 86.3011 167.145 86.3402 167.024 86.3757C166.906 86.4089 166.769 86.4384 166.612 86.4645C166.459 86.4882 166.308 86.5095 166.161 86.5284C166.017 86.545 165.9 86.5592 165.81 86.571C165.592 86.5994 165.388 86.6456 165.199 86.7095C165.012 86.7711 164.86 86.8646 164.744 86.9901C164.631 87.1132 164.574 87.2812 164.574 87.4943C164.574 87.7855 164.682 88.0057 164.897 88.1548C165.115 88.3016 165.391 88.375 165.725 88.375ZM170.464 81.7273V89H169.626V81.7273H170.464ZM174.926 89V81.7273H177.383C177.954 81.7273 178.42 81.8303 178.782 82.0362C179.147 82.2398 179.417 82.5156 179.592 82.8636C179.767 83.2116 179.855 83.5999 179.855 84.0284C179.855 84.4569 179.767 84.8464 179.592 85.1967C179.419 85.5471 179.151 85.8265 178.789 86.0348C178.427 86.2408 177.963 86.3438 177.397 86.3438H175.636V85.5625H177.369C177.759 85.5625 178.073 85.495 178.31 85.3601C178.547 85.2251 178.718 85.0429 178.825 84.8132C178.934 84.5812 178.988 84.3196 178.988 84.0284C178.988 83.7372 178.934 83.4768 178.825 83.2472C178.718 83.0175 178.545 82.8376 178.306 82.7074C178.067 82.5748 177.75 82.5085 177.355 82.5085H175.806V89H174.926ZM181.16 89V83.5455H181.969V84.3693H182.026C182.126 84.0994 182.305 83.8804 182.566 83.7124C182.826 83.5443 183.12 83.4602 183.447 83.4602C183.508 83.4602 183.585 83.4614 183.677 83.4638C183.77 83.4661 183.84 83.4697 183.887 83.4744V84.3267C183.858 84.3196 183.793 84.3089 183.692 84.2947C183.592 84.2782 183.487 84.2699 183.376 84.2699C183.11 84.2699 182.874 84.3255 182.665 84.4368C182.459 84.5457 182.296 84.6972 182.175 84.8913C182.057 85.0831 181.998 85.3021 181.998 85.5483V89H181.16ZM186.93 89.1136C186.438 89.1136 186.006 88.9964 185.634 88.7621C185.265 88.5277 184.976 88.1998 184.768 87.7784C184.562 87.357 184.459 86.8646 184.459 86.3011C184.459 85.733 184.562 85.237 184.768 84.8132C184.976 84.3894 185.265 84.0604 185.634 83.826C186.006 83.5916 186.438 83.4744 186.93 83.4744C187.423 83.4744 187.854 83.5916 188.223 83.826C188.595 84.0604 188.883 84.3894 189.089 84.8132C189.298 85.237 189.402 85.733 189.402 86.3011C189.402 86.8646 189.298 87.357 189.089 87.7784C188.883 88.1998 188.595 88.5277 188.223 88.7621C187.854 88.9964 187.423 89.1136 186.93 89.1136ZM186.93 88.3608C187.304 88.3608 187.612 88.2649 187.854 88.0732C188.095 87.8814 188.274 87.6293 188.39 87.3168C188.506 87.0043 188.564 86.6657 188.564 86.3011C188.564 85.9366 188.506 85.5968 188.39 85.282C188.274 84.9671 188.095 84.7126 187.854 84.5185C187.612 84.3243 187.304 84.2273 186.93 84.2273C186.556 84.2273 186.248 84.3243 186.007 84.5185C185.765 84.7126 185.587 84.9671 185.471 85.282C185.355 85.5968 185.297 85.9366 185.297 86.3011C185.297 86.6657 185.355 87.0043 185.471 87.3168C185.587 87.6293 185.765 87.8814 186.007 88.0732C186.248 88.2649 186.556 88.3608 186.93 88.3608ZM193.11 83.5455V84.2557H190.17V83.5455H193.11ZM191.05 89V82.7926C191.05 82.4801 191.124 82.2197 191.271 82.0114C191.417 81.803 191.608 81.6468 191.842 81.5426C192.077 81.4384 192.324 81.3864 192.585 81.3864C192.79 81.3864 192.959 81.4029 193.089 81.4361C193.219 81.4692 193.316 81.5 193.38 81.5284L193.138 82.2528C193.096 82.2386 193.037 82.2209 192.961 82.1996C192.888 82.1783 192.79 82.1676 192.67 82.1676C192.393 82.1676 192.193 82.2375 192.07 82.3771C191.949 82.5168 191.888 82.7216 191.888 82.9915V89H191.05ZM194.285 89V83.5455H195.123V89H194.285ZM194.711 82.6364C194.547 82.6364 194.407 82.5807 194.288 82.4695C194.172 82.3582 194.114 82.2244 194.114 82.0682C194.114 81.9119 194.172 81.7782 194.288 81.6669C194.407 81.5556 194.547 81.5 194.711 81.5C194.874 81.5 195.014 81.5556 195.13 81.6669C195.248 81.7782 195.307 81.9119 195.307 82.0682C195.307 82.2244 195.248 82.3582 195.13 82.4695C195.014 82.5807 194.874 82.6364 194.711 82.6364ZM199.03 83.5455V84.2557H196.203V83.5455H199.03ZM197.027 82.2386H197.865V87.4375C197.865 87.6742 197.899 87.8518 197.968 87.9702C198.039 88.0862 198.129 88.1643 198.238 88.2045C198.349 88.2424 198.466 88.2614 198.589 88.2614C198.682 88.2614 198.758 88.2566 198.817 88.2472C198.876 88.2353 198.923 88.2259 198.959 88.2188L199.129 88.9716C199.072 88.9929 198.993 89.0142 198.891 89.0355C198.79 89.0592 198.661 89.071 198.504 89.071C198.268 89.071 198.036 89.0201 197.808 88.9183C197.583 88.8165 197.396 88.6615 197.247 88.4531C197.1 88.2448 197.027 87.982 197.027 87.6648V82.2386Z" fill="#9F9F9F"/>
<path d="M501.483 37.5085V36.7273H506.938V37.5085H504.651V44H503.77V37.5085H501.483ZM509.021 40.7188V44H508.183V36.7273H509.021V39.3977H509.092C509.22 39.116 509.412 38.8923 509.667 38.7266C509.925 38.5585 510.269 38.4744 510.697 38.4744C511.069 38.4744 511.394 38.549 511.674 38.6982C511.953 38.8449 512.17 39.071 512.324 39.3764C512.48 39.6795 512.558 40.0653 512.558 40.5341V44H511.72V40.5909C511.72 40.1577 511.608 39.8227 511.383 39.5859C511.16 39.3468 510.851 39.2273 510.456 39.2273C510.181 39.2273 509.935 39.2853 509.717 39.4013C509.502 39.5173 509.331 39.6866 509.206 39.9091C509.083 40.1316 509.021 40.4015 509.021 40.7188ZM514.091 44V38.5455H514.929V44H514.091ZM514.517 37.6364C514.354 37.6364 514.213 37.5807 514.095 37.4695C513.979 37.3582 513.921 37.2244 513.921 37.0682C513.921 36.9119 513.979 36.7782 514.095 36.6669C514.213 36.5556 514.354 36.5 514.517 36.5C514.681 36.5 514.82 36.5556 514.936 36.6669C515.055 36.7782 515.114 36.9119 515.114 37.0682C515.114 37.2244 515.055 37.3582 514.936 37.4695C514.82 37.5807 514.681 37.6364 514.517 37.6364ZM520.328 39.767L519.575 39.9801C519.528 39.8546 519.458 39.7327 519.366 39.6143C519.276 39.4936 519.153 39.3942 518.996 39.3161C518.84 39.2379 518.64 39.1989 518.396 39.1989C518.062 39.1989 517.784 39.2758 517.562 39.4297C517.341 39.5812 517.231 39.7741 517.231 40.0085C517.231 40.2169 517.307 40.3814 517.459 40.5021C517.61 40.6229 517.847 40.7235 518.169 40.804L518.979 41.0028C519.466 41.1212 519.83 41.3023 520.069 41.5462C520.308 41.7876 520.427 42.099 520.427 42.4801C520.427 42.7926 520.337 43.072 520.157 43.3182C519.98 43.5644 519.731 43.7585 519.412 43.9006C519.092 44.0426 518.72 44.1136 518.297 44.1136C517.74 44.1136 517.28 43.9929 516.915 43.7514C516.551 43.5099 516.32 43.1572 516.223 42.6932L517.018 42.4943C517.094 42.7879 517.237 43.008 517.448 43.1548C517.661 43.3016 517.939 43.375 518.282 43.375C518.673 43.375 518.983 43.2921 519.213 43.1264C519.445 42.9583 519.561 42.7571 519.561 42.5227C519.561 42.3333 519.495 42.1747 519.362 42.0469C519.229 41.9167 519.026 41.8196 518.751 41.7557L517.842 41.5426C517.343 41.4242 516.976 41.2408 516.741 40.9922C516.509 40.7412 516.393 40.4276 516.393 40.0511C516.393 39.7434 516.48 39.4711 516.653 39.2344C516.828 38.9976 517.066 38.8118 517.366 38.6768C517.669 38.5419 518.013 38.4744 518.396 38.4744C518.936 38.4744 519.36 38.5928 519.667 38.8295C519.978 39.0663 520.198 39.3788 520.328 39.767ZM525.936 44L523.947 36.7273H524.842L526.362 42.6506H526.433L527.982 36.7273H528.976L530.524 42.6506H530.595L532.115 36.7273H533.01L531.021 44H530.112L528.507 38.2045H528.45L526.845 44H525.936ZM535.773 44.1136C535.247 44.1136 534.794 43.9976 534.413 43.7656C534.034 43.5312 533.741 43.2045 533.536 42.7855C533.332 42.3641 533.23 41.8741 533.23 41.3153C533.23 40.7566 533.332 40.2642 533.536 39.8381C533.741 39.4096 534.028 39.0758 534.395 38.8366C534.764 38.5952 535.195 38.4744 535.688 38.4744C535.972 38.4744 536.252 38.5218 536.529 38.6165C536.806 38.7112 537.058 38.8651 537.286 39.0781C537.513 39.2888 537.694 39.5682 537.829 39.9162C537.964 40.2642 538.031 40.6927 538.031 41.2017V41.5568H533.827V40.8324H537.179C537.179 40.5246 537.117 40.25 536.994 40.0085C536.874 39.767 536.701 39.5765 536.476 39.4368C536.253 39.2971 535.991 39.2273 535.688 39.2273C535.354 39.2273 535.065 39.3101 534.821 39.4759C534.58 39.6392 534.394 39.8523 534.263 40.1151C534.133 40.3778 534.068 40.6596 534.068 40.9602V41.4432C534.068 41.8551 534.139 42.2043 534.281 42.4908C534.426 42.7749 534.626 42.9915 534.881 43.1406C535.137 43.2874 535.434 43.3608 535.773 43.3608C535.993 43.3608 536.192 43.33 536.369 43.2685C536.549 43.2045 536.704 43.1098 536.835 42.9844C536.965 42.8565 537.065 42.6979 537.136 42.5085L537.946 42.7358C537.861 43.0104 537.718 43.2519 537.516 43.4602C537.315 43.6662 537.067 43.8272 536.771 43.9432C536.475 44.0568 536.142 44.1136 535.773 44.1136ZM541.593 44.1136C541.067 44.1136 540.614 43.9976 540.233 43.7656C539.854 43.5312 539.562 43.2045 539.356 42.7855C539.152 42.3641 539.05 41.8741 539.05 41.3153C539.05 40.7566 539.152 40.2642 539.356 39.8381C539.562 39.4096 539.848 39.0758 540.215 38.8366C540.585 38.5952 541.015 38.4744 541.508 38.4744C541.792 38.4744 542.072 38.5218 542.349 38.6165C542.626 38.7112 542.879 38.8651 543.106 39.0781C543.333 39.2888 543.514 39.5682 543.649 39.9162C543.784 40.2642 543.852 40.6927 543.852 41.2017V41.5568H539.647V40.8324H542.999C542.999 40.5246 542.938 40.25 542.815 40.0085C542.694 39.767 542.521 39.5765 542.296 39.4368C542.074 39.2971 541.811 39.2273 541.508 39.2273C541.174 39.2273 540.885 39.3101 540.641 39.4759C540.4 39.6392 540.214 39.8523 540.084 40.1151C539.954 40.3778 539.888 40.6596 539.888 40.9602V41.4432C539.888 41.8551 539.96 42.2043 540.102 42.4908C540.246 42.7749 540.446 42.9915 540.702 43.1406C540.957 43.2874 541.254 43.3608 541.593 43.3608C541.813 43.3608 542.012 43.33 542.19 43.2685C542.37 43.2045 542.525 43.1098 542.655 42.9844C542.785 42.8565 542.886 42.6979 542.957 42.5085L543.766 42.7358C543.681 43.0104 543.538 43.2519 543.337 43.4602C543.135 43.6662 542.887 43.8272 542.591 43.9432C542.295 44.0568 541.962 44.1136 541.593 44.1136ZM545.908 42.0114L545.893 40.9744H546.064L548.45 38.5455H549.487L546.945 41.1165H546.874L545.908 42.0114ZM545.126 44V36.7273H545.964V44H545.126ZM548.592 44L546.462 41.3011L547.058 40.7188L549.658 44H548.592Z" fill="#9F9F9F"/>
<path d="M41.8438 78.9688L41.2734 81.1406H30.7969L31.3594 78.9688H41.8438ZM36.3984 91L31.0547 84.6406L31.0625 82.6875H33.7031C34.2917 82.6875 34.7839 82.5781 35.1797 82.3594C35.5755 82.1406 35.8724 81.8437 36.0703 81.4687C36.2682 81.0937 36.3698 80.6667 36.375 80.1875C36.3698 79.4687 36.1589 78.8828 35.7422 78.4297C35.3307 77.9714 34.651 77.7422 33.7031 77.7422H30.7969L31.4375 75H33.7031C35.0313 75 36.138 75.2005 37.0234 75.6016C37.9141 75.9974 38.5807 76.5625 39.0234 77.2969C39.4714 78.0312 39.6979 78.9062 39.7031 79.9219C39.6979 80.8229 39.5469 81.6094 39.25 82.2812C38.9583 82.9531 38.4974 83.513 37.8672 83.9609C37.2422 84.4089 36.4271 84.7422 35.4219 84.9609L35.2969 85.0078L40.0781 90.8594V91H36.3984ZM41.8594 75L41.2734 77.2031H32.6484L33.2344 75H41.8594ZM50.8906 75V91H47.5078V78.2109H47.4141L43.75 80.5078V77.5078L47.7109 75H50.8906ZM57.4824 88.8125L57.3965 89.6719C57.3288 90.3594 57.1986 91.0443 57.0059 91.7266C56.8184 92.4141 56.6204 93.0365 56.4121 93.5938C56.209 94.151 56.0449 94.5885 55.9199 94.9063H53.7637C53.8418 94.599 53.9486 94.1693 54.084 93.6172C54.2194 93.0703 54.347 92.4557 54.4668 91.7734C54.5866 91.0911 54.6621 90.3958 54.6934 89.6875L54.7324 88.8125H57.4824ZM60.4941 91V88.5625L66.1895 83.2891C66.6738 82.8203 67.0801 82.3984 67.4082 82.0234C67.7415 81.6484 67.9941 81.2812 68.166 80.9219C68.3379 80.5573 68.4238 80.1641 68.4238 79.7422C68.4238 79.2734 68.3171 78.8698 68.1035 78.5312C67.89 78.1875 67.5983 77.9245 67.2285 77.7422C66.8587 77.5547 66.4395 77.4609 65.9707 77.4609C65.4811 77.4609 65.054 77.5599 64.6895 77.7578C64.3249 77.9557 64.0436 78.2396 63.8457 78.6094C63.6478 78.9792 63.5488 79.4193 63.5488 79.9297H60.3379C60.3379 78.8828 60.5749 77.974 61.0488 77.2031C61.5228 76.4323 62.1868 75.8359 63.041 75.4141C63.8952 74.9922 64.8796 74.7812 65.9941 74.7812C67.14 74.7812 68.1374 74.9844 68.9863 75.3906C69.8405 75.7917 70.5046 76.349 70.9785 77.0625C71.4525 77.776 71.6895 78.5937 71.6895 79.5156C71.6895 80.1198 71.5697 80.7161 71.3301 81.3047C71.0957 81.8932 70.6764 82.5469 70.0723 83.2656C69.4681 83.9792 68.6165 84.8359 67.5176 85.8359L65.1816 88.125V88.2344H71.9004V91H60.4941ZM73.7656 88.1875V85.5234L80.4453 75H82.7422V78.6875H81.3828L77.1719 85.3516V85.4766H86.6641V88.1875H73.7656ZM81.4453 91V87.375L81.5078 86.1953V75H84.6797V91H81.4453ZM92.2656 88.8125L92.1797 89.6719C92.112 90.3594 91.9818 91.0443 91.7891 91.7266C91.6016 92.4141 91.4036 93.0365 91.1953 93.5938C90.9922 94.151 90.8281 94.5885 90.7031 94.9063H88.5469C88.625 94.599 88.7318 94.1693 88.8672 93.6172C89.0026 93.0703 89.1302 92.4557 89.25 91.7734C89.3698 91.0911 89.4453 90.3958 89.4766 89.6875L89.5156 88.8125H92.2656ZM95.3086 91L101.941 77.875V77.7656H94.2148V75H105.441V77.8047L98.8008 91H95.3086ZM113.389 91.2187C112.285 91.2187 111.3 91.0156 110.436 90.6094C109.576 90.2031 108.894 89.6432 108.389 88.9297C107.883 88.2161 107.62 87.3984 107.6 86.4766H110.881C110.917 87.0964 111.178 87.599 111.662 87.9844C112.146 88.3698 112.722 88.5625 113.389 88.5625C113.92 88.5625 114.389 88.4453 114.795 88.2109C115.206 87.9714 115.527 87.6406 115.756 87.2188C115.99 86.7917 116.107 86.3021 116.107 85.75C116.107 85.1875 115.988 84.6927 115.748 84.2656C115.514 83.8385 115.188 83.5052 114.771 83.2656C114.355 83.026 113.878 82.9036 113.342 82.8984C112.873 82.8984 112.417 82.9948 111.975 83.1875C111.537 83.3802 111.196 83.6432 110.951 83.9766L107.943 83.4375L108.701 75H118.482V77.7656H111.49L111.076 81.7734H111.17C111.451 81.3776 111.876 81.0495 112.443 80.7891C113.011 80.5286 113.646 80.3984 114.35 80.3984C115.313 80.3984 116.173 80.625 116.928 81.0781C117.683 81.5312 118.279 82.1536 118.717 82.9453C119.154 83.7318 119.37 84.638 119.365 85.6641C119.37 86.7422 119.12 87.7005 118.615 88.5391C118.115 89.3724 117.415 90.0286 116.514 90.5078C115.618 90.9818 114.576 91.2187 113.389 91.2187ZM127.514 74.7812C128.337 74.7812 129.128 74.9193 129.889 75.1953C130.654 75.4714 131.337 75.9115 131.936 76.5156C132.54 77.1198 133.016 77.9219 133.365 78.9219C133.719 79.9167 133.899 81.138 133.904 82.5859C133.904 83.9453 133.751 85.1589 133.443 86.2266C133.141 87.2891 132.706 88.1927 132.139 88.9375C131.571 89.6823 130.886 90.25 130.084 90.6406C129.282 91.026 128.386 91.2187 127.396 91.2187C126.329 91.2187 125.386 91.013 124.568 90.6016C123.751 90.1849 123.092 89.6198 122.592 88.9062C122.097 88.1875 121.798 87.3802 121.693 86.4844H125.029C125.16 87.0677 125.433 87.5208 125.85 87.8438C126.266 88.1615 126.782 88.3203 127.396 88.3203C128.438 88.3203 129.23 87.8672 129.771 86.9609C130.313 86.0495 130.587 84.8021 130.592 83.2187H130.482C130.243 83.6875 129.92 84.0911 129.514 84.4297C129.107 84.763 128.641 85.0208 128.115 85.2031C127.594 85.3854 127.04 85.4766 126.451 85.4766C125.508 85.4766 124.667 85.2552 123.928 84.8125C123.188 84.3698 122.605 83.7604 122.178 82.9844C121.751 82.2083 121.537 81.3229 121.537 80.3281C121.532 79.2552 121.779 78.2995 122.279 77.4609C122.779 76.6224 123.477 75.9661 124.373 75.4922C125.274 75.013 126.321 74.776 127.514 74.7812ZM127.537 77.4375C127.011 77.4375 126.542 77.5625 126.131 77.8125C125.725 78.0625 125.402 78.3984 125.162 78.8203C124.928 79.2422 124.813 79.7135 124.818 80.2344C124.818 80.7604 124.933 81.2344 125.162 81.6562C125.396 82.0729 125.714 82.4062 126.115 82.6562C126.521 82.901 126.985 83.0234 127.506 83.0234C127.896 83.0234 128.258 82.9505 128.592 82.8047C128.925 82.6589 129.214 82.4583 129.459 82.2031C129.709 81.9427 129.904 81.6432 130.045 81.3047C130.186 80.9661 130.256 80.6068 130.256 80.2266C130.251 79.7214 130.131 79.2578 129.896 78.8359C129.662 78.4141 129.339 78.0755 128.928 77.8203C128.516 77.5651 128.053 77.4375 127.537 77.4375Z" fill="black"/>
<path d="M34.3835 307.531L34.1243 308.518H29.3622L29.6179 307.531H34.3835ZM31.9084 313L29.4794 310.109L29.483 309.222H30.6832C30.9508 309.222 31.1745 309.172 31.3544 309.072C31.5343 308.973 31.6693 308.838 31.7592 308.668C31.8492 308.497 31.8954 308.303 31.8977 308.085C31.8954 307.759 31.7995 307.492 31.6101 307.286C31.4231 307.078 31.1141 306.974 30.6832 306.974H29.3622L29.6534 305.727H30.6832C31.2869 305.727 31.79 305.818 32.1925 306.001C32.5973 306.181 32.9003 306.437 33.1016 306.771C33.3052 307.105 33.4081 307.503 33.4105 307.964C33.4081 308.374 33.3395 308.732 33.2045 309.037C33.072 309.342 32.8625 309.597 32.576 309.8C32.2919 310.004 31.9214 310.156 31.4645 310.255L31.4077 310.276L33.581 312.936V313H31.9084ZM34.3906 305.727L34.1243 306.729H30.2038L30.4702 305.727H34.3906ZM38.1832 313.16C37.5724 313.157 37.0469 313.007 36.6065 312.709C36.1686 312.411 35.8312 311.978 35.5945 311.413C35.3601 310.847 35.2441 310.166 35.2464 309.371C35.2464 308.578 35.3636 307.902 35.598 307.343C35.8348 306.784 36.1721 306.359 36.6101 306.068C37.0504 305.775 37.5748 305.628 38.1832 305.628C38.7917 305.628 39.3149 305.775 39.7528 306.068C40.1932 306.362 40.5317 306.788 40.7685 307.347C41.0052 307.903 41.1224 308.578 41.12 309.371C41.12 310.169 41.0017 310.85 40.7649 311.416C40.5305 311.982 40.1944 312.414 39.7564 312.712C39.3184 313.011 38.794 313.16 38.1832 313.16ZM38.1832 311.885C38.5999 311.885 38.9325 311.675 39.1811 311.256C39.4297 310.837 39.5528 310.209 39.5504 309.371C39.5504 308.819 39.4936 308.36 39.38 307.993C39.2687 307.626 39.1101 307.35 38.9041 307.165C38.7005 306.981 38.4602 306.888 38.1832 306.888C37.7689 306.888 37.4375 307.096 37.1889 307.51C36.9403 307.924 36.8149 308.545 36.8125 309.371C36.8125 309.929 36.8681 310.396 36.9794 310.77C37.093 311.142 37.2528 311.421 37.4588 311.608C37.6648 311.793 37.9062 311.885 38.1832 311.885Z" fill="#9F9F9F"/>
<path d="M34.3835 268.531L34.1243 269.518H29.3622L29.6179 268.531H34.3835ZM31.9084 274L29.4794 271.109L29.483 270.222H30.6832C30.9508 270.222 31.1745 270.172 31.3544 270.072C31.5343 269.973 31.6693 269.838 31.7592 269.668C31.8492 269.497 31.8954 269.303 31.8977 269.085C31.8954 268.759 31.7995 268.492 31.6101 268.286C31.4231 268.078 31.1141 267.974 30.6832 267.974H29.3622L29.6534 266.727H30.6832C31.2869 266.727 31.79 266.818 32.1925 267.001C32.5973 267.181 32.9003 267.437 33.1016 267.771C33.3052 268.105 33.4081 268.503 33.4105 268.964C33.4081 269.374 33.3395 269.732 33.2045 270.037C33.072 270.342 32.8625 270.597 32.576 270.8C32.2919 271.004 31.9214 271.156 31.4645 271.255L31.4077 271.276L33.581 273.936V274H31.9084ZM34.3906 266.727L34.1243 267.729H30.2038L30.4702 266.727H34.3906ZM37.9879 274.099C37.486 274.099 37.0386 274.007 36.6456 273.822C36.255 273.638 35.9448 273.383 35.7152 273.059C35.4856 272.735 35.366 272.363 35.3565 271.944H36.848C36.8646 272.226 36.983 272.454 37.2031 272.629C37.4233 272.804 37.6849 272.892 37.9879 272.892C38.2294 272.892 38.4425 272.839 38.6271 272.732C38.8142 272.623 38.9598 272.473 39.0639 272.281C39.1705 272.087 39.2237 271.865 39.2237 271.614C39.2237 271.358 39.1693 271.133 39.0604 270.939C38.9538 270.745 38.8059 270.593 38.6165 270.484C38.4271 270.375 38.2105 270.32 37.9666 270.317C37.7536 270.317 37.5464 270.361 37.3452 270.449C37.1463 270.536 36.9912 270.656 36.88 270.808L35.5128 270.562L35.8572 266.727H40.3033V267.984H37.125L36.9368 269.806H36.9794C37.1072 269.626 37.3002 269.477 37.5582 269.359C37.8163 269.24 38.1051 269.181 38.4247 269.181C38.8627 269.181 39.2533 269.284 39.5966 269.49C39.9399 269.696 40.2109 269.979 40.4098 270.339C40.6087 270.696 40.7069 271.108 40.7045 271.575C40.7069 272.065 40.5933 272.5 40.3636 272.881C40.1364 273.26 39.8179 273.558 39.4084 273.776C39.0012 273.992 38.5277 274.099 37.9879 274.099ZM43.201 273.006L43.1619 273.396C43.1312 273.709 43.072 274.02 42.9844 274.33C42.8991 274.643 42.8092 274.926 42.7145 275.179C42.6222 275.432 42.5476 275.631 42.4908 275.776H41.5107C41.5462 275.636 41.5947 275.441 41.6562 275.19C41.7178 274.941 41.7758 274.662 41.8303 274.352C41.8847 274.041 41.919 273.725 41.9332 273.403L41.951 273.006H43.201ZM47.1286 274.16C46.5178 274.157 45.9922 274.007 45.5518 273.709C45.1139 273.411 44.7765 272.978 44.5398 272.413C44.3054 271.847 44.1894 271.166 44.1918 270.371C44.1918 269.578 44.3089 268.902 44.5433 268.343C44.7801 267.784 45.1174 267.359 45.5554 267.068C45.9957 266.775 46.5201 266.628 47.1286 266.628C47.737 266.628 48.2602 266.775 48.6982 267.068C49.1385 267.362 49.477 267.788 49.7138 268.347C49.9505 268.903 50.0677 269.578 50.0653 270.371C50.0653 271.169 49.947 271.85 49.7102 272.416C49.4759 272.982 49.1397 273.414 48.7017 273.712C48.2637 274.011 47.7393 274.16 47.1286 274.16ZM47.1286 272.885C47.5452 272.885 47.8778 272.675 48.1264 272.256C48.375 271.837 48.4981 271.209 48.4957 270.371C48.4957 269.819 48.4389 269.36 48.3253 268.993C48.214 268.626 48.0554 268.35 47.8494 268.165C47.6458 267.981 47.4055 267.888 47.1286 267.888C46.7143 267.888 46.3828 268.096 46.1342 268.51C45.8857 268.924 45.7602 269.545 45.7578 270.371C45.7578 270.929 45.8134 271.396 45.9247 271.77C46.0384 272.142 46.1982 272.421 46.4041 272.608C46.6101 272.793 46.8516 272.885 47.1286 272.885ZM54.0133 274.16C53.4025 274.157 52.877 274.007 52.4366 273.709C51.9986 273.411 51.6613 272.978 51.4245 272.413C51.1902 271.847 51.0742 271.166 51.0765 270.371C51.0765 269.578 51.1937 268.902 51.4281 268.343C51.6648 267.784 52.0022 267.359 52.4402 267.068C52.8805 266.775 53.4049 266.628 54.0133 266.628C54.6217 266.628 55.1449 266.775 55.5829 267.068C56.0233 267.362 56.3618 267.788 56.5985 268.347C56.8353 268.903 56.9525 269.578 56.9501 270.371C56.9501 271.169 56.8317 271.85 56.595 272.416C56.3606 272.982 56.0244 273.414 55.5865 273.712C55.1485 274.011 54.6241 274.16 54.0133 274.16ZM54.0133 272.885C54.43 272.885 54.7626 272.675 55.0112 272.256C55.2598 271.837 55.3829 271.209 55.3805 270.371C55.3805 269.819 55.3237 269.36 55.21 268.993C55.0988 268.626 54.9402 268.35 54.7342 268.165C54.5306 267.981 54.2903 267.888 54.0133 267.888C53.599 267.888 53.2676 268.096 53.019 268.51C52.7704 268.924 52.6449 269.545 52.6426 270.371C52.6426 270.929 52.6982 271.396 52.8095 271.77C52.9231 272.142 53.0829 272.421 53.2889 272.608C53.4949 272.793 53.7363 272.885 54.0133 272.885ZM60.8981 274.16C60.2873 274.157 59.7617 274.007 59.3214 273.709C58.8834 273.411 58.546 272.978 58.3093 272.413C58.0749 271.847 57.9589 271.166 57.9613 270.371C57.9613 269.578 58.0785 268.902 58.3129 268.343C58.5496 267.784 58.887 267.359 59.3249 267.068C59.7653 266.775 60.2897 266.628 60.8981 266.628C61.5065 266.628 62.0297 266.775 62.4677 267.068C62.908 267.362 63.2466 267.788 63.4833 268.347C63.7201 268.903 63.8372 269.578 63.8349 270.371C63.8349 271.169 63.7165 271.85 63.4798 272.416C63.2454 272.982 62.9092 273.414 62.4712 273.712C62.0333 274.011 61.5089 274.16 60.8981 274.16ZM60.8981 272.885C61.3147 272.885 61.6474 272.675 61.896 272.256C62.1445 271.837 62.2676 271.209 62.2653 270.371C62.2653 269.819 62.2085 269.36 62.0948 268.993C61.9835 268.626 61.8249 268.35 61.619 268.165C61.4154 267.981 61.1751 267.888 60.8981 267.888C60.4838 267.888 60.1523 268.096 59.9038 268.51C59.6552 268.924 59.5297 269.545 59.5273 270.371C59.5273 270.929 59.583 271.396 59.6942 271.77C59.8079 272.142 59.9677 272.421 60.1737 272.608C60.3796 272.793 60.6211 272.885 60.8981 272.885Z" fill="#9F9F9F"/>
<path d="M34.3835 228.531L34.1243 229.518H29.3622L29.6179 228.531H34.3835ZM31.9084 234L29.4794 231.109L29.483 230.222H30.6832C30.9508 230.222 31.1745 230.172 31.3544 230.072C31.5343 229.973 31.6693 229.838 31.7592 229.668C31.8492 229.497 31.8954 229.303 31.8977 229.085C31.8954 228.759 31.7995 228.492 31.6101 228.286C31.4231 228.078 31.1141 227.974 30.6832 227.974H29.3622L29.6534 226.727H30.6832C31.2869 226.727 31.79 226.818 32.1925 227.001C32.5973 227.181 32.9003 227.437 33.1016 227.771C33.3052 228.105 33.4081 228.503 33.4105 228.964C33.4081 229.374 33.3395 229.732 33.2045 230.037C33.072 230.342 32.8625 230.597 32.576 230.8C32.2919 231.004 31.9214 231.156 31.4645 231.255L31.4077 231.276L33.581 233.936V234H31.9084ZM34.3906 226.727L34.1243 227.729H30.2038L30.4702 226.727H34.3906ZM38.4957 226.727V234H36.9581V228.187H36.9155L35.25 229.231V227.867L37.0504 226.727H38.4957ZM43.0758 234.16C42.465 234.157 41.9395 234.007 41.4991 233.709C41.0611 233.411 40.7238 232.978 40.487 232.413C40.2527 231.847 40.1367 231.166 40.139 230.371C40.139 229.578 40.2562 228.902 40.4906 228.343C40.7273 227.784 41.0647 227.359 41.5027 227.068C41.943 226.775 42.4674 226.628 43.0758 226.628C43.6842 226.628 44.2074 226.775 44.6454 227.068C45.0858 227.362 45.4243 227.788 45.661 228.347C45.8978 228.903 46.015 229.578 46.0126 230.371C46.0126 231.169 45.8942 231.85 45.6575 232.416C45.4231 232.982 45.0869 233.414 44.649 233.712C44.211 234.011 43.6866 234.16 43.0758 234.16ZM43.0758 232.885C43.4925 232.885 43.8251 232.675 44.0737 232.256C44.3223 231.837 44.4454 231.209 44.443 230.371C44.443 229.819 44.3862 229.36 44.2725 228.993C44.1613 228.626 44.0027 228.35 43.7967 228.165C43.5931 227.981 43.3528 227.888 43.0758 227.888C42.6615 227.888 42.3301 228.096 42.0815 228.51C41.8329 228.924 41.7074 229.545 41.7051 230.371C41.7051 230.929 41.7607 231.396 41.872 231.77C41.9856 232.142 42.1454 232.421 42.3514 232.608C42.5574 232.793 42.7988 232.885 43.0758 232.885ZM48.4744 233.006L48.4354 233.396C48.4046 233.709 48.3454 234.02 48.2578 234.33C48.1726 234.643 48.0826 234.926 47.9879 235.179C47.8956 235.432 47.821 235.631 47.7642 235.776H46.7841C46.8196 235.636 46.8681 235.441 46.9297 235.19C46.9912 234.941 47.0492 234.662 47.1037 234.352C47.1581 234.041 47.1925 233.725 47.2067 233.403L47.2244 233.006H48.4744ZM52.402 234.16C51.7912 234.157 51.2656 234.007 50.8253 233.709C50.3873 233.411 50.05 232.978 49.8132 232.413C49.5788 231.847 49.4628 231.166 49.4652 230.371C49.4652 229.578 49.5824 228.902 49.8168 228.343C50.0535 227.784 50.3909 227.359 50.8288 227.068C51.2692 226.775 51.7936 226.628 52.402 226.628C53.0104 226.628 53.5336 226.775 53.9716 227.068C54.4119 227.362 54.7505 227.788 54.9872 228.347C55.224 228.903 55.3411 229.578 55.3388 230.371C55.3388 231.169 55.2204 231.85 54.9837 232.416C54.7493 232.982 54.4131 233.414 53.9751 233.712C53.5372 234.011 53.0128 234.16 52.402 234.16ZM52.402 232.885C52.8187 232.885 53.1513 232.675 53.3999 232.256C53.6484 231.837 53.7715 231.209 53.7692 230.371C53.7692 229.819 53.7124 229.36 53.5987 228.993C53.4875 228.626 53.3288 228.35 53.1229 228.165C52.9193 227.981 52.679 227.888 52.402 227.888C51.9877 227.888 51.6563 228.096 51.4077 228.51C51.1591 228.924 51.0336 229.545 51.0312 230.371C51.0312 230.929 51.0869 231.396 51.1982 231.77C51.3118 232.142 51.4716 232.421 51.6776 232.608C51.8835 232.793 52.125 232.885 52.402 232.885ZM59.2868 234.16C58.676 234.157 58.1504 234.007 57.71 233.709C57.2721 233.411 56.9347 232.978 56.698 232.413C56.4636 231.847 56.3476 231.166 56.35 230.371C56.35 229.578 56.4672 228.902 56.7015 228.343C56.9383 227.784 57.2756 227.359 57.7136 227.068C58.1539 226.775 58.6783 226.628 59.2868 226.628C59.8952 226.628 60.4184 226.775 60.8564 227.068C61.2967 227.362 61.6352 227.788 61.872 228.347C62.1087 228.903 62.2259 229.578 62.2235 230.371C62.2235 231.169 62.1052 231.85 61.8684 232.416C61.6341 232.982 61.2979 233.414 60.8599 233.712C60.4219 234.011 59.8975 234.16 59.2868 234.16ZM59.2868 232.885C59.7034 232.885 60.036 232.675 60.2846 232.256C60.5332 231.837 60.6563 231.209 60.6539 230.371C60.6539 229.819 60.5971 229.36 60.4835 228.993C60.3722 228.626 60.2136 228.35 60.0076 228.165C59.804 227.981 59.5637 227.888 59.2868 227.888C58.8725 227.888 58.541 228.096 58.2924 228.51C58.0439 228.924 57.9184 229.545 57.916 230.371C57.916 230.929 57.9717 231.396 58.0829 231.77C58.1966 232.142 58.3564 232.421 58.5623 232.608C58.7683 232.793 59.0098 232.885 59.2868 232.885ZM66.1715 234.16C65.5607 234.157 65.0352 234.007 64.5948 233.709C64.1568 233.411 63.8195 232.978 63.5827 232.413C63.3484 231.847 63.2324 231.166 63.2347 230.371C63.2347 229.578 63.3519 228.902 63.5863 228.343C63.823 227.784 64.1604 227.359 64.5984 227.068C65.0387 226.775 65.5631 226.628 66.1715 226.628C66.7799 226.628 67.3031 226.775 67.7411 227.068C68.1815 227.362 68.52 227.788 68.7567 228.347C68.9935 228.903 69.1107 229.578 69.1083 230.371C69.1083 231.169 68.9899 231.85 68.7532 232.416C68.5188 232.982 68.1826 233.414 67.7447 233.712C67.3067 234.011 66.7823 234.16 66.1715 234.16ZM66.1715 232.885C66.5882 232.885 66.9208 232.675 67.1694 232.256C67.418 231.837 67.5411 231.209 67.5387 230.371C67.5387 229.819 67.4819 229.36 67.3683 228.993C67.257 228.626 67.0984 228.35 66.8924 228.165C66.6888 227.981 66.4485 227.888 66.1715 227.888C65.7572 227.888 65.4258 228.096 65.1772 228.51C64.9286 228.924 64.8031 229.545 64.8008 230.371C64.8008 230.929 64.8564 231.396 64.9677 231.77C65.0813 232.142 65.2411 232.421 65.4471 232.608C65.6531 232.793 65.8945 232.885 66.1715 232.885Z" fill="#9F9F9F"/>
<path d="M34.3835 188.531L34.1243 189.518H29.3622L29.6179 188.531H34.3835ZM31.9084 194L29.4794 191.109L29.483 190.222H30.6832C30.9508 190.222 31.1745 190.172 31.3544 190.072C31.5343 189.973 31.6693 189.838 31.7592 189.668C31.8492 189.497 31.8954 189.303 31.8977 189.085C31.8954 188.759 31.7995 188.492 31.6101 188.286C31.4231 188.078 31.1141 187.974 30.6832 187.974H29.3622L29.6534 186.727H30.6832C31.2869 186.727 31.79 186.818 32.1925 187.001C32.5973 187.181 32.9003 187.437 33.1016 187.771C33.3052 188.105 33.4081 188.503 33.4105 188.964C33.4081 189.374 33.3395 189.732 33.2045 190.037C33.072 190.342 32.8625 190.597 32.576 190.8C32.2919 191.004 31.9214 191.156 31.4645 191.255L31.4077 191.276L33.581 193.936V194H31.9084ZM34.3906 186.727L34.1243 187.729H30.2038L30.4702 186.727H34.3906ZM38.4957 186.727V194H36.9581V188.187H36.9155L35.25 189.231V187.867L37.0504 186.727H38.4957ZM42.8805 194.099C42.3786 194.099 41.9312 194.007 41.5382 193.822C41.1475 193.638 40.8374 193.383 40.6078 193.059C40.3781 192.735 40.2586 192.363 40.2491 191.944H41.7406C41.7572 192.226 41.8755 192.454 42.0957 192.629C42.3159 192.804 42.5775 192.892 42.8805 192.892C43.122 192.892 43.335 192.839 43.5197 192.732C43.7067 192.623 43.8523 192.473 43.9565 192.281C44.063 192.087 44.1163 191.865 44.1163 191.614C44.1163 191.358 44.0618 191.133 43.9529 190.939C43.8464 190.745 43.6984 190.593 43.5091 190.484C43.3197 190.375 43.103 190.32 42.8592 190.317C42.6461 190.317 42.439 190.361 42.2377 190.449C42.0389 190.536 41.8838 190.656 41.7725 190.808L40.4054 190.562L40.7498 186.727H45.1958V187.984H42.0176L41.8294 189.806H41.872C41.9998 189.626 42.1928 189.477 42.4508 189.359C42.7089 189.24 42.9977 189.181 43.3173 189.181C43.7553 189.181 44.1459 189.284 44.4892 189.49C44.8324 189.696 45.1035 189.979 45.3024 190.339C45.5012 190.696 45.5995 191.108 45.5971 191.575C45.5995 192.065 45.4859 192.5 45.2562 192.881C45.0289 193.26 44.7105 193.558 44.301 193.776C43.8938 193.992 43.4203 194.099 42.8805 194.099ZM48.0936 193.006L48.0545 193.396C48.0237 193.709 47.9645 194.02 47.877 194.33C47.7917 194.643 47.7018 194.926 47.6071 195.179C47.5147 195.432 47.4402 195.631 47.3833 195.776H46.4032C46.4387 195.636 46.4873 195.441 46.5488 195.19C46.6104 194.941 46.6684 194.662 46.7228 194.352C46.7773 194.041 46.8116 193.725 46.8258 193.403L46.8436 193.006H48.0936ZM52.0211 194.16C51.4103 194.157 50.8848 194.007 50.4444 193.709C50.0065 193.411 49.6691 192.978 49.4324 192.413C49.198 191.847 49.082 191.166 49.0843 190.371C49.0843 189.578 49.2015 188.902 49.4359 188.343C49.6726 187.784 50.01 187.359 50.448 187.068C50.8883 186.775 51.4127 186.628 52.0211 186.628C52.6296 186.628 53.1528 186.775 53.5907 187.068C54.0311 187.362 54.3696 187.788 54.6064 188.347C54.8431 188.903 54.9603 189.578 54.9579 190.371C54.9579 191.169 54.8395 191.85 54.6028 192.416C54.3684 192.982 54.0323 193.414 53.5943 193.712C53.1563 194.011 52.6319 194.16 52.0211 194.16ZM52.0211 192.885C52.4378 192.885 52.7704 192.675 53.019 192.256C53.2676 191.837 53.3907 191.209 53.3883 190.371C53.3883 189.819 53.3315 189.36 53.2179 188.993C53.1066 188.626 52.948 188.35 52.742 188.165C52.5384 187.981 52.2981 187.888 52.0211 187.888C51.6068 187.888 51.2754 188.096 51.0268 188.51C50.7782 188.924 50.6528 189.545 50.6504 190.371C50.6504 190.929 50.706 191.396 50.8173 191.77C50.9309 192.142 51.0907 192.421 51.2967 192.608C51.5027 192.793 51.7441 192.885 52.0211 192.885ZM58.9059 194.16C58.2951 194.157 57.7695 194.007 57.3292 193.709C56.8912 193.411 56.5539 192.978 56.3171 192.413C56.0827 191.847 55.9667 191.166 55.9691 190.371C55.9691 189.578 56.0863 188.902 56.3207 188.343C56.5574 187.784 56.8948 187.359 57.3327 187.068C57.7731 186.775 58.2975 186.628 58.9059 186.628C59.5143 186.628 60.0375 186.775 60.4755 187.068C60.9158 187.362 61.2544 187.788 61.4911 188.347C61.7279 188.903 61.8451 189.578 61.8427 190.371C61.8427 191.169 61.7243 191.85 61.4876 192.416C61.2532 192.982 60.917 193.414 60.479 193.712C60.0411 194.011 59.5167 194.16 58.9059 194.16ZM58.9059 192.885C59.3226 192.885 59.6552 192.675 59.9038 192.256C60.1523 191.837 60.2754 191.209 60.2731 190.371C60.2731 189.819 60.2163 189.36 60.1026 188.993C59.9914 188.626 59.8327 188.35 59.6268 188.165C59.4232 187.981 59.1829 187.888 58.9059 187.888C58.4916 187.888 58.1602 188.096 57.9116 188.51C57.663 188.924 57.5375 189.545 57.5352 190.371C57.5352 190.929 57.5908 191.396 57.7021 191.77C57.8157 192.142 57.9755 192.421 58.1815 192.608C58.3874 192.793 58.6289 192.885 58.9059 192.885ZM65.7907 194.16C65.1799 194.157 64.6543 194.007 64.214 193.709C63.776 193.411 63.4386 192.978 63.2019 192.413C62.9675 191.847 62.8515 191.166 62.8539 190.371C62.8539 189.578 62.9711 188.902 63.2054 188.343C63.4422 187.784 63.7795 187.359 64.2175 187.068C64.6578 186.775 65.1822 186.628 65.7907 186.628C66.3991 186.628 66.9223 186.775 67.3603 187.068C67.8006 187.362 68.1391 187.788 68.3759 188.347C68.6126 188.903 68.7298 189.578 68.7275 190.371C68.7275 191.169 68.6091 191.85 68.3723 192.416C68.138 192.982 67.8018 193.414 67.3638 193.712C66.9258 194.011 66.4015 194.16 65.7907 194.16ZM65.7907 192.885C66.2073 192.885 66.54 192.675 66.7885 192.256C67.0371 191.837 67.1602 191.209 67.1578 190.371C67.1578 189.819 67.101 189.36 66.9874 188.993C66.8761 188.626 66.7175 188.35 66.5115 188.165C66.3079 187.981 66.0676 187.888 65.7907 187.888C65.3764 187.888 65.0449 188.096 64.7963 188.51C64.5478 188.924 64.4223 189.545 64.4199 190.371C64.4199 190.929 64.4756 191.396 64.5868 191.77C64.7005 192.142 64.8603 192.421 65.0662 192.608C65.2722 192.793 65.5137 192.885 65.7907 192.885Z" fill="#9F9F9F"/>
<path d="M34.3835 148.531L34.1243 149.518H29.3622L29.6179 148.531H34.3835ZM31.9084 154L29.4794 151.109L29.483 150.222H30.6832C30.9508 150.222 31.1745 150.172 31.3544 150.072C31.5343 149.973 31.6693 149.838 31.7592 149.668C31.8492 149.497 31.8954 149.303 31.8977 149.085C31.8954 148.759 31.7995 148.492 31.6101 148.286C31.4231 148.078 31.1141 147.974 30.6832 147.974H29.3622L29.6534 146.727H30.6832C31.2869 146.727 31.79 146.818 32.1925 147.001C32.5973 147.181 32.9003 147.437 33.1016 147.771C33.3052 148.105 33.4081 148.503 33.4105 148.964C33.4081 149.374 33.3395 149.732 33.2045 150.037C33.072 150.342 32.8625 150.597 32.576 150.8C32.2919 151.004 31.9214 151.156 31.4645 151.255L31.4077 151.276L33.581 153.936V154H31.9084ZM34.3906 146.727L34.1243 147.729H30.2038L30.4702 146.727H34.3906ZM35.3317 154V152.892L37.9205 150.495C38.1406 150.282 38.3253 150.09 38.4744 149.92C38.6259 149.749 38.7408 149.582 38.8189 149.419C38.897 149.253 38.9361 149.075 38.9361 148.883C38.9361 148.67 38.8875 148.486 38.7905 148.332C38.6934 148.176 38.5608 148.057 38.3928 147.974C38.2247 147.888 38.0341 147.846 37.821 147.846C37.5985 147.846 37.4044 147.891 37.2386 147.981C37.0729 148.071 36.9451 148.2 36.8551 148.368C36.7652 148.536 36.7202 148.736 36.7202 148.968H35.2607C35.2607 148.492 35.3684 148.079 35.5838 147.729C35.7992 147.378 36.1011 147.107 36.4893 146.915C36.8776 146.724 37.325 146.628 37.8317 146.628C38.3525 146.628 38.8059 146.72 39.1918 146.905C39.58 147.087 39.8819 147.34 40.0973 147.665C40.3127 147.989 40.4205 148.361 40.4205 148.78C40.4205 149.054 40.366 149.326 40.2571 149.593C40.1506 149.861 39.96 150.158 39.6854 150.484C39.4107 150.809 39.0237 151.198 38.5241 151.653L37.4624 152.693V152.743H40.5163V154H35.3317ZM44.4821 154.16C43.8713 154.157 43.3457 154.007 42.9054 153.709C42.4674 153.411 42.13 152.978 41.8933 152.413C41.6589 151.847 41.5429 151.166 41.5453 150.371C41.5453 149.578 41.6625 148.902 41.8968 148.343C42.1336 147.784 42.4709 147.359 42.9089 147.068C43.3493 146.775 43.8736 146.628 44.4821 146.628C45.0905 146.628 45.6137 146.775 46.0517 147.068C46.492 147.362 46.8306 147.788 47.0673 148.347C47.304 148.903 47.4212 149.578 47.4189 150.371C47.4189 151.169 47.3005 151.85 47.0637 152.416C46.8294 152.982 46.4932 153.414 46.0552 153.712C45.6172 154.011 45.0929 154.16 44.4821 154.16ZM44.4821 152.885C44.8987 152.885 45.2314 152.675 45.4799 152.256C45.7285 151.837 45.8516 151.209 45.8493 150.371C45.8493 149.819 45.7924 149.36 45.6788 148.993C45.5675 148.626 45.4089 148.35 45.2029 148.165C44.9993 147.981 44.7591 147.888 44.4821 147.888C44.0678 147.888 43.7363 148.096 43.4877 148.51C43.2392 148.924 43.1137 149.545 43.1113 150.371C43.1113 150.929 43.167 151.396 43.2782 151.77C43.3919 152.142 43.5517 152.421 43.7576 152.608C43.9636 152.793 44.2051 152.885 44.4821 152.885ZM49.8807 153.006L49.8416 153.396C49.8108 153.709 49.7517 154.02 49.6641 154.33C49.5788 154.643 49.4889 154.926 49.3942 155.179C49.3018 155.432 49.2273 155.631 49.1705 155.776H48.1903C48.2259 155.636 48.2744 155.441 48.3359 155.19C48.3975 154.941 48.4555 154.662 48.5099 154.352C48.5644 154.041 48.5987 153.725 48.6129 153.403L48.6307 153.006H49.8807ZM53.8082 154.16C53.1974 154.157 52.6719 154.007 52.2315 153.709C51.7936 153.411 51.4562 152.978 51.2195 152.413C50.9851 151.847 50.8691 151.166 50.8714 150.371C50.8714 149.578 50.9886 148.902 51.223 148.343C51.4598 147.784 51.7971 147.359 52.2351 147.068C52.6754 146.775 53.1998 146.628 53.8082 146.628C54.4167 146.628 54.9399 146.775 55.3778 147.068C55.8182 147.362 56.1567 147.788 56.3935 148.347C56.6302 148.903 56.7474 149.578 56.745 150.371C56.745 151.169 56.6267 151.85 56.3899 152.416C56.1555 152.982 55.8194 153.414 55.3814 153.712C54.9434 154.011 54.419 154.16 53.8082 154.16ZM53.8082 152.885C54.2249 152.885 54.5575 152.675 54.8061 152.256C55.0547 151.837 55.1778 151.209 55.1754 150.371C55.1754 149.819 55.1186 149.36 55.005 148.993C54.8937 148.626 54.7351 148.35 54.5291 148.165C54.3255 147.981 54.0852 147.888 53.8082 147.888C53.3939 147.888 53.0625 148.096 52.8139 148.51C52.5653 148.924 52.4399 149.545 52.4375 150.371C52.4375 150.929 52.4931 151.396 52.6044 151.77C52.718 152.142 52.8778 152.421 53.0838 152.608C53.2898 152.793 53.5312 152.885 53.8082 152.885ZM60.693 154.16C60.0822 154.157 59.5566 154.007 59.1163 153.709C58.6783 153.411 58.341 152.978 58.1042 152.413C57.8699 151.847 57.7538 151.166 57.7562 150.371C57.7562 149.578 57.8734 148.902 58.1078 148.343C58.3445 147.784 58.6819 147.359 59.1199 147.068C59.5602 146.775 60.0846 146.628 60.693 146.628C61.3014 146.628 61.8246 146.775 62.2626 147.068C62.7029 147.362 63.0415 147.788 63.2782 148.347C63.515 148.903 63.6322 149.578 63.6298 150.371C63.6298 151.169 63.5114 151.85 63.2747 152.416C63.0403 152.982 62.7041 153.414 62.2662 153.712C61.8282 154.011 61.3038 154.16 60.693 154.16ZM60.693 152.885C61.1097 152.885 61.4423 152.675 61.6909 152.256C61.9395 151.837 62.0626 151.209 62.0602 150.371C62.0602 149.819 62.0034 149.36 61.8897 148.993C61.7785 148.626 61.6199 148.35 61.4139 148.165C61.2103 147.981 60.97 147.888 60.693 147.888C60.2787 147.888 59.9473 148.096 59.6987 148.51C59.4501 148.924 59.3246 149.545 59.3223 150.371C59.3223 150.929 59.3779 151.396 59.4892 151.77C59.6028 152.142 59.7626 152.421 59.9686 152.608C60.1745 152.793 60.416 152.885 60.693 152.885ZM67.5778 154.16C66.967 154.157 66.4414 154.007 66.0011 153.709C65.5631 153.411 65.2257 152.978 64.989 152.413C64.7546 151.847 64.6386 151.166 64.641 150.371C64.641 149.578 64.7582 148.902 64.9925 148.343C65.2293 147.784 65.5666 147.359 66.0046 147.068C66.445 146.775 66.9693 146.628 67.5778 146.628C68.1862 146.628 68.7094 146.775 69.1474 147.068C69.5877 147.362 69.9263 147.788 70.163 148.347C70.3997 148.903 70.5169 149.578 70.5146 150.371C70.5146 151.169 70.3962 151.85 70.1594 152.416C69.9251 152.982 69.5889 153.414 69.1509 153.712C68.7129 154.011 68.1886 154.16 67.5778 154.16ZM67.5778 152.885C67.9944 152.885 68.3271 152.675 68.5756 152.256C68.8242 151.837 68.9473 151.209 68.945 150.371C68.945 149.819 68.8881 149.36 68.7745 148.993C68.6632 148.626 68.5046 148.35 68.2987 148.165C68.0951 147.981 67.8548 147.888 67.5778 147.888C67.1635 147.888 66.832 148.096 66.5835 148.51C66.3349 148.924 66.2094 149.545 66.207 150.371C66.207 150.929 66.2627 151.396 66.3739 151.77C66.4876 152.142 66.6474 152.421 66.8533 152.608C67.0593 152.793 67.3008 152.885 67.5778 152.885Z" fill="#9F9F9F"/>
<path d="M554 40L557 43L560 40" stroke="#9F9F9F"/>
<line x1="75" y1="270.5" x2="557" y2="270.5" stroke="#F2F2F2"/>
<line x1="75" y1="150.5" x2="557" y2="150.5" stroke="#F2F2F2"/>
<line x1="75" y1="190.5" x2="557" y2="190.5" stroke="#F2F2F2"/>
<line x1="75" y1="230.5" x2="557" y2="230.5" stroke="#F2F2F2"/>
<path d="M105.577 327.819C105.549 327.532 105.427 327.31 105.212 327.151C104.996 326.993 104.704 326.913 104.335 326.913C104.084 326.913 103.872 326.949 103.699 327.02C103.526 327.089 103.393 327.184 103.301 327.308C103.211 327.431 103.166 327.57 103.166 327.727C103.161 327.857 103.189 327.97 103.248 328.067C103.309 328.165 103.393 328.249 103.5 328.32C103.607 328.388 103.73 328.449 103.869 328.501C104.009 328.55 104.158 328.593 104.317 328.629L104.97 328.785C105.287 328.856 105.579 328.951 105.844 329.069C106.109 329.187 106.339 329.333 106.533 329.506C106.727 329.679 106.877 329.882 106.984 330.116C107.093 330.351 107.148 330.62 107.151 330.923C107.148 331.368 107.035 331.754 106.81 332.08C106.587 332.405 106.265 332.657 105.844 332.837C105.425 333.014 104.919 333.103 104.327 333.103C103.74 333.103 103.229 333.013 102.793 332.833C102.36 332.653 102.022 332.387 101.778 332.034C101.536 331.679 101.41 331.24 101.398 330.717H102.886C102.902 330.96 102.972 331.164 103.095 331.327C103.221 331.488 103.388 331.61 103.596 331.693C103.807 331.774 104.045 331.814 104.31 331.814C104.57 331.814 104.796 331.776 104.988 331.7C105.182 331.625 105.332 331.519 105.439 331.384C105.545 331.249 105.599 331.094 105.599 330.919C105.599 330.756 105.55 330.618 105.453 330.507C105.358 330.396 105.219 330.301 105.034 330.223C104.852 330.145 104.628 330.074 104.363 330.01L103.571 329.811C102.958 329.662 102.474 329.429 102.119 329.112C101.763 328.794 101.587 328.367 101.589 327.83C101.587 327.389 101.704 327.004 101.941 326.675C102.18 326.346 102.508 326.089 102.925 325.905C103.341 325.72 103.815 325.628 104.345 325.628C104.885 325.628 105.356 325.72 105.759 325.905C106.163 326.089 106.478 326.346 106.703 326.675C106.928 327.004 107.044 327.386 107.051 327.819H105.577ZM111.654 330.678V327.545H113.167V333H111.715V332.009H111.658C111.535 332.329 111.33 332.586 111.044 332.78C110.759 332.974 110.413 333.071 110.003 333.071C109.638 333.071 109.318 332.988 109.041 332.822C108.764 332.657 108.547 332.421 108.391 332.116C108.237 331.81 108.159 331.445 108.156 331.018V327.545H109.669V330.749C109.672 331.071 109.758 331.325 109.928 331.512C110.099 331.699 110.327 331.793 110.614 331.793C110.796 331.793 110.967 331.751 111.125 331.668C111.284 331.583 111.412 331.458 111.509 331.292C111.608 331.126 111.657 330.921 111.654 330.678ZM115.89 329.847V333H114.377V327.545H115.819V328.508H115.883C116.004 328.191 116.206 327.94 116.49 327.755C116.774 327.568 117.119 327.474 117.523 327.474C117.902 327.474 118.232 327.557 118.514 327.723C118.796 327.889 119.015 328.125 119.171 328.433C119.327 328.739 119.406 329.103 119.406 329.527V333H117.893V329.797C117.895 329.463 117.81 329.203 117.637 329.016C117.464 328.826 117.226 328.732 116.923 328.732C116.72 328.732 116.54 328.775 116.384 328.863C116.23 328.951 116.109 329.078 116.021 329.246C115.936 329.412 115.892 329.612 115.89 329.847Z" fill="#9F9F9F"/>
<path d="M454.632 333V325.727H459.447V326.995H456.17V328.728H459.128V329.996H456.17V333H454.632ZM460.365 333V327.545H461.832V328.497H461.889C461.988 328.159 462.155 327.903 462.39 327.73C462.624 327.555 462.894 327.467 463.199 327.467C463.275 327.467 463.357 327.472 463.444 327.482C463.532 327.491 463.609 327.504 463.675 327.521V328.863C463.604 328.842 463.506 328.823 463.38 328.806C463.255 328.79 463.14 328.781 463.036 328.781C462.813 328.781 462.614 328.83 462.439 328.927C462.266 329.022 462.129 329.154 462.027 329.325C461.928 329.495 461.878 329.692 461.878 329.914V333H460.365ZM464.457 333V327.545H465.97V333H464.457ZM465.217 326.842C464.992 326.842 464.799 326.768 464.638 326.619C464.48 326.467 464.4 326.286 464.4 326.075C464.4 325.867 464.48 325.688 464.638 325.539C464.799 325.388 464.992 325.312 465.217 325.312C465.442 325.312 465.634 325.388 465.792 325.539C465.953 325.688 466.034 325.867 466.034 326.075C466.034 326.286 465.953 326.467 465.792 326.619C465.634 326.768 465.442 326.842 465.217 326.842Z" fill="#9F9F9F"/>
<path d="M521.577 327.819C521.549 327.532 521.427 327.31 521.212 327.151C520.996 326.993 520.704 326.913 520.335 326.913C520.084 326.913 519.872 326.949 519.699 327.02C519.526 327.089 519.393 327.184 519.301 327.308C519.211 327.431 519.166 327.57 519.166 327.727C519.161 327.857 519.189 327.97 519.248 328.067C519.309 328.165 519.393 328.249 519.5 328.32C519.607 328.388 519.73 328.449 519.869 328.501C520.009 328.55 520.158 328.593 520.317 328.629L520.97 328.785C521.287 328.856 521.579 328.951 521.844 329.069C522.109 329.187 522.339 329.333 522.533 329.506C522.727 329.679 522.877 329.882 522.984 330.116C523.093 330.351 523.148 330.62 523.151 330.923C523.148 331.368 523.035 331.754 522.81 332.08C522.587 332.405 522.265 332.657 521.844 332.837C521.425 333.014 520.919 333.103 520.327 333.103C519.74 333.103 519.229 333.013 518.793 332.833C518.36 332.653 518.022 332.387 517.778 332.034C517.536 331.679 517.41 331.24 517.398 330.717H518.886C518.902 330.96 518.972 331.164 519.095 331.327C519.221 331.488 519.388 331.61 519.596 331.693C519.807 331.774 520.045 331.814 520.31 331.814C520.57 331.814 520.796 331.776 520.988 331.7C521.182 331.625 521.332 331.519 521.439 331.384C521.545 331.249 521.599 331.094 521.599 330.919C521.599 330.756 521.55 330.618 521.453 330.507C521.358 330.396 521.219 330.301 521.034 330.223C520.852 330.145 520.628 330.074 520.363 330.01L519.571 329.811C518.958 329.662 518.474 329.429 518.119 329.112C517.763 328.794 517.587 328.367 517.589 327.83C517.587 327.389 517.704 327.004 517.941 326.675C518.18 326.346 518.508 326.089 518.925 325.905C519.341 325.72 519.815 325.628 520.345 325.628C520.885 325.628 521.356 325.72 521.759 325.905C522.163 326.089 522.478 326.346 522.703 326.675C522.928 327.004 523.044 327.386 523.051 327.819H521.577ZM525.712 333.103C525.364 333.103 525.054 333.043 524.781 332.922C524.509 332.799 524.294 332.618 524.135 332.379C523.979 332.137 523.901 331.836 523.901 331.477C523.901 331.174 523.956 330.919 524.068 330.713C524.179 330.507 524.33 330.341 524.522 330.216C524.714 330.09 524.932 329.996 525.176 329.932C525.422 329.868 525.68 329.823 525.95 329.797C526.267 329.764 526.523 329.733 526.717 329.705C526.911 329.674 527.052 329.629 527.139 329.57C527.227 329.51 527.271 329.423 527.271 329.307V329.286C527.271 329.061 527.2 328.887 527.058 328.763C526.918 328.64 526.719 328.579 526.461 328.579C526.189 328.579 525.972 328.639 525.811 328.76C525.65 328.878 525.544 329.027 525.492 329.207L524.093 329.094C524.164 328.762 524.303 328.476 524.512 328.234C524.72 327.991 524.989 327.804 525.318 327.673C525.649 327.541 526.033 327.474 526.468 327.474C526.771 327.474 527.061 327.51 527.338 327.581C527.618 327.652 527.865 327.762 528.08 327.911C528.298 328.06 528.47 328.252 528.595 328.487C528.721 328.719 528.784 328.997 528.784 329.321V333H527.349V332.244H527.306C527.219 332.414 527.102 332.564 526.955 332.695C526.808 332.822 526.632 332.923 526.426 332.996C526.22 333.067 525.982 333.103 525.712 333.103ZM526.145 332.059C526.368 332.059 526.564 332.015 526.735 331.928C526.905 331.838 527.039 331.717 527.136 331.565C527.233 331.414 527.281 331.242 527.281 331.05V330.472C527.234 330.502 527.169 330.531 527.086 330.557C527.006 330.58 526.914 330.603 526.813 330.624C526.711 330.643 526.609 330.661 526.507 330.678C526.405 330.692 526.313 330.705 526.23 330.717C526.053 330.743 525.898 330.784 525.765 330.841C525.633 330.898 525.53 330.975 525.456 331.072C525.383 331.166 525.346 331.285 525.346 331.427C525.346 331.633 525.421 331.79 525.57 331.899C525.721 332.006 525.913 332.059 526.145 332.059ZM532.858 327.545V328.682H529.574V327.545H532.858ZM530.319 326.239H531.832V331.324C531.832 331.464 531.854 331.572 531.896 331.651C531.939 331.726 531.998 331.78 532.074 331.81C532.152 331.841 532.242 331.857 532.344 331.857C532.415 331.857 532.486 331.851 532.557 331.839C532.628 331.825 532.682 331.814 532.72 331.807L532.958 332.933C532.882 332.956 532.776 332.983 532.638 333.014C532.501 333.047 532.334 333.067 532.138 333.075C531.773 333.089 531.453 333.04 531.179 332.929C530.907 332.818 530.695 332.645 530.543 332.411C530.392 332.176 530.317 331.88 530.319 331.523V326.239Z" fill="#9F9F9F"/>
<path d="M313.269 333L311.188 325.727H312.868L314.072 330.781H314.132L315.46 325.727H316.898L318.223 330.791H318.287L319.491 325.727H321.17L319.089 333H317.591L316.206 328.245H316.149L314.768 333H313.269ZM323.865 333.107C323.304 333.107 322.821 332.993 322.416 332.766C322.014 332.536 321.703 332.212 321.486 331.793C321.268 331.371 321.159 330.873 321.159 330.298C321.159 329.737 321.268 329.244 321.486 328.82C321.703 328.397 322.01 328.066 322.405 327.83C322.803 327.593 323.269 327.474 323.805 327.474C324.164 327.474 324.499 327.532 324.809 327.648C325.122 327.762 325.394 327.934 325.626 328.163C325.861 328.393 326.043 328.682 326.173 329.03C326.303 329.375 326.368 329.78 326.368 330.244V330.66H321.763V329.722H324.944C324.944 329.504 324.897 329.312 324.802 329.143C324.708 328.975 324.576 328.844 324.408 328.749C324.242 328.652 324.05 328.604 323.829 328.604C323.6 328.604 323.396 328.657 323.219 328.763C323.043 328.868 322.906 329.009 322.807 329.186C322.707 329.361 322.656 329.557 322.654 329.772V330.663C322.654 330.933 322.704 331.166 322.803 331.363C322.905 331.559 323.048 331.711 323.233 331.817C323.417 331.924 323.636 331.977 323.89 331.977C324.058 331.977 324.212 331.954 324.351 331.906C324.491 331.859 324.611 331.788 324.71 331.693C324.809 331.598 324.885 331.482 324.937 331.345L326.336 331.438C326.265 331.774 326.12 332.067 325.9 332.318C325.682 332.567 325.4 332.761 325.055 332.901C324.711 333.038 324.315 333.107 323.865 333.107ZM329.366 333.089C328.951 333.089 328.576 332.982 328.24 332.769C327.906 332.554 327.641 332.238 327.444 331.821C327.25 331.402 327.153 330.888 327.153 330.28C327.153 329.655 327.254 329.135 327.455 328.721C327.656 328.304 327.924 327.993 328.258 327.787C328.594 327.579 328.962 327.474 329.362 327.474C329.667 327.474 329.922 327.527 330.126 327.631C330.331 327.732 330.497 327.86 330.623 328.014C330.751 328.166 330.848 328.315 330.914 328.462H330.96V325.727H332.469V333H330.978V332.126H330.914C330.843 332.278 330.742 332.428 330.612 332.577C330.484 332.724 330.317 332.846 330.111 332.943C329.908 333.04 329.659 333.089 329.366 333.089ZM329.845 331.885C330.089 331.885 330.295 331.819 330.463 331.686C330.633 331.551 330.764 331.363 330.854 331.121C330.946 330.88 330.992 330.597 330.992 330.273C330.992 329.948 330.947 329.667 330.857 329.428C330.767 329.188 330.637 329.004 330.466 328.874C330.296 328.743 330.089 328.678 329.845 328.678C329.596 328.678 329.387 328.746 329.216 328.881C329.046 329.016 328.917 329.203 328.829 329.442C328.742 329.681 328.698 329.958 328.698 330.273C328.698 330.59 328.742 330.871 328.829 331.114C328.919 331.356 329.048 331.545 329.216 331.683C329.387 331.817 329.596 331.885 329.845 331.885Z" fill="#9F9F9F"/>
<path d="M384.355 326.995V325.727H390.328V326.995H388.102V333H386.582V326.995H384.355ZM392.796 329.847V333H391.283V325.727H392.754V328.508H392.817C392.941 328.186 393.139 327.934 393.414 327.751C393.689 327.567 394.033 327.474 394.447 327.474C394.826 327.474 395.156 327.557 395.438 327.723C395.722 327.886 395.942 328.122 396.099 328.43C396.257 328.735 396.335 329.101 396.333 329.527V333H394.82V329.797C394.823 329.461 394.737 329.199 394.565 329.012C394.394 328.825 394.155 328.732 393.847 328.732C393.641 328.732 393.459 328.775 393.3 328.863C393.144 328.951 393.021 329.078 392.931 329.246C392.844 329.412 392.799 329.612 392.796 329.847ZM401.021 330.678V327.545H402.534V333H401.082V332.009H401.025C400.902 332.329 400.697 332.586 400.411 332.78C400.127 332.974 399.78 333.071 399.37 333.071C399.006 333.071 398.685 332.988 398.408 332.822C398.131 332.657 397.914 332.421 397.758 332.116C397.604 331.81 397.526 331.445 397.524 331.018V327.545H399.036V330.749C399.039 331.071 399.125 331.325 399.296 331.512C399.466 331.699 399.695 331.793 399.981 331.793C400.163 331.793 400.334 331.751 400.492 331.668C400.651 331.583 400.779 331.458 400.876 331.292C400.975 331.126 401.024 330.921 401.021 330.678Z" fill="#9F9F9F"/>
<path d="M170.632 325.727H172.528L174.531 330.614H174.616L176.619 325.727H178.516V333H177.024V328.266H176.964L175.082 332.964H174.066L172.184 328.249H172.124V333H170.632V325.727ZM182.219 333.107C181.667 333.107 181.19 332.989 180.787 332.755C180.387 332.518 180.078 332.189 179.861 331.768C179.643 331.344 179.534 330.853 179.534 330.294C179.534 329.731 179.643 329.238 179.861 328.817C180.078 328.393 180.387 328.064 180.787 327.83C181.19 327.593 181.667 327.474 182.219 327.474C182.77 327.474 183.246 327.593 183.646 327.83C184.049 328.064 184.359 328.393 184.577 328.817C184.794 329.238 184.903 329.731 184.903 330.294C184.903 330.853 184.794 331.344 184.577 331.768C184.359 332.189 184.049 332.518 183.646 332.755C183.246 332.989 182.77 333.107 182.219 333.107ZM182.226 331.935C182.477 331.935 182.686 331.864 182.854 331.722C183.022 331.577 183.149 331.381 183.234 331.132C183.322 330.884 183.366 330.601 183.366 330.283C183.366 329.966 183.322 329.683 183.234 329.435C183.149 329.186 183.022 328.99 182.854 328.845C182.686 328.701 182.477 328.629 182.226 328.629C181.972 328.629 181.759 328.701 181.586 328.845C181.416 328.99 181.287 329.186 181.199 329.435C181.114 329.683 181.072 329.966 181.072 330.283C181.072 330.601 181.114 330.884 181.199 331.132C181.287 331.381 181.416 331.577 181.586 331.722C181.759 331.864 181.972 331.935 182.226 331.935ZM187.4 329.847V333H185.887V327.545H187.329V328.508H187.393C187.513 328.191 187.716 327.94 188 327.755C188.284 327.568 188.628 327.474 189.033 327.474C189.412 327.474 189.742 327.557 190.024 327.723C190.306 327.889 190.525 328.125 190.681 328.433C190.837 328.739 190.915 329.103 190.915 329.527V333H189.403V329.797C189.405 329.463 189.32 329.203 189.147 329.016C188.974 328.826 188.736 328.732 188.433 328.732C188.229 328.732 188.05 328.775 187.893 328.863C187.739 328.951 187.619 329.078 187.531 329.246C187.446 329.412 187.402 329.612 187.4 329.847Z" fill="#9F9F9F"/>
<path d="M242.355 326.995V325.727H248.328V326.995H246.102V333H244.582V326.995H242.355ZM252.039 330.678V327.545H253.552V333H252.099V332.009H252.043C251.92 332.329 251.715 332.586 251.428 332.78C251.144 332.974 250.797 333.071 250.388 333.071C250.023 333.071 249.702 332.988 249.425 332.822C249.148 332.657 248.932 332.421 248.776 332.116C248.622 331.81 248.544 331.445 248.541 331.018V327.545H250.054V330.749C250.056 331.071 250.143 331.325 250.313 331.512C250.484 331.699 250.712 331.793 250.999 331.793C251.181 331.793 251.351 331.751 251.51 331.668C251.669 331.583 251.796 331.458 251.893 331.292C251.993 331.126 252.041 330.921 252.039 330.678ZM257.248 333.107C256.687 333.107 256.204 332.993 255.799 332.766C255.396 332.536 255.086 332.212 254.868 331.793C254.651 331.371 254.542 330.873 254.542 330.298C254.542 329.737 254.651 329.244 254.868 328.82C255.086 328.397 255.393 328.066 255.788 327.83C256.186 327.593 256.652 327.474 257.187 327.474C257.547 327.474 257.882 327.532 258.192 327.648C258.505 327.762 258.777 327.934 259.009 328.163C259.243 328.393 259.426 328.682 259.556 329.03C259.686 329.375 259.751 329.78 259.751 330.244V330.66H255.145V329.722H258.327C258.327 329.504 258.28 329.312 258.185 329.143C258.09 328.975 257.959 328.844 257.791 328.749C257.625 328.652 257.432 328.604 257.212 328.604C256.983 328.604 256.779 328.657 256.601 328.763C256.426 328.868 256.289 329.009 256.189 329.186C256.09 329.361 256.039 329.557 256.037 329.772V330.663C256.037 330.933 256.086 331.166 256.186 331.363C256.288 331.559 256.431 331.711 256.616 331.817C256.8 331.924 257.019 331.977 257.273 331.977C257.441 331.977 257.595 331.954 257.734 331.906C257.874 331.859 257.993 331.788 258.093 331.693C258.192 331.598 258.268 331.482 258.32 331.345L259.719 331.438C259.648 331.774 259.503 332.067 259.282 332.318C259.065 332.567 258.783 332.761 258.437 332.901C258.094 333.038 257.698 333.107 257.248 333.107Z" fill="#9F9F9F"/>
<path d="M142.5 270.501C113.098 240.609 86.6998 257.169 76 270.501V310H560V150.131C560 150.131 537.696 133.501 507.196 128.5C467.723 122.029 419.487 220 395 220C373.234 220 341 173 324 180.501C292.436 194.428 299.868 247.401 261.934 249.875C235.072 251.628 228 216.501 202.321 217.109C170.622 217.86 166.782 295.188 142.5 270.501Z" fill="url(#paint1_linear_51_7)" stroke="white" stroke-width="2"/>
<path d="M77 271.5C87.6998 258.169 112.098 240.4 141.5 270.292C165.782 294.979 170.622 217.651 202.321 216.9C228 216.291 235.072 251.418 261.934 249.666C299.868 247.192 300 184 325 181C347.836 178.26 374.734 221.501 396.5 221.501C420.987 221.501 467 122.942 507 129.5C537.5 134.5 558.5 151.5 558.5 151.5" stroke="#903FEE" stroke-width="2"/>
<line x1="75" y1="309.5" x2="557" y2="309.5" stroke="#F2F2F2"/>
<line x1="323.5" y1="180" x2="323.5" y2="310" stroke="#903FEE" stroke-dasharray="4 4"/>
<circle cx="323" cy="180" r="5.25" fill="white" stroke="#903FEE" stroke-width="1.5"/>
<rect x="283" y="129" width="80" height="40" rx="8" fill="url(#paint2_linear_51_7)"/>
<path d="M306.46 153.438L306.149 154.622H300.435L300.741 153.438H306.46ZM303.49 160L300.575 156.531L300.58 155.466H302.02C302.341 155.466 302.609 155.406 302.825 155.287C303.041 155.168 303.203 155.006 303.311 154.801C303.419 154.597 303.474 154.364 303.477 154.102C303.474 153.71 303.359 153.391 303.132 153.143C302.908 152.893 302.537 152.768 302.02 152.768H300.435L300.784 151.273H302.02C302.744 151.273 303.348 151.382 303.831 151.601C304.317 151.817 304.68 152.125 304.922 152.526C305.166 152.926 305.29 153.403 305.293 153.957C305.29 154.449 305.207 154.878 305.045 155.244C304.886 155.611 304.635 155.916 304.291 156.161C303.95 156.405 303.506 156.587 302.957 156.706L302.889 156.732L305.497 159.923V160H303.49ZM306.469 151.273L306.149 152.474H301.445L301.764 151.273H306.469ZM311.395 151.273V160H309.55V153.024H309.499L307.5 154.277V152.641L309.661 151.273H311.395ZM316.819 160.119C316.37 160.116 315.936 160.041 315.519 159.893C315.104 159.746 314.732 159.506 314.402 159.173C314.073 158.841 313.811 158.401 313.618 157.852C313.428 157.304 313.333 156.631 313.333 155.832C313.336 155.099 313.419 154.445 313.584 153.868C313.752 153.288 313.99 152.797 314.3 152.393C314.613 151.99 314.986 151.683 315.421 151.473C315.855 151.26 316.343 151.153 316.882 151.153C317.465 151.153 317.979 151.267 318.425 151.494C318.871 151.719 319.229 152.024 319.499 152.411C319.772 152.797 319.936 153.23 319.993 153.71H318.174C318.103 153.406 317.953 153.168 317.726 152.994C317.499 152.821 317.218 152.734 316.882 152.734C316.314 152.734 315.882 152.982 315.587 153.476C315.294 153.97 315.145 154.642 315.14 155.491H315.199C315.33 155.233 315.506 155.013 315.728 154.831C315.952 154.646 316.206 154.506 316.49 154.409C316.777 154.31 317.08 154.26 317.398 154.26C317.915 154.26 318.375 154.382 318.779 154.626C319.182 154.868 319.5 155.2 319.733 155.624C319.966 156.047 320.083 156.531 320.083 157.077C320.083 157.668 319.945 158.193 319.669 158.653C319.397 159.114 319.015 159.474 318.523 159.736C318.034 159.994 317.466 160.122 316.819 160.119ZM316.81 158.67C317.094 158.67 317.348 158.602 317.573 158.466C317.797 158.33 317.973 158.145 318.101 157.912C318.229 157.679 318.293 157.418 318.293 157.128C318.293 156.838 318.229 156.578 318.101 156.348C317.976 156.118 317.803 155.935 317.581 155.798C317.36 155.662 317.107 155.594 316.823 155.594C316.61 155.594 316.412 155.634 316.23 155.713C316.051 155.793 315.894 155.903 315.757 156.045C315.624 156.187 315.519 156.352 315.442 156.54C315.365 156.724 315.327 156.922 315.327 157.132C315.327 157.413 315.391 157.67 315.519 157.903C315.65 158.136 315.826 158.322 316.047 158.462C316.272 158.601 316.526 158.67 316.81 158.67ZM323.018 158.807L322.971 159.276C322.934 159.651 322.863 160.024 322.758 160.396C322.656 160.771 322.548 161.111 322.434 161.415C322.323 161.719 322.234 161.957 322.165 162.131H320.989C321.032 161.963 321.09 161.729 321.164 161.428C321.238 161.129 321.308 160.794 321.373 160.422C321.438 160.05 321.479 159.67 321.496 159.284L321.518 158.807H323.018ZM327.605 160.119C326.969 160.119 326.402 160.01 325.905 159.791C325.411 159.57 325.02 159.266 324.733 158.879C324.449 158.49 324.303 158.041 324.294 157.533H326.152C326.163 157.746 326.233 157.933 326.361 158.095C326.491 158.254 326.665 158.378 326.881 158.466C327.097 158.554 327.339 158.598 327.609 158.598C327.891 158.598 328.139 158.548 328.355 158.449C328.571 158.349 328.74 158.212 328.862 158.036C328.984 157.859 329.045 157.656 329.045 157.426C329.045 157.193 328.98 156.987 328.849 156.808C328.722 156.626 328.537 156.484 328.295 156.382C328.057 156.28 327.773 156.229 327.443 156.229H326.629V154.874H327.443C327.722 154.874 327.967 154.825 328.18 154.729C328.396 154.632 328.564 154.499 328.683 154.328C328.803 154.155 328.862 153.953 328.862 153.723C328.862 153.504 328.81 153.312 328.705 153.148C328.602 152.98 328.457 152.849 328.27 152.756C328.085 152.662 327.869 152.615 327.622 152.615C327.372 152.615 327.143 152.661 326.936 152.751C326.729 152.839 326.562 152.966 326.438 153.131C326.312 153.295 326.246 153.489 326.237 153.71H324.469C324.477 153.207 324.621 152.764 324.899 152.381C325.178 151.997 325.553 151.697 326.024 151.482C326.499 151.263 327.034 151.153 327.631 151.153C328.233 151.153 328.76 151.263 329.212 151.482C329.663 151.7 330.014 151.996 330.264 152.368C330.517 152.737 330.642 153.152 330.639 153.612C330.642 154.101 330.49 154.509 330.183 154.835C329.879 155.162 329.483 155.369 328.994 155.457V155.526C329.636 155.608 330.125 155.831 330.46 156.195C330.798 156.555 330.966 157.007 330.963 157.55C330.966 158.047 330.822 158.489 330.533 158.875C330.246 159.261 329.849 159.565 329.344 159.787C328.838 160.009 328.259 160.119 327.605 160.119ZM335.545 160.119C334.889 160.119 334.305 160.013 333.794 159.8C333.285 159.584 332.886 159.29 332.596 158.918C332.306 158.545 332.162 158.124 332.162 157.652C332.162 157.288 332.244 156.955 332.409 156.651C332.576 156.344 332.804 156.089 333.091 155.888C333.377 155.683 333.699 155.553 334.054 155.496V155.436C333.588 155.342 333.21 155.116 332.92 154.759C332.63 154.398 332.485 153.979 332.485 153.501C332.485 153.05 332.618 152.648 332.882 152.295C333.146 151.94 333.508 151.662 333.968 151.46C334.431 151.256 334.957 151.153 335.545 151.153C336.133 151.153 336.657 151.256 337.118 151.46C337.581 151.665 337.944 151.945 338.208 152.3C338.473 152.652 338.606 153.053 338.609 153.501C338.606 153.982 338.458 154.401 338.166 154.759C337.873 155.116 337.498 155.342 337.041 155.436V155.496C337.39 155.553 337.707 155.683 337.991 155.888C338.278 156.089 338.505 156.344 338.673 156.651C338.843 156.955 338.93 157.288 338.933 157.652C338.93 158.124 338.784 158.545 338.494 158.918C338.204 159.29 337.804 159.584 337.292 159.8C336.784 160.013 336.201 160.119 335.545 160.119ZM335.545 158.764C335.838 158.764 336.093 158.712 336.312 158.607C336.531 158.499 336.701 158.351 336.824 158.163C336.949 157.973 337.011 157.754 337.011 157.507C337.011 157.254 336.947 157.031 336.819 156.838C336.691 156.642 336.518 156.489 336.299 156.378C336.081 156.264 335.829 156.207 335.545 156.207C335.264 156.207 335.012 156.264 334.791 156.378C334.569 156.489 334.395 156.642 334.267 156.838C334.142 157.031 334.079 157.254 334.079 157.507C334.079 157.754 334.14 157.973 334.262 158.163C334.385 158.351 334.556 158.499 334.778 158.607C335 158.712 335.255 158.764 335.545 158.764ZM335.545 154.865C335.789 154.865 336.007 154.815 336.197 154.716C336.387 154.616 336.537 154.479 336.645 154.303C336.752 154.126 336.806 153.923 336.806 153.693C336.806 153.466 336.752 153.267 336.645 153.097C336.537 152.923 336.389 152.788 336.201 152.692C336.014 152.592 335.795 152.543 335.545 152.543C335.298 152.543 335.079 152.592 334.889 152.692C334.699 152.788 334.549 152.923 334.441 153.097C334.336 153.267 334.284 153.466 334.284 153.693C334.284 153.923 334.338 154.126 334.446 154.303C334.554 154.479 334.703 154.616 334.893 154.716C335.083 154.815 335.301 154.865 335.545 154.865ZM343.381 151.153C343.83 151.153 344.261 151.229 344.676 151.379C345.094 151.53 345.466 151.77 345.793 152.099C346.122 152.429 346.382 152.866 346.572 153.412C346.766 153.955 346.864 154.621 346.866 155.411C346.866 156.152 346.783 156.814 346.615 157.396C346.45 157.976 346.213 158.469 345.903 158.875C345.594 159.281 345.22 159.591 344.783 159.804C344.345 160.014 343.857 160.119 343.317 160.119C342.734 160.119 342.22 160.007 341.774 159.783C341.328 159.555 340.969 159.247 340.696 158.858C340.426 158.466 340.263 158.026 340.206 157.537H342.026C342.097 157.855 342.246 158.102 342.473 158.278C342.7 158.452 342.982 158.538 343.317 158.538C343.885 158.538 344.317 158.291 344.612 157.797C344.908 157.3 345.057 156.619 345.06 155.756H345C344.869 156.011 344.693 156.232 344.472 156.416C344.25 156.598 343.996 156.739 343.709 156.838C343.425 156.938 343.122 156.987 342.801 156.987C342.287 156.987 341.828 156.866 341.425 156.625C341.021 156.384 340.703 156.051 340.47 155.628C340.237 155.205 340.121 154.722 340.121 154.179C340.118 153.594 340.253 153.072 340.526 152.615C340.798 152.158 341.179 151.8 341.668 151.541C342.159 151.28 342.73 151.151 343.381 151.153ZM343.393 152.602C343.107 152.602 342.851 152.67 342.626 152.807C342.405 152.943 342.229 153.126 342.098 153.357C341.97 153.587 341.908 153.844 341.911 154.128C341.911 154.415 341.973 154.673 342.098 154.903C342.226 155.131 342.399 155.312 342.618 155.449C342.839 155.582 343.092 155.649 343.376 155.649C343.589 155.649 343.787 155.609 343.969 155.53C344.151 155.45 344.308 155.341 344.442 155.202C344.578 155.06 344.685 154.896 344.761 154.712C344.838 154.527 344.876 154.331 344.876 154.124C344.874 153.848 344.808 153.595 344.68 153.365C344.553 153.135 344.376 152.95 344.152 152.811C343.928 152.672 343.675 152.602 343.393 152.602Z" fill="white"/>
<path d="M306.126 139.636H307.038V142.679C307.038 142.96 306.975 143.205 306.849 143.412C306.724 143.619 306.55 143.779 306.327 143.891C306.104 144.004 305.844 144.06 305.549 144.06C305.286 144.06 305.048 144.013 304.833 143.921C304.62 143.827 304.451 143.685 304.326 143.495C304.201 143.303 304.139 143.062 304.141 142.773H305.059C305.062 142.888 305.085 142.987 305.129 143.069C305.175 143.15 305.237 143.212 305.315 143.256C305.394 143.299 305.488 143.32 305.596 143.32C305.71 143.32 305.805 143.296 305.884 143.248C305.963 143.198 306.023 143.126 306.065 143.031C306.106 142.935 306.126 142.818 306.126 142.679V139.636ZM308.717 144.062C308.509 144.062 308.322 144.026 308.159 143.953C307.996 143.879 307.866 143.771 307.771 143.627C307.678 143.482 307.631 143.302 307.631 143.086C307.631 142.904 307.664 142.751 307.731 142.628C307.798 142.504 307.888 142.405 308.004 142.33C308.119 142.254 308.249 142.197 308.396 142.159C308.543 142.121 308.698 142.094 308.86 142.078C309.05 142.058 309.204 142.04 309.32 142.023C309.437 142.004 309.521 141.977 309.574 141.942C309.626 141.906 309.653 141.854 309.653 141.784V141.771C309.653 141.636 309.61 141.532 309.525 141.458C309.441 141.384 309.322 141.347 309.167 141.347C309.004 141.347 308.874 141.384 308.777 141.456C308.68 141.527 308.616 141.616 308.585 141.724L307.746 141.656C307.788 141.457 307.872 141.286 307.997 141.141C308.122 140.994 308.283 140.882 308.481 140.804C308.68 140.724 308.91 140.685 309.171 140.685C309.353 140.685 309.527 140.706 309.693 140.749C309.861 140.791 310.009 140.857 310.138 140.947C310.269 141.036 310.372 141.151 310.447 141.292C310.523 141.431 310.56 141.598 310.56 141.793V144H309.7V143.546H309.674C309.621 143.648 309.551 143.739 309.463 143.817C309.375 143.893 309.269 143.954 309.146 143.998C309.022 144.04 308.879 144.062 308.717 144.062ZM308.977 143.435C309.111 143.435 309.229 143.409 309.331 143.357C309.433 143.303 309.513 143.23 309.572 143.139C309.63 143.048 309.659 142.945 309.659 142.83V142.483C309.631 142.501 309.592 142.518 309.542 142.534C309.494 142.548 309.439 142.562 309.378 142.575C309.317 142.586 309.256 142.597 309.195 142.607C309.134 142.615 309.078 142.623 309.028 142.63C308.922 142.646 308.829 142.67 308.749 142.705C308.67 142.739 308.608 142.785 308.564 142.843C308.52 142.9 308.498 142.971 308.498 143.056C308.498 143.18 308.543 143.274 308.632 143.339C308.723 143.403 308.838 143.435 308.977 143.435ZM312.172 142.108V144H311.265V140.727H312.13V141.305H312.168C312.24 141.114 312.362 140.964 312.532 140.853C312.703 140.741 312.909 140.685 313.152 140.685C313.38 140.685 313.578 140.734 313.747 140.834C313.916 140.933 314.047 141.075 314.141 141.26C314.235 141.443 314.282 141.662 314.282 141.916V144H313.374V142.078C313.375 141.878 313.324 141.722 313.221 141.609C313.117 141.496 312.974 141.439 312.792 141.439C312.67 141.439 312.562 141.465 312.468 141.518C312.376 141.57 312.304 141.647 312.251 141.748C312.2 141.847 312.174 141.967 312.172 142.108ZM316.377 144V143.335L317.93 141.897C318.063 141.769 318.173 141.654 318.263 141.552C318.354 141.45 318.423 141.349 318.469 141.251C318.516 141.152 318.54 141.045 318.54 140.93C318.54 140.802 318.511 140.692 318.452 140.599C318.394 140.506 318.315 140.434 318.214 140.384C318.113 140.333 317.999 140.308 317.871 140.308C317.737 140.308 317.621 140.335 317.521 140.388C317.422 140.442 317.345 140.52 317.291 140.621C317.237 140.722 317.21 140.842 317.21 140.981H316.335C316.335 140.695 316.399 140.447 316.528 140.237C316.658 140.027 316.839 139.864 317.072 139.749C317.305 139.634 317.573 139.577 317.877 139.577C318.19 139.577 318.462 139.632 318.693 139.743C318.926 139.852 319.107 140.004 319.237 140.199C319.366 140.393 319.43 140.616 319.43 140.868C319.43 141.033 319.398 141.195 319.332 141.356C319.268 141.516 319.154 141.695 318.989 141.891C318.825 142.085 318.592 142.319 318.293 142.592L317.656 143.216V143.246H319.488V144H316.377ZM322.055 139.636V144H321.132V140.512H321.107L320.107 141.138V140.32L321.188 139.636H322.055ZM323.853 143.403L323.829 143.638C323.811 143.825 323.775 144.012 323.723 144.198C323.672 144.386 323.618 144.555 323.561 144.707C323.505 144.859 323.461 144.979 323.426 145.065H322.838C322.86 144.982 322.889 144.864 322.926 144.714C322.963 144.565 322.998 144.397 323.03 144.211C323.063 144.025 323.083 143.835 323.092 143.642L323.103 143.403H323.853ZM325.858 144V143.335L327.411 141.897C327.543 141.769 327.654 141.654 327.743 141.552C327.834 141.45 327.903 141.349 327.95 141.251C327.997 141.152 328.02 141.045 328.02 140.93C328.02 140.802 327.991 140.692 327.933 140.599C327.875 140.506 327.795 140.434 327.694 140.384C327.593 140.333 327.479 140.308 327.351 140.308C327.218 140.308 327.101 140.335 327.002 140.388C326.902 140.442 326.826 140.52 326.772 140.621C326.718 140.722 326.691 140.842 326.691 140.981H325.815C325.815 140.695 325.88 140.447 326.009 140.237C326.138 140.027 326.319 139.864 326.552 139.749C326.785 139.634 327.054 139.577 327.358 139.577C327.67 139.577 327.942 139.632 328.174 139.743C328.407 139.852 328.588 140.004 328.717 140.199C328.846 140.393 328.911 140.616 328.911 140.868C328.911 141.033 328.878 141.195 328.813 141.356C328.749 141.516 328.635 141.695 328.47 141.891C328.305 142.085 328.073 142.319 327.773 142.592L327.136 143.216V143.246H328.968V144H325.858ZM331.348 144.096C330.981 144.094 330.666 144.004 330.402 143.825C330.139 143.646 329.937 143.387 329.795 143.048C329.654 142.708 329.584 142.3 329.586 141.822C329.586 141.347 329.656 140.941 329.797 140.606C329.939 140.271 330.141 140.016 330.404 139.841C330.668 139.665 330.983 139.577 331.348 139.577C331.713 139.577 332.027 139.665 332.29 139.841C332.554 140.017 332.757 140.273 332.899 140.608C333.041 140.942 333.111 141.347 333.11 141.822C333.11 142.301 333.039 142.71 332.897 143.05C332.756 143.389 332.555 143.648 332.292 143.827C332.029 144.006 331.714 144.096 331.348 144.096ZM331.348 143.331C331.598 143.331 331.797 143.205 331.947 142.954C332.096 142.702 332.17 142.325 332.168 141.822C332.168 141.491 332.134 141.216 332.066 140.996C331.999 140.776 331.904 140.61 331.78 140.499C331.658 140.388 331.514 140.333 331.348 140.333C331.099 140.333 330.9 140.457 330.751 140.706C330.602 140.955 330.527 141.327 330.525 141.822C330.525 142.158 330.559 142.438 330.626 142.662C330.694 142.885 330.79 143.053 330.913 143.165C331.037 143.276 331.182 143.331 331.348 143.331ZM333.768 144V143.335L335.321 141.897C335.453 141.769 335.564 141.654 335.653 141.552C335.744 141.45 335.813 141.349 335.86 141.251C335.907 141.152 335.93 141.045 335.93 140.93C335.93 140.802 335.901 140.692 335.843 140.599C335.785 140.506 335.705 140.434 335.604 140.384C335.504 140.333 335.389 140.308 335.261 140.308C335.128 140.308 335.011 140.335 334.912 140.388C334.813 140.442 334.736 140.52 334.682 140.621C334.628 140.722 334.601 140.842 334.601 140.981H333.725C333.725 140.695 333.79 140.447 333.919 140.237C334.048 140.027 334.229 139.864 334.462 139.749C334.695 139.634 334.964 139.577 335.268 139.577C335.58 139.577 335.852 139.632 336.084 139.743C336.317 139.852 336.498 140.004 336.627 140.199C336.756 140.393 336.821 140.616 336.821 140.868C336.821 141.033 336.788 141.195 336.723 141.356C336.659 141.516 336.545 141.695 336.38 141.891C336.215 142.085 335.983 142.319 335.683 142.592L335.046 143.216V143.246H336.879V144H333.768ZM339.222 144.06C338.997 144.058 338.781 144.021 338.572 143.947C338.365 143.873 338.178 143.753 338.014 143.587C337.849 143.42 337.718 143.2 337.622 142.926C337.526 142.652 337.479 142.315 337.479 141.916C337.48 141.55 337.522 141.222 337.605 140.934C337.688 140.644 337.808 140.398 337.963 140.197C338.119 139.995 338.306 139.842 338.523 139.737C338.74 139.63 338.984 139.577 339.254 139.577C339.545 139.577 339.802 139.634 340.025 139.747C340.248 139.859 340.427 140.012 340.562 140.205C340.698 140.398 340.781 140.615 340.809 140.855H339.899C339.864 140.703 339.789 140.584 339.676 140.497C339.562 140.411 339.421 140.367 339.254 140.367C338.97 140.367 338.754 140.491 338.606 140.738C338.46 140.985 338.385 141.321 338.382 141.746H338.412C338.477 141.616 338.566 141.506 338.676 141.415C338.789 141.323 338.916 141.253 339.058 141.205C339.201 141.155 339.352 141.13 339.512 141.13C339.77 141.13 340 141.191 340.202 141.313C340.404 141.434 340.563 141.6 340.679 141.812C340.796 142.023 340.854 142.266 340.854 142.538C340.854 142.834 340.785 143.097 340.647 143.327C340.511 143.557 340.32 143.737 340.074 143.868C339.83 143.997 339.546 144.061 339.222 144.06ZM339.218 143.335C339.36 143.335 339.487 143.301 339.599 143.233C339.711 143.165 339.799 143.072 339.863 142.956C339.927 142.839 339.959 142.709 339.959 142.564C339.959 142.419 339.927 142.289 339.863 142.174C339.801 142.059 339.714 141.967 339.603 141.899C339.492 141.831 339.366 141.797 339.224 141.797C339.117 141.797 339.019 141.817 338.928 141.857C338.838 141.896 338.759 141.952 338.691 142.023C338.624 142.094 338.572 142.176 338.534 142.27C338.495 142.362 338.476 142.461 338.476 142.566C338.476 142.707 338.508 142.835 338.572 142.952C338.637 143.068 338.725 143.161 338.836 143.231C338.948 143.3 339.075 143.335 339.218 143.335Z" fill="#D7D7D7"/>
<rect x="494.25" y="27.25" width="69.5" height="24.5" rx="5.75" stroke="#9F9F9F" stroke-width="0.5"/>
<defs>
<linearGradient id="paint0_linear_51_7" x1="300" y1="-4.47035e-07" x2="304.5" y2="354.5" gradientUnits="userSpaceOnUse">
<stop stop-color="#E5CFFF"/>
<stop offset="0.5" stop-color="white"/>
</linearGradient>
<linearGradient id="paint1_linear_51_7" x1="318" y1="119.209" x2="318" y2="310" gradientUnits="userSpaceOnUse">
<stop stop-color="#903FEE" stop-opacity="0.3"/>
<stop offset="1" stop-color="white"/>
</linearGradient>
<linearGradient id="paint2_linear_51_7" x1="323" y1="129" x2="323" y2="169" gradientUnits="userSpaceOnUse">
<stop stop-color="#5D5D5D"/>
<stop offset="1"/>
</linearGradient>
</defs>
</svg>
