<svg width="400" height="280" viewBox="0 0 400 280" fill="none" xmlns="http://www.w3.org/2000/svg">
<g clip-path="url(#clip0_55_642)">
<rect width="400" height="280" fill="url(#paint0_linear_55_642)"/>
<path d="M400 233.019H0.00292206V292.542H400V233.019Z" fill="#DDC0FF"/>
<path d="M93.5592 56.9727L132.335 56.9727V24.9998L93.5592 24.9998V56.9727Z" fill="#DDC0FF"/>
<path d="M112.947 56.9727L151.722 56.9727V24.9998L112.947 24.9998V56.9727Z" fill="#EDDDFF"/>
<path d="M93.5818 48.8627H99.726L99.1848 47.1337L99.726 45.8984H93.5818V48.8627Z" fill="#903FEE"/>
<path d="M112.947 34.8939H119.091L118.55 33.1649L119.091 31.9297H112.947V34.8939Z" fill="#E3F0FF"/>
<path d="M112.947 31.9297H106.803L107.344 33.6585L106.803 34.8939H112.947V31.9297Z" fill="#903FEE"/>
<path d="M151.723 49.2061H145.579L146.12 50.9351L145.579 52.1706H151.723V49.2061Z" fill="#E3F0FF"/>
<path d="M149.184 27.166H138.025V31.5069H149.184V27.166Z" fill="white"/>
<path d="M340.893 56.9707H366.744V35.6554H340.893V56.9707Z" fill="#DDC0FF"/>
<path d="M353.819 56.9707H379.669V35.6554H353.819V56.9707Z" fill="#EDDDFF"/>
<path d="M340.908 51.5653H345.005L344.644 50.4127L345.005 49.5889H340.908V51.5653Z" fill="#903FEE"/>
<path d="M353.819 42.2525H357.915L357.554 41.0999L357.915 40.2764H353.819V42.2525Z" fill="#E3F0FF"/>
<path d="M353.819 40.2764H349.722L350.083 41.429L349.722 42.2525H353.819V40.2764Z" fill="#903FEE"/>
<path d="M379.67 51.7939H375.573L375.934 52.9466L375.573 53.7701H379.67V51.7939Z" fill="#E3F0FF"/>
<path d="M377.976 37.1006H370.537V39.9946H377.976V37.1006Z" fill="white"/>
<path d="M284.141 56.9707L317.655 56.9707V29.3364L284.141 29.3364V56.9707Z" fill="#DDC0FF"/>
<path d="M300.898 56.9707L334.412 56.9707V29.3364L300.898 29.3364V56.9707Z" fill="#EDDDFF"/>
<path d="M284.16 49.9625H289.471L289.003 48.4682L289.471 47.4004H284.16V49.9625Z" fill="#903FEE"/>
<path d="M300.898 37.8883H306.208L305.741 36.394L306.208 35.3262H300.898V37.8883Z" fill="#E3F0FF"/>
<path d="M300.898 35.3262H295.587L296.055 36.8204L295.587 37.8883H300.898V35.3262Z" fill="#903FEE"/>
<path d="M334.412 50.2588H329.102L329.57 51.7531L329.102 52.8209H334.412V50.2588Z" fill="#E3F0FF"/>
<path d="M332.217 31.21H322.573V34.9621H332.217V31.21Z" fill="white"/>
<path d="M25.0818 56.9727L63.857 56.9727L63.857 24.9998L25.0818 24.9998L25.0818 56.9727Z" fill="#DDC0FF"/>
<path d="M44.4695 56.9727L83.245 56.9727V24.9998L44.4695 24.9998L44.4695 56.9727Z" fill="#EDDDFF"/>
<path d="M25.1043 48.8627H31.2486L30.7076 47.1337L31.2486 45.8984H25.1043V48.8627Z" fill="#903FEE"/>
<path d="M44.4694 34.8939H50.6137L50.0725 33.1649L50.6137 31.9297H44.4694V34.8939Z" fill="#E3F0FF"/>
<path d="M44.4694 31.9297H38.3252L38.8664 33.6585L38.3252 34.8939H44.4694V31.9297Z" fill="#903FEE"/>
<path d="M83.2458 49.2061H77.1013L77.6427 50.9351L77.1013 52.1706H83.2458V49.2061Z" fill="#E3F0FF"/>
<path d="M80.706 27.166H69.5478V31.5069H80.706V27.166Z" fill="white"/>
<path d="M14.9139 56.9717H-7.62939e-06V234.859H14.9139V56.9717Z" fill="#DDC0FF"/>
<path d="M175.909 56.9717H163.512V234.859H175.909V56.9717Z" fill="#DDC0FF"/>
<path d="M175.909 56.9717H14.9139V61.6014H175.909V56.9717Z" fill="#903FEE"/>
<path d="M175.909 141.285H14.9139V145.915H175.909V141.285Z" fill="#903FEE"/>
<path d="M175.909 212H14.9139V216.629H175.909V212Z" fill="#903FEE"/>
<path d="M96.2442 141.286H136.333V108.23H96.2442V141.286Z" fill="#DDC0FF"/>
<path d="M116.289 141.286H156.377V108.23H116.289V141.286Z" fill="#EDDDFF"/>
<path d="M96.2674 132.902H102.62L102.06 131.114L102.62 129.837H96.2674V132.902Z" fill="#903FEE"/>
<path d="M116.289 118.459H122.641L122.081 116.672L122.641 115.395H116.289V118.459Z" fill="#E3F0FF"/>
<path d="M116.289 115.395H109.936L110.496 117.182L109.936 118.459H116.289V115.395Z" fill="#903FEE"/>
<path d="M156.378 133.258H150.026L150.585 135.045L150.026 136.323H156.378V133.258Z" fill="#E3F0FF"/>
<path d="M153.753 110.471H142.217V114.959H153.753V110.471Z" fill="white"/>
<path d="M44.7973 141.286H84.886V108.23H44.7973L44.7973 141.286Z" fill="#DDC0FF"/>
<path d="M64.8417 141.286H104.93V108.23H64.8417V141.286Z" fill="#EDDDFF"/>
<path d="M44.8205 132.902H51.1731L50.6134 131.114L51.1731 129.837H44.8205V132.902Z" fill="#903FEE"/>
<path d="M64.8416 118.459H71.1939L70.6344 116.672L71.1939 115.395H64.8416V118.459Z" fill="#E3F0FF"/>
<path d="M64.8416 115.395H58.4893L59.0488 117.182L58.4893 118.459H64.8416V115.395Z" fill="#903FEE"/>
<path d="M104.931 133.258H98.579L99.1385 135.045L98.579 136.323H104.931V133.258Z" fill="#E3F0FF"/>
<path d="M104.931 114.959H98.579L99.1385 116.747L98.579 118.024H104.931V114.959Z" fill="#E3F0FF"/>
<path d="M87.6933 130.431H68.8906V137.746H87.6933V130.431Z" fill="white"/>
<path d="M96.2443 211.895H130.893V183.324H96.2443V211.895Z" fill="#DDC0FF"/>
<path d="M113.569 211.895H148.218V183.324H113.569V211.895Z" fill="#EDDDFF"/>
<path d="M96.2642 204.649H101.755L101.271 203.104L101.755 202H96.2642V204.649Z" fill="#903FEE"/>
<path d="M113.569 192.165H119.059L118.575 190.62L119.059 189.516H113.569V192.165Z" fill="#E3F0FF"/>
<path d="M113.569 189.516H108.078L108.562 191.061L108.078 192.165H113.569V189.516Z" fill="#903FEE"/>
<path d="M148.219 204.956H142.728L143.212 206.501L142.728 207.605H148.219V204.956Z" fill="#E3F0FF"/>
<path d="M145.949 185.26H135.978V189.139H145.949V185.26Z" fill="white"/>
<path d="M30.4375 211.894H70.5262V178.838H30.4375L30.4375 211.894Z" fill="#DDC0FF"/>
<path d="M50.482 211.894H90.5708V178.838H50.482L50.482 211.894Z" fill="#EDDDFF"/>
<path d="M30.4607 203.51H36.8133L36.2535 201.723L36.8133 200.445H30.4607V203.51Z" fill="#903FEE"/>
<path d="M50.4817 189.068H56.8341L56.2748 187.28L56.8341 186.003H50.4817V189.068Z" fill="#618DC1"/>
<path d="M50.4817 186.003H44.1294L44.6889 187.791L44.1294 189.068H50.4817V186.003Z" fill="#903FEE"/>
<path d="M90.5717 203.866H84.2191L84.7786 205.654L84.2191 206.931H90.5717V203.866Z" fill="#618DC1"/>
<path d="M87.946 181.08H76.4097V185.568H87.946V181.08Z" fill="white"/>
<path d="M41.7209 108.078H72.3688V82.8071H41.7209V108.078Z" fill="#DDC0FF"/>
<path d="M57.0449 108.078H87.6925V82.8071H57.0449V108.078Z" fill="#EDDDFF"/>
<path d="M41.7389 101.67H46.5953L46.1677 100.304L46.5953 99.3271H41.7389V101.67Z" fill="#903FEE"/>
<path d="M57.045 90.6282H61.9014L61.4735 89.2616L61.9014 88.2852H57.045V90.6282Z" fill="#E3F0FF"/>
<path d="M57.045 88.2852H52.1886L52.6162 89.6518L52.1886 90.6282H57.045V88.2852Z" fill="#903FEE"/>
<path d="M87.6933 101.94H82.8369L83.2648 103.307L82.8369 104.284H87.6933V101.94Z" fill="#E3F0FF"/>
<path d="M85.6862 84.5215H76.8667V87.9527H85.6862V84.5215Z" fill="white"/>
<path d="M96.4787 108.078H127.126V82.8071H96.4787V108.078Z" fill="#DDC0FF"/>
<path d="M111.803 108.078H142.45V82.8071H111.803V108.078Z" fill="#EDDDFF"/>
<path d="M96.4967 101.67H101.353L100.925 100.304L101.353 99.3271H96.4967V101.67Z" fill="#903FEE"/>
<path d="M111.803 90.6282H116.659L116.231 89.2616L116.659 88.2852H111.803V90.6282Z" fill="#E3F0FF"/>
<path d="M111.803 88.2852H106.946L107.374 89.6518L106.946 90.6282H111.803V88.2852Z" fill="#903FEE"/>
<path d="M142.451 101.94H137.594L138.022 103.307L137.594 104.284H142.451V101.94Z" fill="#E3F0FF"/>
<path d="M140.444 84.5215H131.624V87.9527H140.444V84.5215Z" fill="white"/>
<path d="M75.4311 159.666H52.202V178.82H75.4311V159.666Z" fill="#ED823A"/>
<path d="M63.8164 159.666H40.5873V178.82H63.8164V159.666Z" fill="#FF9E55"/>
<path d="M75.4175 173.962H71.7366L72.0609 172.927L71.7366 172.187H75.4175V173.962Z" fill="#DD732C"/>
<path d="M63.8164 165.594H60.1357L60.46 164.559L60.1357 163.818H63.8164V165.594Z" fill="#FFB27D"/>
<path d="M63.8164 163.818H67.4973L67.173 164.854L67.4973 165.594H63.8164V163.818Z" fill="#DD732C"/>
<path d="M40.5868 174.168H44.2677L43.9435 175.204L44.2677 175.944H40.5868V174.168Z" fill="#FFB27D"/>
<path d="M42.1081 163.565H48.7928V160.965H42.1081V163.565Z" fill="white"/>
<path d="M51.4593 56.9717H14.9139V93.5171H51.4593V56.9717Z" fill="white"/>
<path d="M49.507 58.9238H16.8662V91.5645H49.507V58.9238Z" fill="#FF9E55"/>
<path d="M238.935 56.9717H225.296V234.859H238.935V56.9717Z" fill="#DDC0FF"/>
<path d="M399.931 56.9717H386.692V234.859H399.931V56.9717Z" fill="#DDC0FF"/>
<path d="M399.931 56.9717H238.935V61.1436H399.931V56.9717Z" fill="#903FEE"/>
<path d="M399.931 141.285H238.935V145.915H399.931V141.285Z" fill="#903FEE"/>
<path d="M399.931 212H238.935V217.514H399.931V212Z" fill="#903FEE"/>
<path d="M320.265 141.286H360.354V108.23H320.265V141.286Z" fill="#DDC0FF"/>
<path d="M340.31 141.286H380.398V108.23H340.31V141.286Z" fill="#EDDDFF"/>
<path d="M320.289 132.902H326.641L326.081 131.114L326.641 129.837H320.289V132.902Z" fill="#903FEE"/>
<path d="M340.31 118.459H346.662L346.102 116.672L346.662 115.395H340.31V118.459Z" fill="#E3F0FF"/>
<path d="M340.31 115.395H333.957L334.517 117.182L333.957 118.459H340.31V115.395Z" fill="#903FEE"/>
<path d="M380.399 133.258H374.047L374.607 135.045L374.047 136.323H380.399V133.258Z" fill="#E3F0FF"/>
<path d="M377.774 110.471H366.237V114.959H377.774V110.471Z" fill="white"/>
<path d="M268.818 141.286H308.907V108.23H268.818V141.286Z" fill="#DDC0FF"/>
<path d="M288.863 141.286H328.951V108.23H288.863V141.286Z" fill="#EDDDFF"/>
<path d="M268.842 132.902H275.194L274.635 131.114L275.194 129.837H268.842V132.902Z" fill="#903FEE"/>
<path d="M288.863 118.459H295.215L294.656 116.672L295.215 115.395H288.863V118.459Z" fill="#903FEE"/>
<path d="M288.863 115.395H282.51L283.07 117.182L282.51 118.459H288.863V115.395Z" fill="#903FEE"/>
<path d="M328.952 133.258H322.6L323.16 135.045L322.6 136.323H328.952V133.258Z" fill="#903FEE"/>
<path d="M307.52 131.723H292.039V137.745H307.52V131.723Z" fill="white"/>
<path d="M261.338 211.895H295.42V183.793H261.338V211.895Z" fill="#DDC0FF"/>
<path d="M278.379 211.895H312.46V183.793H278.379V211.895Z" fill="#EDDDFF"/>
<path d="M261.358 204.769H266.759L266.283 203.249L266.759 202.163H261.358V204.769Z" fill="#903FEE"/>
<path d="M278.379 192.489H283.779L283.304 190.97L283.779 189.884H278.379V192.489Z" fill="#E3F0FF"/>
<path d="M278.379 189.884H272.979L273.454 191.404L272.979 192.489H278.379V189.884Z" fill="#903FEE"/>
<path d="M312.461 205.069H307.06L307.536 206.589L307.06 207.675H312.461V205.069Z" fill="#E3F0FF"/>
<path d="M310.229 185.698H300.421V189.514H310.229V185.698Z" fill="white"/>
<path d="M316.595 211.894H350.76V183.722H316.595V211.894Z" fill="#DDC0FF"/>
<path d="M333.678 211.894H367.843V183.722H333.678V211.894Z" fill="#EDDDFF"/>
<path d="M316.615 204.749H322.029L321.552 203.225L322.029 202.137H316.615V204.749Z" fill="#903FEE"/>
<path d="M333.677 192.441H339.091L338.614 190.917L339.091 189.829H333.677V192.441Z" fill="#E3F0FF"/>
<path d="M333.677 189.829H328.264L328.741 191.352L328.264 192.441H333.677V189.829Z" fill="#903FEE"/>
<path d="M367.843 205.052H362.43L362.907 206.575L362.43 207.664H367.843V205.052Z" fill="#E3F0FF"/>
<path d="M365.606 185.633H355.774V189.458H365.606V185.633Z" fill="white"/>
<path d="M265.72 108.273H296.368V83.0024H265.72V108.273Z" fill="#DDC0FF"/>
<path d="M281.044 108.273H311.692V83.0024H281.044V108.273Z" fill="#EDDDFF"/>
<path d="M265.738 101.866H270.595L270.167 100.499L270.595 99.5225H265.738V101.866Z" fill="#903FEE"/>
<path d="M281.044 90.8233H285.901L285.473 89.4569L285.901 88.4805H281.044V90.8233Z" fill="#E3F0FF"/>
<path d="M281.044 88.4805H276.188L276.616 89.8469L276.188 90.8233H281.044V88.4805Z" fill="#903FEE"/>
<path d="M311.693 102.136H306.836L307.264 103.502L306.836 104.479H311.693V102.136Z" fill="#E3F0FF"/>
<path d="M309.685 84.7168H300.866V88.148H309.685V84.7168Z" fill="white"/>
<path d="M352.269 89.0986H329.04V108.253H352.269V89.0986Z" fill="#ED823A"/>
<path d="M340.655 89.0986H317.426V108.253H340.655V89.0986Z" fill="#FF9E55"/>
<path d="M352.256 103.394H348.575L348.899 102.358L348.575 101.618H352.256V103.394Z" fill="#DD732C"/>
<path d="M340.655 95.0257H336.974L337.298 93.99L336.974 93.25H340.655V95.0257Z" fill="#FFB27D"/>
<path d="M340.655 93.25H344.336L344.011 94.2857L344.336 95.0257H340.655V93.25Z" fill="#DD732C"/>
<path d="M317.425 103.601H321.106L320.782 104.636L321.106 105.376H317.425V103.601Z" fill="#FFB27D"/>
<path d="M318.946 92.9971H325.631V90.3966H318.946V92.9971Z" fill="white"/>
<path d="M275.48 56.9717H238.935V93.5171H275.48V56.9717Z" fill="white"/>
<path d="M273.528 58.9238H240.887V91.5645H273.528V58.9238Z" fill="#FF9E55"/>
<path d="M266.58 150.784C266.58 150.784 265.019 147.494 266.242 145.469C267.465 143.444 272.317 143.317 272.317 143.317C272.317 143.317 271.895 143.55 271.874 143.76C271.853 143.971 273.266 143.212 274.236 144.92C275.206 146.629 275.16 148.228 274.129 150.592C273.097 152.957 266.58 150.784 266.58 150.784Z" fill="#903FEE"/>
<path d="M290.967 183.646C290.029 183.863 285.793 183.914 282.819 183.246C282.199 183.107 281.632 182.937 281.163 182.73C280.603 182.483 280.181 182.184 279.965 181.825C279.629 181.264 279.014 179.348 278.291 176.833C276.299 169.908 273.496 158.464 273.496 158.464C273.496 158.464 279.124 159.612 280.315 160.593C281.507 161.574 282.558 177.13 283.678 177.55C283.843 177.612 284.128 177.743 284.493 177.922C284.511 177.931 284.529 177.94 284.547 177.948C284.764 178.056 285.009 178.18 285.274 178.316C287.598 179.51 290.975 181.742 291.842 182.14C292.588 182.483 292.333 183.331 290.967 183.646Z" fill="#FF9E55"/>
<path d="M280.167 167.32C280.167 167.056 280.141 166.791 280.092 166.525C279.368 162.542 273.609 158.545 273.496 158.545L273.495 158.547C273.495 159.156 272.535 160.279 271.058 160.376C269.304 160.49 267.153 159.618 267.153 158.608C267.143 158.608 266.156 158.612 265.825 158.649C264.42 158.809 261.616 159.568 260.415 160.476C259.272 161.339 260.886 166.78 261.886 170.633C262.31 172.264 262.622 173.609 262.57 174.205C262.545 174.496 262.284 178.451 262.05 182.029C261.857 184.98 261.682 187.674 261.677 187.843C261.665 188.179 263.332 189.353 266.131 190.24C266.806 190.454 267.549 190.652 268.35 190.816C269.787 191.111 271.412 191.301 273.18 191.295C273.758 191.293 274.306 191.263 274.823 191.212C278.821 190.82 280.19 186.264 280.167 167.32Z" fill="#FF9E55"/>
<path d="M290.974 183.638C290.839 183.672 290.654 183.689 290.418 183.723C289.661 183.79 288.432 183.807 287.068 183.757C284.997 183.655 282.624 183.369 281.159 182.73C281.866 180.036 283.347 178.655 284.543 177.948C285.57 178.453 287.203 179.312 288.668 180.153H288.684C290.25 181.029 291.383 181.987 291.849 182.14C292.621 182.394 292.337 183.335 290.974 183.638Z" fill="#FFB27D"/>
<path d="M267.142 158.434C267.108 156.887 267.134 155.04 267.343 153.479L273.517 154.488C273.517 154.488 273.517 156.372 273.489 158.463C273.493 158.463 273.496 158.464 273.496 158.464C273.496 158.464 273.664 160.403 271.275 160.687C268.887 160.971 267.078 159.93 267.142 158.434Z" fill="#FFB27D"/>
<path d="M272.307 240.433C271.531 239.955 271.987 236.414 271.987 236.414C271.987 236.414 275.623 233.528 276.113 235.75C276.603 237.972 279.545 238.98 281.22 239.258C282.377 239.45 282.733 240.093 282.842 240.472L272.307 240.433Z" fill="#903FEE"/>
<path d="M261.166 240.433C260.389 239.955 260.846 236.414 260.846 236.414C260.846 236.414 264.481 233.528 264.972 235.75C265.462 237.972 268.404 238.98 270.079 239.258C271.236 239.45 271.592 240.093 271.701 240.472L261.166 240.433Z" fill="#903FEE"/>
<path d="M261.677 187.843C261.665 188.178 263.331 189.352 266.13 190.239C266.356 190.311 266.59 190.38 266.83 190.447C266.833 190.448 266.835 190.45 266.835 190.454C267.096 193.517 267.803 197.845 268.441 202.022C268.441 202.022 268.441 202.022 268.441 202.022C268.606 203.105 268.765 204.177 268.913 205.215C269.301 207.96 269.593 210.461 269.624 212.262V212.281C269.638 213.107 268.941 215.168 268.888 215.644C268.856 215.936 268.83 216.244 268.81 216.566C268.735 217.856 268.765 219.38 268.869 221.007C269.326 228.108 271.203 237.193 271.872 237.58C273.203 238.349 275.624 237.579 276.855 237.399C277.365 237.324 277.773 236.889 277.746 236.375C277.145 224.591 278.872 208.178 280.163 198.089C280.196 197.826 280.23 197.569 280.263 197.316C280.417 196.126 280.519 195.015 280.583 194.013C280.642 193.134 280.67 192.337 280.683 191.645C280.686 191.43 280.688 191.224 280.689 191.029C280.692 190.398 280.19 186.263 280.167 167.319C280.166 166.882 279.808 166.523 279.37 166.523H267.786C266.666 166.523 265.766 167.44 265.78 168.559C265.798 170.004 265.746 172.022 265.432 173.947C265.004 176.578 264.088 179.035 262.199 179.626C262.197 179.627 262.195 179.628 262.194 179.63C262.186 179.649 262.134 179.764 262.051 179.956C262.051 179.957 262.05 179.958 262.05 179.959C262.032 180.435 262.012 180.919 261.991 181.412C261.986 181.511 261.982 181.611 261.977 181.711C261.975 181.77 261.972 181.827 261.969 181.886C261.964 181.986 261.959 182.087 261.954 182.188C261.946 182.354 261.938 182.521 261.929 182.69C261.921 182.823 261.914 182.955 261.906 183.089C261.893 183.345 261.877 183.605 261.86 183.867C261.856 183.951 261.851 184.034 261.845 184.119C261.823 184.457 261.8 184.801 261.773 185.147C261.766 185.253 261.757 185.359 261.749 185.466C261.746 185.518 261.741 185.57 261.737 185.621C261.727 185.756 261.716 185.892 261.705 186.029C261.693 186.173 261.68 186.318 261.668 186.464C261.623 186.995 261.691 187.47 261.677 187.843Z" fill="#903FEE"/>
<path d="M268.87 221.008C269.327 228.109 271.203 237.195 271.873 237.582C273.203 238.351 275.625 237.58 276.856 237.401C277.365 237.325 277.773 236.891 277.747 236.377C277.146 224.592 278.873 208.18 280.163 198.091C280.197 197.828 280.23 197.57 280.263 197.317C280.418 196.127 280.519 195.016 280.583 194.015C279.97 190.014 276.505 189.8 273.364 198.075C273.753 200.82 269.624 210.411 269.624 212.263V212.282C269.638 213.108 268.941 215.17 268.888 215.646C268.856 215.937 268.829 216.245 268.81 216.567C268.735 217.857 268.766 219.381 268.87 221.008Z" fill="#903FEE"/>
<path d="M261.547 211.929C261.452 212.75 260.491 214.702 260.376 215.167C258.788 221.554 259.665 236.699 260.452 237.305C261.671 238.242 264.173 237.796 265.416 237.78C265.932 237.772 266.393 237.395 266.434 236.882C267.411 224.815 271.458 208.241 274.06 198.491C275.37 193.581 275.556 189.969 275.556 189.969C275.556 189.969 263.393 182.518 262.078 186.588C260.914 190.191 262.281 205.626 261.547 211.929Z" fill="#903FEE"/>
<path d="M265.409 158.705C265.409 158.705 268.993 162.881 269.204 166.525H267.382C267.382 166.525 266.917 162.563 264.22 158.955L265.409 158.705Z" fill="#903FEE"/>
<path d="M274.32 158.696C276.887 162.582 277.192 166.525 277.192 166.525H279.014C278.862 163.661 277.081 160.61 276.087 159.118H276.086C275.41 158.929 274.786 158.791 274.32 158.696Z" fill="#903FEE"/>
<path d="M262.54 181.122C262.63 185.398 262.097 193.912 262.097 193.912H259.575C258.384 187.921 257.964 184.067 257.964 181.965C257.964 181.551 257.966 181.165 257.969 180.809C257.985 179.014 258.033 177.971 258.033 177.971C257.56 167.093 259.733 161.277 260.415 160.476C261.098 159.675 264.22 158.955 264.22 158.955C264.22 158.955 265.251 161.96 265.671 164.377C266.092 166.795 262.365 176.952 262.518 180.424C262.527 180.641 262.535 180.874 262.54 181.122Z" fill="#FF9E55"/>
<path d="M262.387 188.201C262.269 191.281 262.101 193.908 262.101 193.908H259.576C259.138 191.77 258.818 189.901 258.566 188.301C258.128 185.389 257.959 183.318 257.959 181.971C257.959 181.55 257.959 181.163 257.976 180.809C258.902 180.607 260.518 180.473 262.539 181.129C262.572 183.032 262.488 185.759 262.387 188.201Z" fill="#FFB27D"/>
<path d="M263.885 197.073C263.919 197.763 260.905 199.346 259.996 198.925C259.087 198.504 259.054 196.113 259.575 193.908C260.097 191.702 262.1 193.908 262.1 193.908C262.1 193.908 263.851 196.366 263.885 197.073Z" fill="#FFB27D"/>
<path d="M296.832 183.723H290.418L291.849 182.14C291.849 182.14 293.499 182.477 294.576 182.14C295.654 181.803 296.832 183.723 296.832 183.723Z" fill="#FFB27D"/>
<path d="M267.193 155.075C267.193 155.075 268.722 156.884 270.354 156.887C272.388 156.892 273.496 154.935 273.496 154.935L267.193 155.075Z" fill="#ED975D"/>
<path d="M273.333 155.09C272.733 155.562 270.974 156.031 270.466 156.086C270.466 156.086 267.858 155.504 267.384 155.218C266.649 154.773 266.697 153.872 266.659 152.62C266.614 151.137 266.465 149.973 266.63 149.118C266.827 148.095 267.475 147.514 269.29 147.356C272.622 147.067 274.01 147.901 274.068 149.018C274.083 149.318 274.097 149.604 274.107 149.875C274.24 153.358 273.964 154.594 273.333 155.09Z" fill="#FFB27D"/>
<path d="M266.58 150.784C266.58 150.784 266.305 147.81 268.056 147.81C269.807 147.81 272.169 150.046 273.224 148.611C274.278 147.177 274.129 150.592 274.129 150.592L274.236 146.017L267.486 145.764L266.073 146.818L266.58 150.784Z" fill="#903FEE"/>
<path d="M367.452 171.562H346.405V188.916H367.452V171.562Z" fill="#D8702A"/>
<path d="M356.929 171.562H335.882V188.916H356.929V171.562Z" fill="#FF9E55"/>
<path d="M367.44 184.514H364.105L364.399 183.576L364.105 182.905H367.44V184.514Z" fill="#C15E1B"/>
<path d="M356.929 176.932H353.594L353.887 175.994L353.594 175.323H356.929V176.932Z" fill="#FFB27D"/>
<path d="M356.929 175.323H360.264L359.97 176.262L360.264 176.932H356.929V175.323Z" fill="#C15E1B"/>
<path d="M335.882 184.701H339.217L338.923 185.64L339.217 186.31H335.882V184.701Z" fill="#FFB27D"/>
<path d="M337.26 175.095H343.317V172.739H337.26V175.095Z" fill="white"/>
<path d="M345.811 188.178C345.3 187.846 344.142 187.117 344.09 187.291C344.052 187.417 344.121 187.625 344.264 187.838C343.572 187.61 342.873 187.469 341.247 187.848C340.922 187.923 340.632 188.121 340.462 188.409C340.305 188.676 340.255 189.003 340.683 189.247C341.539 189.734 341.285 189.432 342.476 190.144C343.667 190.857 345.097 190.994 345.926 190.43L347.059 190.196L347.128 188.315C347.128 188.315 346.475 188.263 345.811 188.178Z" fill="#FFB27D"/>
<path d="M375.312 168.807C375.312 168.807 372.08 171.449 368.958 169.505C368.958 169.505 368.562 167.617 368.794 166.323C368.823 166.164 368.849 166.01 368.875 165.863C369.129 164.405 369.233 163.579 369.233 163.579C369.233 163.579 369.234 163.579 369.237 163.579C369.402 163.544 374.782 162.43 374.745 162.6C373.922 166.517 375.312 168.807 375.312 168.807Z" fill="#FFB27D"/>
<path d="M374.068 163.444C373.419 164.247 371.439 165.684 368.874 165.863C369.129 164.405 369.233 163.58 369.233 163.58C369.233 163.58 369.234 163.58 369.237 163.58C369.382 163.569 374.261 163.208 374.068 163.444Z" fill="#ED975D"/>
<path d="M368.215 163.232C368.215 163.232 373.585 165.605 375.012 162.239C376.439 158.872 378.092 156.911 374.725 155.253C371.357 153.595 370.142 154.596 369.392 155.604C368.643 156.611 366.855 162.527 368.215 163.232Z" fill="#FFB27D"/>
<path d="M374.64 163.161C374.708 163.224 375.847 163.822 378.991 159.691C379.484 159.043 380.019 157.54 379.438 156.015C378.857 154.49 376.089 152.857 373.709 151.926C371.329 150.996 370.477 152.273 369.634 153.559C368.749 154.91 366.762 155.785 366.762 155.785C368.667 157.373 371.549 156.153 372.384 156.6C373.219 157.046 373.27 158.504 373.253 158.965C373.235 159.426 373.268 159.818 374.459 159.626C375.651 159.435 374.668 161.303 374.418 161.649C374.418 161.649 374.077 162.63 374.64 163.161Z" fill="#A9453D"/>
<path d="M382.858 252.834H386.318C387.044 252.834 387.85 252.107 388.051 250.778C388.253 249.447 389.744 248.721 390.067 247.633C390.39 246.544 388.736 245.012 388.736 245.012L388.46 244.656L388.173 244.286L385.431 244.931C385.431 244.931 385.364 245.584 385.321 246.415C385.292 247.015 385.276 247.709 385.31 248.318C385.391 249.769 384.903 251.332 383.614 251.615C382.324 251.898 382.858 252.834 382.858 252.834Z" fill="#2C3A64"/>
<path d="M358.767 252.834H367.94C368.028 252.817 368.094 252.798 368.134 252.778C368.747 252.471 368.555 250.126 368.481 249.402C368.467 249.268 368.457 249.189 368.457 249.189C368.457 249.189 365.232 246.609 364.788 248.585C364.774 248.646 364.757 248.707 364.74 248.766V248.767C364.18 250.616 361.677 251.455 360.231 251.689C359.127 251.869 358.841 252.512 358.767 252.834Z" fill="#2C3A64"/>
<path d="M360.616 199.936C360.616 199.936 361.106 206.047 361.682 213.394C362.464 223.374 363.405 235.633 363.498 237.955C363.659 241.988 364.305 248.438 364.305 248.438C364.305 248.438 365.836 249.971 368.901 249.325C368.901 249.325 371.633 240.116 372.413 230.373C372.425 230.214 372.437 230.053 372.449 229.892C373.175 219.974 374.303 199.089 374.303 199.089L360.616 199.936Z" fill="#FF9E55"/>
<path d="M362.441 199.529C362.441 199.529 362.124 203.342 363.888 210.497C365.182 215.747 372.413 230.373 372.413 230.373C372.425 230.214 372.437 230.053 372.449 229.892C373.174 219.974 374.303 199.089 374.303 199.089L362.441 199.529Z" fill="#ED823A"/>
<path d="M362.441 199.529C362.441 199.529 371.682 222.797 377.488 233.199C383.294 243.601 385.108 246.504 385.108 246.504C385.108 246.504 388.435 245.173 388.737 244.266C388.737 244.266 386.517 224.185 382.629 219.289C380.432 216.523 377.851 208.222 377.73 205.319C377.609 202.416 376.944 196.671 376.944 196.671L362.441 199.529Z" fill="#FF9E55"/>
<path d="M361.976 199.09C363.27 199.168 376.913 198.652 376.916 197.89C376.929 195.24 377.483 190.95 378.174 185.74C378.301 184.769 378.401 183.805 378.474 182.853C378.665 180.373 378.674 177.985 378.489 175.827C378.146 171.819 376.443 168.587 374.707 167.08C374.479 166.89 373.638 167.528 372.227 168.1C370.924 168.628 369.893 168.249 368.721 167.922L367.224 169.24C365.978 170.401 364.643 172.171 363.993 173.766C363.993 173.766 361.861 199.082 361.976 199.09Z" fill="#903FEE"/>
<path d="M363.993 173.766L367.719 174.632L372.848 188.521C373.584 190.516 375.485 191.84 377.612 191.84L377.162 198.696L360.616 199.936L363.993 173.766Z" fill="#FF9E55"/>
<path d="M346.122 189.23C346.005 188.145 346.561 187.943 346.561 187.943C346.561 187.943 357.545 185.51 358.474 185.178C359.403 184.846 367.12 176.17 367.12 176.17C367.12 176.17 370.067 172.575 372.62 173.245C374.839 173.827 375.762 175.505 376.117 177.123C376.54 179.051 375.721 181.04 374.079 182.137C370.394 184.598 363.013 189.452 361.254 190.043C357.337 191.358 346.653 190.701 346.653 190.701C346.653 190.701 346.215 190.083 346.122 189.23Z" fill="#903FEE"/>
<path d="M371.581 170.609C372.449 169.803 375.231 167.589 375.231 167.589L374.707 167.08C374.336 167.002 371.46 169.165 370.503 170.017C369.35 171.044 366.15 174.398 366.15 174.398L367.72 174.632C367.719 174.632 370.56 171.558 371.581 170.609Z" fill="#ED823A"/>
<path d="M120.5 259.545H123.366V209.092H120.5V259.545Z" fill="#FF9E55"/>
<path d="M115.089 211.437H122.216C123.378 211.437 124.321 210.494 124.321 209.332C124.321 208.17 123.378 207.228 122.216 207.228H115.089C113.927 207.228 112.985 208.17 112.985 209.332C112.985 210.494 113.927 211.437 115.089 211.437Z" fill="#903FEE"/>
<path d="M123.366 234.317C123.713 234.348 138.819 243.28 138.819 243.28V256.313H123.105L123.366 234.317Z" fill="#FF9E55"/>
<path d="M211.432 260.158C211.432 257.8 209.521 255.889 207.163 255.889C204.805 255.889 202.893 257.8 202.893 260.158C202.893 262.516 204.805 264.428 207.163 264.428C209.521 264.428 211.432 262.516 211.432 260.158Z" fill="#903FEE"/>
<path d="M209.837 260.157C209.837 258.681 208.64 257.483 207.163 257.483C205.686 257.483 204.489 258.681 204.489 260.157C204.489 261.635 205.686 262.832 207.163 262.832C208.64 262.832 209.837 261.635 209.837 260.157Z" fill="#183E7A"/>
<path d="M120.5 259.545H213.225V255.706H120.5V259.545Z" fill="#FF9E55"/>
<path d="M130.168 257.625C130.168 253.868 127.122 250.822 123.365 250.822C119.609 250.822 116.563 253.868 116.563 257.625C116.563 261.382 119.609 264.427 123.365 264.427C127.122 264.427 130.168 261.382 130.168 257.625Z" fill="#903FEE"/>
<path d="M127.626 257.624C127.626 255.271 125.719 253.363 123.365 253.363C121.012 253.363 119.105 255.271 119.105 257.624C119.105 259.977 121.012 261.885 123.365 261.885C125.719 261.885 127.626 259.978 127.626 257.624Z" fill="#183E7A"/>
<path d="M117.256 204.796C117.256 204.796 120.533 206.098 120.707 206.706C120.881 207.314 120.881 209.658 120.012 209.658C119.144 209.658 118.232 207.661 117.842 207.618C117.451 207.574 116.366 207.314 116.236 206.836C116.106 206.359 117.256 204.796 117.256 204.796Z" fill="#FFB27D"/>
<path d="M117.357 205.748C117.826 204.762 117.367 204.387 117.367 204.387C117.367 204.387 107.798 198.472 107.031 197.852C106.263 197.233 101.835 186.499 101.835 186.499C101.835 186.499 100.236 182.134 97.605 181.925C95.3184 181.744 93.8941 183.024 93.0258 184.435C91.9912 186.116 92.1098 188.264 93.2986 189.84C95.9672 193.378 101.337 200.393 102.804 201.53C106.068 204.062 116.372 206.962 116.372 206.962C116.372 206.962 116.989 206.522 117.357 205.748Z" fill="#1F437C"/>
<path d="M98.1629 263.701H88.9898C88.902 263.684 88.8356 263.665 88.7951 263.645C88.1827 263.338 88.3744 260.993 88.4479 260.269C88.4622 260.135 88.4722 260.056 88.4722 260.056C88.4722 260.056 91.6977 257.476 92.1415 259.452C92.1558 259.513 92.1719 259.574 92.1889 259.633V259.635C92.7488 261.483 95.2519 262.322 96.6979 262.556C97.8026 262.736 98.0893 263.38 98.1629 263.701Z" fill="#2C3A64"/>
<path d="M92.3439 178.463C92.3439 178.463 94.526 182.022 98.1136 181.215C98.1136 181.215 99.1095 179.563 99.3164 178.265C99.3419 178.105 99.3674 177.951 99.3922 177.804C99.6319 176.343 99.8057 175.53 99.8057 175.53C99.8057 175.53 99.8048 175.529 99.8024 175.529C99.6581 175.441 94.9462 172.617 94.9243 172.789C94.411 176.759 92.3439 178.463 92.3439 178.463Z" fill="#FFB27D"/>
<path d="M95.2857 173.808C95.6343 174.78 97.0305 176.789 99.3921 177.803C99.6319 176.343 99.8057 175.529 99.8057 175.529C99.8057 175.529 99.8048 175.529 99.8024 175.528C99.669 175.469 95.1817 173.521 95.2857 173.808Z" fill="#ED975D"/>
<path d="M100.881 175.537C100.881 175.537 95.0291 176.009 94.7912 172.361C94.5531 168.712 93.6377 166.315 97.3638 165.859C101.09 165.404 101.907 166.749 102.283 167.947C102.659 169.146 102.397 175.32 100.881 175.537Z" fill="#FFB27D"/>
<path d="M94.8386 173.353C94.7541 173.39 93.4815 173.579 91.8741 168.644C91.6217 167.869 91.6115 166.274 92.6624 165.025C93.7136 163.777 96.865 163.147 99.4185 163.052C101.972 162.957 102.356 164.445 102.728 165.937C103.119 167.503 104.707 168.985 104.707 168.985C102.385 169.856 100.066 167.755 99.1305 167.901C98.1948 168.047 97.6662 169.407 97.5307 169.848C97.3955 170.289 97.2357 170.648 96.1736 170.075C95.1117 169.502 95.4245 171.59 95.5467 171.999C95.5467 171.999 95.5453 173.037 94.8386 173.353Z" fill="#903FEE"/>
<path d="M74.0721 263.7H70.6116C69.8862 263.7 69.08 262.973 68.8783 261.644C68.6767 260.313 67.1855 259.588 66.8626 258.499C66.5398 257.41 68.1933 255.878 68.1933 255.878L68.4698 255.523L68.7574 255.152L71.4985 255.797C71.4985 255.797 71.5662 256.45 71.6085 257.281C71.6378 257.881 71.6538 258.576 71.6195 259.184C71.5388 260.636 72.0262 262.198 73.3157 262.481C74.6059 262.764 74.0721 263.7 74.0721 263.7Z" fill="#2C3A64"/>
<path d="M96.3141 210.803C96.3141 210.803 95.8241 216.915 95.2484 224.261C94.4657 234.241 93.5248 246.5 93.4317 248.822C93.271 252.855 92.625 259.305 92.625 259.305C92.625 259.305 91.0936 260.838 88.0289 260.192C88.0289 260.192 85.2977 250.984 84.5175 241.241C84.5053 241.081 84.4932 240.92 84.4813 240.759C83.7556 230.841 82.627 209.956 82.627 209.956L96.3141 210.803Z" fill="#FF9E55"/>
<path d="M93.8412 212.01C93.8412 212.01 94.806 214.209 93.0424 221.364C91.7484 226.614 84.5175 241.241 84.5175 241.241C84.5053 241.081 84.4932 240.92 84.4813 240.759C83.7556 230.841 82.627 209.956 82.627 209.956L93.8412 212.01Z" fill="#ED823A"/>
<path d="M94.4888 210.396C94.4888 210.396 85.2475 233.664 79.4416 244.066C73.6357 254.468 71.8214 257.371 71.8214 257.371C71.8214 257.371 68.4952 256.04 68.1928 255.133C68.1928 255.133 70.4131 235.052 74.3009 230.157C76.4978 227.39 79.0785 219.089 79.1997 216.186C79.3206 213.283 79.9859 207.538 79.9859 207.538L94.4888 210.396Z" fill="#FF9E55"/>
<path d="M94.9591 211.448C93.7124 211.095 81.0004 206.114 81.2482 205.393C82.1096 202.887 82.9996 198.653 84.0632 193.506C84.2634 192.548 84.4868 191.605 84.7308 190.682C85.3675 188.278 86.1463 186.02 87.0315 184.044C88.6765 180.373 91.3479 177.882 93.4841 177.031C93.7622 176.926 94.346 177.806 95.4898 178.811C96.5462 179.739 97.6445 179.721 98.8586 179.798L99.8383 181.535C100.632 183.042 101.309 185.153 101.398 186.873C101.398 186.873 95.0707 211.478 94.9591 211.448Z" fill="#903FEE"/>
<path d="M101.398 186.874L97.5938 186.464L88.176 197.888C86.8237 199.529 84.5922 200.153 82.5849 199.452L79.9856 207.538L95.9645 212.696L101.398 186.874Z" fill="#FF9E55"/>
<path d="M95.2729 181.393C94.7191 180.346 92.8222 177.339 92.8222 177.339L93.4843 177.031C93.8607 177.08 95.8631 180.069 96.486 181.19C97.2362 182.539 99.1531 186.76 99.1531 186.76L97.5941 186.464C97.5941 186.464 95.9248 182.626 95.2729 181.393Z" fill="#ED823A"/>
<path d="M113.186 206.002C113.186 206.002 116.463 207.305 116.637 207.912C116.81 208.52 116.81 210.864 115.942 210.864C115.074 210.864 114.162 208.867 113.772 208.824C113.381 208.78 112.296 208.52 112.166 208.042C112.035 207.565 113.186 206.002 113.186 206.002Z" fill="#FFB27D"/>
<path d="M113.176 207.362C113.645 206.376 113.186 206.001 113.186 206.001C113.186 206.001 103.617 200.086 102.849 199.467C102.082 198.847 97.6536 188.114 97.6536 188.114C97.6536 188.114 96.055 183.748 93.4236 183.54C91.137 183.358 89.7124 184.638 88.8443 186.049C87.8098 187.731 87.9284 189.878 89.1172 191.454C91.7858 194.992 97.1555 202.007 98.6221 203.144C101.887 205.676 112.191 208.576 112.191 208.576C112.191 208.576 112.808 208.136 113.176 207.362Z" fill="#903FEE"/>
<path d="M204.488 224.151H165.713V256.124H204.488V224.151Z" fill="#903FEE"/>
<path d="M185.101 224.151H146.325V256.124H185.101V224.151Z" fill="#EDDDFF"/>
<path d="M204.466 248.017H198.321L198.863 246.288L198.321 245.053H204.466V248.017Z" fill="#903FEE"/>
<path d="M185.101 234.047H178.956L179.498 232.317L178.956 231.082H185.101V234.047Z" fill="#E3F0FF"/>
<path d="M185.101 231.082H191.245L190.704 232.811L191.245 234.047H185.101V231.082Z" fill="#903FEE"/>
<path d="M146.324 248.359H152.469L151.927 250.088L152.469 251.324H146.324V248.359Z" fill="#E3F0FF"/>
<path d="M148.864 230.661H160.022V226.32H148.864V230.661Z" fill="white"/>
<path d="M165.713 224.481H188.942V205.328H165.713V224.481Z" fill="#ED823A"/>
<path d="M177.327 224.481H200.557V205.328H177.327V224.481Z" fill="#FF9E55"/>
<path d="M165.726 219.624H169.407L169.083 218.588L169.407 217.848H165.726V219.624Z" fill="#DD732C"/>
<path d="M177.327 211.254H181.008L180.684 210.218L181.008 209.479H177.327V211.254Z" fill="#FFB27D"/>
<path d="M177.327 209.479H173.647L173.971 210.514L173.647 211.254H177.327V209.479Z" fill="#DD732C"/>
<path d="M200.557 219.83H196.876L197.2 220.866L196.876 221.606H200.557V219.83Z" fill="#FFB27D"/>
<path d="M199.036 206.627H192.351V209.227H199.036V206.627Z" fill="white"/>
<path d="M39.971 85.4984H26.7863V82.8827L33.0082 76.2516C33.4758 75.7399 33.8691 75.2723 34.1912 74.8521C34.512 74.4288 34.7724 74.0402 34.9698 73.6895C35.1674 73.3357 35.3093 73.0071 35.3931 72.7038C35.4769 72.4004 35.5179 72.1066 35.5179 71.8257C35.5179 70.9726 35.3015 70.2997 34.8703 69.8102C34.4391 69.3238 33.8231 69.0771 33.0208 69.0771C32.5722 69.0771 32.1741 69.1593 31.8265 69.3236C31.4775 69.4847 31.1867 69.709 30.9546 69.9964C30.7208 70.2807 30.5425 70.6219 30.4191 71.02C30.2958 71.415 30.2344 71.8478 30.2344 72.3152H26.4022C26.4022 71.4526 26.557 70.6376 26.8651 69.87C27.1732 69.1055 27.6187 68.4357 28.1999 67.8607C28.781 67.289 29.4825 66.8371 30.307 66.5024C31.1298 66.1674 32.0572 66 33.087 66C34.0993 66 34.9967 66.1264 35.7755 66.376C36.5557 66.6288 37.2098 66.9857 37.7374 67.4531C38.2664 67.9207 38.6662 68.4924 38.9393 69.1686C39.2126 69.8478 39.3483 70.6093 39.3483 71.4559C39.3483 72.0973 39.2474 72.7197 39.0453 73.32C38.8429 73.9171 38.5572 74.5173 38.186 75.1145C37.8165 75.7147 37.3693 76.318 36.8465 76.9309C36.3219 77.5437 35.7374 78.1787 35.0948 78.839L31.7003 82.4213H39.971V85.4984Z" fill="white"/>
<path d="M255.184 74.1918H257.218C258.187 74.1918 258.904 73.9485 259.371 73.4652C259.837 72.9788 260.071 72.3373 260.071 71.535C260.071 71.1842 260.019 70.8557 259.913 70.5493C259.807 70.2462 259.646 69.9869 259.431 69.7721C259.215 69.5543 258.943 69.3869 258.618 69.2636C258.292 69.1402 257.908 69.0771 257.469 69.0771C257.117 69.0771 256.784 69.1276 256.471 69.2288C256.158 69.3297 255.885 69.4752 255.653 69.6583C255.419 69.8447 255.234 70.0721 255.097 70.3407C254.961 70.6093 254.893 70.9093 254.893 71.2442H251.075C251.075 70.4512 251.24 69.7309 251.57 69.0833C251.9 68.4357 252.35 67.8859 252.917 67.4343C253.486 66.9793 254.152 66.6288 254.92 66.376C255.686 66.1264 256.504 66 257.376 66C258.345 66 259.227 66.1169 260.025 66.3507C260.821 66.5845 261.507 66.9319 262.079 67.3933C262.652 67.8545 263.096 68.4295 263.413 69.1119C263.731 69.7943 263.889 70.584 263.889 71.4814C263.889 71.8952 263.825 72.3059 263.698 72.7102C263.57 73.1147 263.38 73.4969 263.129 73.8538C262.878 74.2109 262.573 74.5392 262.211 74.8426C261.85 75.149 261.436 75.4049 260.97 75.6164C262.053 76.0049 262.861 76.5864 263.395 77.3602C263.927 78.1342 264.194 79.0504 264.194 80.1087C264.194 81.0058 264.019 81.8082 263.671 82.5127C263.324 83.2173 262.845 83.808 262.238 84.2882C261.63 84.7684 260.91 85.1349 260.077 85.3844C259.245 85.637 258.345 85.7634 257.376 85.7634C256.558 85.7634 255.756 85.653 254.972 85.4318C254.189 85.2106 253.491 84.8725 252.878 84.4146C252.267 83.9565 251.774 83.3815 251.399 82.6897C251.025 82.0008 250.837 81.1797 250.837 80.2287H254.655C254.655 80.589 254.726 80.9173 254.867 81.2175C255.007 81.5175 255.203 81.7735 255.454 81.9916C255.705 82.2063 256.002 82.377 256.346 82.5001C256.689 82.6235 257.064 82.6835 257.47 82.6835C257.918 82.6835 258.323 82.6235 258.684 82.5001C259.046 82.3768 259.351 82.197 259.602 81.9632C259.853 81.7325 260.044 81.4547 260.177 81.1323C260.31 80.8101 260.376 80.453 260.376 80.0551C260.376 79.5466 260.303 79.1073 260.158 78.7409C260.013 78.3744 259.803 78.0775 259.529 77.8499C259.256 77.6194 258.924 77.4518 258.532 77.3414C258.141 77.2309 257.702 77.1771 257.218 77.1771H255.184L255.184 74.1918Z" fill="white"/>
</g>
<defs>
<linearGradient id="paint0_linear_55_642" x1="200" y1="0" x2="200" y2="280" gradientUnits="userSpaceOnUse">
<stop stop-color="#E5CFFF"/>
<stop offset="0.5" stop-color="white"/>
</linearGradient>
<clipPath id="clip0_55_642">
<rect width="400" height="280" fill="white"/>
</clipPath>
</defs>
</svg>
