<svg width="2302" height="1495" viewBox="0 0 2302 1495" fill="none" xmlns="http://www.w3.org/2000/svg">
<path opacity="0.3" d="M1635.55 511.97H1492.5V536.298H1635.55V511.97Z" fill="url(#paint0_linear_73_7)"/>
<path opacity="0.3" d="M1635.55 607.335H1492.5V631.663H1635.55V607.335Z" fill="url(#paint1_linear_73_7)"/>
<path opacity="0.3" d="M1782.91 511.97H1639.87V536.298H1782.91V511.97Z" fill="url(#paint2_linear_73_7)"/>
<path opacity="0.3" d="M1782.91 607.335H1639.87V631.663H1782.91V607.335Z" fill="url(#paint3_linear_73_7)"/>
<path d="M1563.86 425.355H1556.34V715.343H1563.86V425.355Z" fill="#D8DEE8"/>
<path d="M1556.34 715.343V425.355H1560.1L1556.34 715.343Z" fill="#97A6B7"/>
<path d="M1566.71 418.867H1553.49V434.112H1566.71V418.867Z" fill="#D8DEE8"/>
<path d="M1566.71 707.719H1553.49V722.964H1566.71V707.719Z" fill="#D8DEE8"/>
<path d="M1670.19 707.719H1656.97V722.964H1670.19V707.719Z" fill="#D8DEE8"/>
<path d="M1721.92 707.719H1708.71V722.964H1721.92V707.719Z" fill="#D8DEE8"/>
<path d="M1618.45 707.719H1605.23V722.964H1618.45V707.719Z" fill="#D8DEE8"/>
<path opacity="0.3" d="M1954.66 607.335H1811.61V631.663H1954.66V607.335Z" fill="url(#paint4_linear_73_7)"/>
<path d="M1885.82 707.719H1872.6V722.964H1885.82V707.719Z" fill="#D8DEE8"/>
<path d="M1989.29 707.719H1976.08V722.964H1989.29V707.719Z" fill="#D8DEE8"/>
<path d="M2041.03 707.719H2027.81V722.964H2041.03V707.719Z" fill="#D8DEE8"/>
<path d="M1937.56 707.719H1924.34V722.964H1937.56V707.719Z" fill="#D8DEE8"/>
<path d="M1797.18 726.56H1478.85V1036.04H1797.18V726.56Z" fill="url(#paint5_linear_73_7)"/>
<path opacity="0.3" d="M1488.58 1026.31V736.291H1787.45V1026.31H1488.58Z" fill="url(#paint6_linear_73_7)"/>
<path d="M1783.22 742.147H1640.18V1020.46H1783.22V742.147Z" fill="url(#paint7_linear_73_7)"/>
<path d="M1635.86 742.147H1492.81V1020.46H1635.86V742.147Z" fill="url(#paint8_linear_73_7)"/>
<path opacity="0.3" d="M1635.86 821.455H1492.81V845.783H1635.86V821.455Z" fill="url(#paint9_linear_73_7)"/>
<path opacity="0.3" d="M1635.86 916.82H1492.81V941.148H1635.86V916.82Z" fill="url(#paint10_linear_73_7)"/>
<path opacity="0.3" d="M1783.22 821.455H1640.18V845.783H1783.22V821.455Z" fill="url(#paint11_linear_73_7)"/>
<path opacity="0.3" d="M1783.22 916.82H1640.18V941.148H1783.22V916.82Z" fill="url(#paint12_linear_73_7)"/>
<path d="M1564.17 734.84H1556.65V1024.83H1564.17V734.84Z" fill="#D8DEE8"/>
<path d="M1556.65 1024.83V734.84H1560.41L1556.65 1024.83Z" fill="#97A6B7"/>
<path d="M1567.02 728.353H1553.8V743.597H1567.02V728.353Z" fill="#D8DEE8"/>
<path d="M1567.02 1017.21H1553.8V1032.45H1567.02V1017.21Z" fill="#D8DEE8"/>
<path d="M1667.65 734.84H1660.13V1024.83H1667.65V734.84Z" fill="#D8DEE8"/>
<path d="M1660.13 1024.83V734.84H1663.89L1660.13 1024.83Z" fill="#97A6B7"/>
<path d="M1670.5 728.353H1657.28V743.597H1670.5V728.353Z" fill="#D8DEE8"/>
<path d="M1670.5 1017.21H1657.28V1032.45H1670.5V1017.21Z" fill="#D8DEE8"/>
<path d="M1719.38 734.84H1711.86V1024.83H1719.38V734.84Z" fill="#D8DEE8"/>
<path d="M1711.86 1024.83V734.84H1715.62L1711.86 1024.83Z" fill="#97A6B7"/>
<path d="M1722.23 728.353H1709.02V743.597H1722.23V728.353Z" fill="#D8DEE8"/>
<path d="M1722.23 1017.21H1709.02V1032.45H1722.23V1017.21Z" fill="#D8DEE8"/>
<path d="M1615.91 734.84H1608.39V1024.83H1615.91V734.84Z" fill="#D8DEE8"/>
<path d="M1608.39 1024.83V734.84H1612.15L1608.39 1024.83Z" fill="#97A6B7"/>
<path d="M1618.76 728.353H1605.54V743.597H1618.76V728.353Z" fill="#D8DEE8"/>
<path d="M1618.76 1017.21H1605.54V1032.45H1618.76V1017.21Z" fill="#D8DEE8"/>
<path opacity="0.6" d="M1887.99 745.084H1861.04V1012.69H1887.99V745.084Z" fill="url(#paint13_linear_73_7)"/>
<path d="M1889.05 745.084H1871.08V1012.69H1889.05V745.084Z" fill="url(#paint14_linear_73_7)"/>
<path opacity="0.6" d="M1956.68 745.084H1929.73V1012.69H1956.68V745.084Z" fill="url(#paint15_linear_73_7)"/>
<path d="M1957.74 745.084H1939.78V1012.69H1957.74V745.084Z" fill="url(#paint16_linear_73_7)"/>
<path opacity="0.6" d="M2025.38 745.084H1998.43V1012.69H2025.38V745.084Z" fill="url(#paint17_linear_73_7)"/>
<path d="M2026.44 745.084H2008.47V1012.69H2026.44V745.084Z" fill="url(#paint18_linear_73_7)"/>
<path d="M2088.62 1262.36L137.266 1401.47V0L2091.84 571.573L2088.62 1262.36Z" fill="url(#paint19_linear_73_7)"/>
<path d="M761.14 1356.34L271.296 1391.78L271.894 535.656L763.555 613.468L761.14 1356.34Z" fill="white"/>
<path d="M789.815 597.927L240.462 507.597L240.587 273.91L790.49 398.661L789.815 597.927Z" fill="#D8DEE8"/>
<path d="M789.757 615.192L240.451 527.84L240.513 412.723L790.089 517.019L789.757 615.192Z" fill="white"/>
<path d="M789.863 583.8L240.471 491.032L240.481 472.963L789.915 568.389L789.863 583.8Z" fill="#D8DEE8"/>
<path d="M789.979 549.501L240.492 450.814L240.502 432.737L790.032 534.085L789.979 549.501Z" fill="#D8DEE8"/>
<path d="M749.458 1357.18L286.678 1390.67L287.342 538.102L751.837 611.615L749.458 1357.18Z" fill="#97A6B7"/>
<path d="M1220.79 1323.08L868.345 1348.58L871.08 630.485L1224.39 686.401L1220.79 1323.08Z" fill="white"/>
<path d="M1243.74 672.565L849.069 607.67L849.792 412.114L1244.72 501.707L1243.74 672.565Z" fill="#D8DEE8"/>
<path d="M1243.65 687.371L849.007 624.614L849.363 528.268L1244.14 603.186L1243.65 687.371Z" fill="white"/>
<path d="M1243.81 660.452L849.121 593.807L849.176 578.683L1243.88 647.237L1243.81 660.452Z" fill="#D8DEE8"/>
<path d="M1243.98 631.04L849.245 560.146L849.301 545.017L1244.05 617.821L1243.98 631.04Z" fill="#D8DEE8"/>
<path d="M1212.21 1323.7L879.185 1347.8L881.951 632.206L1215.79 685.04L1212.21 1323.7Z" fill="#97A6B7"/>
<path d="M1624.63 1294.65L1323.42 1316.44L1325.76 702.735L1627.7 750.522L1624.63 1294.65Z" fill="white"/>
<path d="M1644.24 738.698L1306.94 683.236L1307.56 516.108L1645.08 592.678L1644.24 738.698Z" fill="#D8DEE8"/>
<path d="M1644.17 751.351L1306.89 697.717L1307.2 615.377L1644.58 679.404L1644.17 751.351Z" fill="white"/>
<path d="M1644.3 728.345L1306.99 671.389L1307.04 658.463L1644.36 717.051L1644.3 728.345Z" fill="#D8DEE8"/>
<path d="M1644.44 703.208L1307.09 642.62L1307.14 629.69L1644.51 691.91L1644.44 703.208Z" fill="#D8DEE8"/>
<path d="M1617.29 1295.18L1332.68 1315.77L1335.05 704.205L1620.35 749.358L1617.29 1295.18Z" fill="#97A6B7"/>
<path d="M1970.31 1270.9L1711.54 1289.62L1713.55 762.38L1972.95 803.434L1970.31 1270.9Z" fill="white"/>
<path d="M1987.16 793.276L1697.39 745.628L1697.92 602.047L1987.88 667.828L1987.16 793.276Z" fill="#D8DEE8"/>
<path d="M1987.1 804.146L1697.34 758.068L1697.6 687.328L1987.45 742.335L1987.1 804.146Z" fill="white"/>
<path d="M1987.21 784.381L1697.42 735.449L1697.47 724.345L1987.27 774.678L1987.21 784.381Z" fill="#D8DEE8"/>
<path d="M1987.34 762.786L1697.52 710.734L1697.56 699.626L1987.39 753.08L1987.34 762.786Z" fill="#D8DEE8"/>
<path d="M1964.01 1271.35L1719.5 1289.04L1721.53 763.643L1966.64 802.434L1964.01 1271.35Z" fill="#97A6B7"/>
<path d="M137.266 0L0 4.802V1388.78L137.266 1401.42V0Z" fill="url(#paint20_linear_73_7)"/>
<path d="M1414.17 1263.96V1313.48C1414.17 1318.09 1417.65 1321.95 1422.24 1322.42L1929.29 1370.46L1997.54 1415.63L2091.79 1290.27L1414.17 1263.96Z" fill="url(#paint21_linear_73_7)"/>
<path d="M1802.83 1332.02V1376.35C1802.83 1380.06 1805.52 1383.23 1809.19 1383.82L1930.92 1403.38L1927.38 1331.92L1810.88 1324.47C1806.52 1324.19 1802.83 1327.65 1802.83 1332.02Z" fill="url(#paint22_linear_73_7)"/>
<path d="M1465.54 1286.81C1465.12 1286.81 1464.72 1286.84 1464.31 1286.88L1457.87 1286.81L1457.91 1289.64C1451.67 1294.52 1447.34 1305.18 1447.34 1317.56C1447.34 1330.42 1452.02 1341.44 1458.66 1346.03L1458.69 1348.31H1465.54C1475.58 1348.31 1483.73 1334.54 1483.73 1317.56C1483.73 1300.57 1475.58 1286.81 1465.54 1286.81Z" fill="url(#paint23_linear_73_7)"/>
<path d="M1457.87 1348.31C1467.92 1348.31 1476.06 1334.54 1476.06 1317.56C1476.06 1300.58 1467.92 1286.81 1457.87 1286.81C1447.83 1286.81 1439.68 1300.58 1439.68 1317.56C1439.68 1334.54 1447.83 1348.31 1457.87 1348.31Z" fill="url(#paint24_linear_73_7)"/>
<path d="M1465.54 1317.56C1465.54 1327.1 1460.96 1334.83 1455.32 1334.83C1449.67 1334.83 1445.1 1327.1 1445.1 1317.56C1445.1 1308.02 1449.67 1300.28 1455.32 1300.28C1460.96 1300.28 1465.54 1308.02 1465.54 1317.56Z" fill="#D8DEE8"/>
<path d="M1456.86 1333.6C1461.65 1333.6 1465.54 1326.42 1465.54 1317.56C1465.54 1308.7 1461.65 1301.52 1456.86 1301.52C1452.07 1301.52 1448.19 1308.7 1448.19 1317.56C1448.19 1326.42 1452.07 1333.6 1456.86 1333.6Z" fill="url(#paint25_linear_73_7)"/>
<path d="M1508.52 1290.27C1508.07 1290.27 1507.63 1290.3 1507.18 1290.35L1500.13 1290.27L1500.17 1293.37C1493.34 1298.71 1488.59 1310.39 1488.59 1323.96C1488.59 1338.05 1493.72 1350.12 1500.99 1355.15L1501.02 1357.65H1508.52C1519.53 1357.65 1528.46 1342.56 1528.46 1323.96C1528.46 1305.35 1519.53 1290.27 1508.52 1290.27Z" fill="url(#paint26_linear_73_7)"/>
<path d="M1500.13 1357.65C1511.13 1357.65 1520.06 1342.56 1520.06 1323.96C1520.06 1305.35 1511.13 1290.27 1500.13 1290.27C1489.12 1290.27 1480.2 1305.35 1480.2 1323.96C1480.2 1342.56 1489.12 1357.65 1500.13 1357.65Z" fill="url(#paint27_linear_73_7)"/>
<path d="M1497.33 1342.89C1503.51 1342.89 1508.52 1334.41 1508.52 1323.96C1508.52 1313.5 1503.51 1305.03 1497.33 1305.03C1491.14 1305.03 1486.13 1313.5 1486.13 1323.96C1486.13 1334.41 1491.14 1342.89 1497.33 1342.89Z" fill="#D8DEE8"/>
<path d="M1499.02 1341.53C1504.27 1341.53 1508.52 1333.66 1508.52 1323.96C1508.52 1314.25 1504.27 1306.38 1499.02 1306.38C1493.77 1306.38 1489.52 1314.25 1489.52 1323.96C1489.52 1333.66 1493.77 1341.53 1499.02 1341.53Z" fill="url(#paint28_linear_73_7)"/>
<path d="M1554.41 1290.27C1553.92 1290.27 1553.43 1290.3 1552.94 1290.36L1545.24 1290.27L1545.29 1293.65C1537.83 1299.49 1532.65 1312.24 1532.65 1327.05C1532.65 1342.44 1538.24 1355.62 1546.18 1361.11L1546.22 1363.84H1554.41C1566.43 1363.84 1576.17 1347.37 1576.17 1327.05C1576.17 1306.74 1566.43 1290.27 1554.41 1290.27Z" fill="url(#paint29_linear_73_7)"/>
<path d="M1545.24 1363.84C1557.26 1363.84 1567.01 1347.37 1567.01 1327.05C1567.01 1306.74 1557.26 1290.27 1545.24 1290.27C1533.23 1290.27 1523.48 1306.74 1523.48 1327.05C1523.48 1347.37 1533.23 1363.84 1545.24 1363.84Z" fill="url(#paint30_linear_73_7)"/>
<path d="M1542.18 1347.72C1548.94 1347.72 1554.41 1338.47 1554.41 1327.05C1554.41 1315.64 1548.94 1306.39 1542.18 1306.39C1535.43 1306.39 1529.96 1315.64 1529.96 1327.05C1529.96 1338.47 1535.43 1347.72 1542.18 1347.72Z" fill="#D8DEE8"/>
<path d="M1554.41 1327.05C1554.41 1337.65 1549.77 1346.24 1544.04 1346.24C1538.31 1346.24 1533.66 1337.65 1533.66 1327.05C1533.66 1316.46 1538.3 1307.87 1544.04 1307.87C1549.77 1307.87 1554.41 1316.46 1554.41 1327.05Z" fill="url(#paint31_linear_73_7)"/>
<path d="M1765.99 1309.45C1765.36 1309.45 1764.74 1309.5 1764.12 1309.57L1754.29 1309.45L1754.34 1313.78C1744.82 1321.23 1738.21 1337.51 1738.21 1356.42C1738.21 1376.06 1745.35 1392.89 1755.49 1399.89L1755.53 1403.38H1765.99C1781.33 1403.38 1793.77 1382.35 1793.77 1356.42C1793.77 1330.48 1781.33 1309.45 1765.99 1309.45Z" fill="url(#paint32_linear_73_7)"/>
<path d="M1754.28 1403.38C1769.63 1403.38 1782.07 1382.35 1782.07 1356.42C1782.07 1330.48 1769.63 1309.45 1754.28 1309.45C1738.94 1309.45 1726.5 1330.48 1726.5 1356.42C1726.5 1382.35 1738.94 1403.38 1754.28 1403.38Z" fill="url(#paint33_linear_73_7)"/>
<path d="M1750.38 1382.8C1759 1382.8 1765.99 1370.99 1765.99 1356.42C1765.99 1341.84 1759 1330.03 1750.38 1330.03C1741.76 1330.03 1734.77 1341.84 1734.77 1356.42C1734.77 1370.99 1741.76 1382.8 1750.38 1382.8Z" fill="#D8DEE8"/>
<path d="M1752.74 1380.91C1760.06 1380.91 1765.99 1369.94 1765.99 1356.42C1765.99 1342.89 1760.06 1331.92 1752.74 1331.92C1745.43 1331.92 1739.5 1342.89 1739.5 1356.42C1739.5 1369.94 1745.43 1380.91 1752.74 1380.91Z" fill="url(#paint34_linear_73_7)"/>
<path d="M1950.86 1316.88C1950.06 1316.88 1949.26 1316.94 1948.47 1317.03L1935.91 1316.88L1935.99 1322.41C1923.82 1331.92 1915.37 1352.72 1915.37 1376.88C1915.37 1401.98 1924.5 1423.47 1937.44 1432.42L1937.5 1436.87H1950.86C1970.46 1436.87 1986.35 1410.01 1986.35 1376.88C1986.35 1343.74 1970.46 1316.88 1950.86 1316.88Z" fill="url(#paint35_linear_73_7)"/>
<path d="M1935.91 1436.87C1955.51 1436.87 1971.4 1410.01 1971.4 1376.87C1971.4 1343.74 1955.51 1316.88 1935.91 1316.88C1916.31 1316.88 1900.42 1343.74 1900.42 1376.87C1900.42 1410.01 1916.31 1436.87 1935.91 1436.87Z" fill="url(#paint36_linear_73_7)"/>
<path d="M1930.92 1410.58C1941.94 1410.58 1950.86 1395.49 1950.86 1376.87C1950.86 1358.26 1941.94 1343.17 1930.92 1343.17C1919.91 1343.17 1910.98 1358.26 1910.98 1376.87C1910.98 1395.49 1919.91 1410.58 1930.92 1410.58Z" fill="#D8DEE8"/>
<path d="M1933.94 1408.17C1943.29 1408.17 1950.86 1394.16 1950.86 1376.87C1950.86 1359.59 1943.29 1345.58 1933.94 1345.58C1924.59 1345.58 1917.02 1359.59 1917.02 1376.87C1917.02 1394.16 1924.59 1408.17 1933.94 1408.17Z" fill="url(#paint37_linear_73_7)"/>
<path opacity="0.95" d="M1384.01 1000.34C1377.37 1001.45 1372.5 1007.19 1372.5 1013.92V1264.96C1372.5 1272.26 1378.2 1278.3 1385.5 1278.7L1857.35 1305.03V921.645L1384.01 1000.34Z" fill="url(#paint38_linear_73_7)"/>
<path opacity="0.95" d="M2123.43 930.596L1857.35 921.645V1305.03H2137.74V945.392C2137.74 937.41 2131.41 930.864 2123.43 930.596Z" fill="url(#paint39_linear_73_7)"/>
<path opacity="0.3" d="M1757.65 1208.66C1697.06 1180.75 1640.18 1223.35 1584.74 1182.18C1536.19 1146.12 1551.84 1092.69 1513.08 1029.52C1504.21 1015.05 1492.32 999.871 1476.08 985.035L1384.01 1000.34C1377.37 1001.45 1372.5 1007.19 1372.5 1013.92V1264.96C1372.5 1272.26 1378.2 1278.3 1385.5 1278.7L1833.01 1303.67C1812.47 1247.49 1784.56 1221.06 1757.65 1208.66Z" fill="url(#paint40_linear_73_7)"/>
<path d="M2279.5 1183.73L2259.83 1134.28L2259.25 1093.39L2279.11 1089.41C2281.04 1089.03 2282.25 1087.12 2281.78 1085.22C2278.77 1073.16 2267.78 1033.33 2250.68 1020.17C2238.62 1010.9 2010 1008.12 2010 1008.12L1899.97 1015.28C1891.33 1015.84 1884.61 1023.01 1884.61 1031.67V1275.5C1884.61 1281.9 1889.5 1287.23 1895.87 1287.78L1971.4 1294.34L1986.36 1309.45C1986.36 1309.45 2200.44 1326.6 2285.87 1311.02C2290.29 1310.21 2293.51 1306.38 2293.51 1301.89V1194.64C2293.51 1179.06 2279.5 1183.73 2279.5 1183.73Z" fill="#F4F7FA"/>
<path opacity="0.8" d="M2047.39 1198.53C2047.39 1198.53 2045.06 1092.61 2047.39 1048.99C2048.52 1027.83 2037.93 1015.49 2026.71 1008.37C2016.26 1008.2 2010 1008.12 2010 1008.12L1899.97 1015.28C1891.33 1015.84 1884.61 1023.01 1884.61 1031.67V1275.5C1884.61 1281.9 1889.5 1287.23 1895.87 1287.78L1971.4 1294.34L1986.35 1309.45C1986.35 1309.45 2021.6 1312.28 2069.2 1314.59V1224.24L2047.39 1198.53Z" fill="url(#paint41_linear_73_7)"/>
<path d="M2291.08 1330.02L2282.61 1327.05V1309.89C2282.61 1305.27 2278.86 1301.52 2274.24 1301.52H2009.12C2002.73 1301.52 1997.54 1306.7 1997.54 1313.1V1415.63C1997.54 1421.28 2002.23 1425.79 2007.87 1425.57L2291.74 1414.65C2297.08 1414.45 2301.3 1410.06 2301.3 1404.72V1344.43C2301.3 1337.94 2297.2 1332.16 2291.08 1330.02Z" fill="#97A6B7"/>
<path d="M2258.77 1241.92H2101.58C2096.29 1241.92 2092.1 1246.41 2092.47 1251.69L2101.13 1375.1C2101.57 1381.3 2106.83 1386.05 2113.04 1385.84L2248.09 1381.26C2253.99 1381.06 2258.79 1376.45 2259.22 1370.56L2267.88 1251.71C2268.26 1246.42 2264.08 1241.92 2258.77 1241.92Z" fill="url(#paint42_linear_73_7)"/>
<g opacity="0.3">
<path d="M2291.08 1330.02L2282.61 1327.05V1309.89C2282.61 1306.24 2280.27 1303.14 2277 1302L2260.87 1377.85C2258.95 1386.89 2251.14 1393.46 2241.91 1393.82L2118.01 1398.64C2109.13 1398.98 2101.07 1393.48 2098.16 1385.08L2069.2 1301.52H2009.12C2002.73 1301.52 1997.54 1306.7 1997.54 1313.1V1415.63C1997.54 1421.28 2002.23 1425.79 2007.87 1425.57L2291.74 1414.65C2297.08 1414.44 2301.3 1410.06 2301.3 1404.72V1344.43C2301.3 1337.94 2297.2 1332.16 2291.08 1330.02Z" fill="#97A6B7"/>
</g>
<path d="M2082.44 1391.69L2052.96 1393.17C2034.66 1394.08 2018.93 1380.31 2017.42 1362.05L2016.24 1347.72H2075.25C2079.22 1347.72 2082.44 1350.94 2082.44 1354.91V1391.69Z" fill="url(#paint43_linear_73_7)"/>
<path d="M2272.61 1353.79L2267.9 1385.84C2267.9 1385.84 2298.98 1384.76 2298.2 1345.58L2278.92 1347.7C2275.67 1348.06 2273.08 1350.56 2272.61 1353.79Z" fill="url(#paint44_linear_73_7)"/>
<path d="M2054.13 1199.91C2049.35 1199.91 2044.62 1198.37 2040.76 1195.55L2028.63 1186.66C2023.95 1183.23 2021.16 1177.72 2021.16 1171.92V1101.31C2021.16 1097.87 2022.67 1094.63 2025.3 1092.42C2027.92 1090.21 2031.37 1089.26 2034.76 1089.85L2046.65 1091.9L2260.45 1091.88L2281.03 1183.72L2278.59 1195.93L2277.38 1195.95L2054.53 1199.91C2054.4 1199.91 2054.26 1199.91 2054.13 1199.91ZM2032.78 1092.69C2030.76 1092.69 2028.8 1093.4 2027.23 1094.72C2025.29 1096.36 2024.17 1098.76 2024.17 1101.31V1171.92C2024.17 1176.77 2026.5 1181.37 2030.41 1184.23L2042.54 1193.12C2045.98 1195.64 2050.17 1197.03 2054.48 1196.9L2276.12 1192.96L2277.96 1183.75L2258.04 1094.89H2046.39L2034.25 1092.82C2033.76 1092.73 2033.27 1092.69 2032.78 1092.69Z" fill="#808080"/>
<path d="M2259.24 1093.39H2046.39L2034.5 1091.34C2028.32 1090.27 2022.66 1095.03 2022.66 1101.31V1171.92C2022.66 1177.27 2025.21 1182.29 2029.52 1185.45L2041.65 1194.33C2045.38 1197.06 2049.89 1198.49 2054.5 1198.41L2277.35 1194.44L2279.5 1183.73L2259.24 1093.39Z" fill="url(#paint45_linear_73_7)"/>
<path d="M2126.93 1068.85H2108.82C2106.08 1068.85 2103.86 1071.07 2103.86 1073.82V1081.41C2103.86 1084.15 2106.08 1086.38 2108.82 1086.38H2126.93C2129.68 1086.38 2131.9 1084.15 2131.9 1081.41V1073.82C2131.9 1071.07 2129.68 1068.85 2126.93 1068.85Z" fill="#97A6B7"/>
<path d="M2233.25 1068.85H2215.14C2212.4 1068.85 2210.18 1071.07 2210.18 1073.82V1081.41C2210.18 1084.15 2212.4 1086.38 2215.14 1086.38H2233.25C2235.99 1086.38 2238.21 1084.15 2238.21 1081.41V1073.82C2238.22 1071.07 2235.99 1068.85 2233.25 1068.85Z" fill="#97A6B7"/>
<path opacity="0.3" d="M2192.65 1143.62C2137.72 1122.62 2086.06 1148.8 2062.38 1120.26C2055.98 1112.54 2053.4 1102.94 2052.8 1093.39H2046.39L2034.5 1091.34C2028.32 1090.27 2022.66 1095.04 2022.66 1101.31V1171.92C2022.66 1177.27 2025.21 1182.29 2029.52 1185.45L2041.65 1194.33C2045.38 1197.06 2049.89 1198.49 2054.5 1198.41L2256.37 1194.82C2233.55 1164.06 2210.38 1150.4 2192.65 1143.62Z" fill="white"/>
<path d="M287.602 1224.14V1268.12L487.123 1287.03L530.628 1315.82L590.702 1235.91L287.602 1224.14Z" fill="url(#paint46_linear_73_7)"/>
<path d="M406.507 1262.53V1290.78C406.507 1293.15 408.227 1295.17 410.566 1295.54L488.162 1308.01L485.906 1262.46L411.64 1257.71C408.859 1257.53 406.507 1259.74 406.507 1262.53Z" fill="url(#paint47_linear_73_7)"/>
<path d="M383.026 1248.14C382.624 1248.14 382.228 1248.17 381.832 1248.21L375.566 1248.14L375.603 1250.89C369.532 1255.64 365.317 1266.02 365.317 1278.07C365.317 1290.6 369.87 1301.32 376.329 1305.78L376.359 1308.01H383.026C392.806 1308.01 400.735 1294.6 400.735 1278.07C400.736 1261.54 392.807 1248.14 383.026 1248.14Z" fill="url(#paint48_linear_73_7)"/>
<path d="M375.567 1308.01C385.347 1308.01 393.276 1294.6 393.276 1278.07C393.276 1261.54 385.347 1248.14 375.567 1248.14C365.786 1248.14 357.858 1261.54 357.858 1278.07C357.858 1294.6 365.786 1308.01 375.567 1308.01Z" fill="url(#paint49_linear_73_7)"/>
<path d="M373.077 1294.89C378.572 1294.89 383.026 1287.36 383.026 1278.07C383.026 1268.78 378.572 1261.25 373.077 1261.25C367.582 1261.25 363.128 1268.78 363.128 1278.07C363.128 1287.36 367.582 1294.89 373.077 1294.89Z" fill="#D8DEE8"/>
<path d="M383.026 1278.07C383.026 1286.69 379.246 1293.68 374.582 1293.68C369.919 1293.68 366.139 1286.69 366.139 1278.07C366.139 1269.45 369.919 1262.46 374.582 1262.46C379.246 1262.46 383.026 1269.45 383.026 1278.07Z" fill="url(#paint50_linear_73_7)"/>
<path d="M500.872 1252.87C500.359 1252.87 499.851 1252.91 499.347 1252.97L491.341 1252.87L491.388 1256.39C483.632 1262.46 478.248 1275.72 478.248 1291.11C478.248 1307.12 484.065 1320.82 492.317 1326.52L492.355 1329.36H500.873C513.367 1329.36 523.497 1312.24 523.497 1291.11C523.496 1269.99 513.366 1252.87 500.872 1252.87Z" fill="url(#paint51_linear_73_7)"/>
<path d="M491.341 1329.36C503.836 1329.36 513.965 1312.24 513.965 1291.11C513.965 1269.99 503.836 1252.87 491.341 1252.87C478.846 1252.87 468.717 1269.99 468.717 1291.11C468.717 1312.24 478.846 1329.36 491.341 1329.36Z" fill="url(#paint52_linear_73_7)"/>
<path d="M500.872 1291.11C500.872 1302.98 495.181 1312.6 488.162 1312.6C481.143 1312.6 475.452 1302.98 475.452 1291.11C475.452 1279.25 481.143 1269.63 488.162 1269.63C495.181 1269.63 500.872 1279.25 500.872 1291.11Z" fill="#D8DEE8"/>
<path d="M490.085 1311.06C496.042 1311.06 500.872 1302.13 500.872 1291.11C500.872 1280.1 496.042 1271.17 490.085 1271.17C484.127 1271.17 479.298 1280.1 479.298 1291.11C479.298 1302.13 484.127 1311.06 490.085 1311.06Z" fill="url(#paint53_linear_73_7)"/>
<path d="M287.602 1026.48V1236.74L441.261 1245.32V1000.93L287.602 1026.48Z" fill="url(#paint54_linear_73_7)"/>
<path d="M610.874 1006.64L441.261 1000.93V1245.32H619.995V1016.07C619.995 1010.98 615.96 1006.81 610.874 1006.64Z" fill="url(#paint55_linear_73_7)"/>
<path opacity="0.3" d="M287.602 1236.74L425.746 1244.45C412.656 1208.64 394.868 1191.79 377.712 1183.89C346.374 1169.45 316.596 1184.6 287.602 1176.81V1236.74Z" fill="url(#paint56_linear_73_7)"/>
<path d="M710.354 1168L697.818 1136.47L697.445 1110.41L710.108 1107.88C711.336 1107.63 712.11 1106.42 711.807 1105.2C709.893 1097.51 702.886 1072.13 691.983 1063.74C684.298 1057.83 538.569 1056.06 538.569 1056.06L468.43 1060.62C462.922 1060.98 458.637 1065.55 458.637 1071.07V1226.49C458.637 1230.57 461.755 1233.97 465.818 1234.33L513.965 1238.5L523.495 1248.14C523.495 1248.14 659.958 1259.07 714.416 1249.13C717.237 1248.62 719.29 1246.18 719.29 1243.31V1174.95C719.29 1165.02 710.354 1168 710.354 1168Z" fill="#F4F7FA"/>
<path opacity="0.8" d="M562.403 1177.43C562.403 1177.43 560.914 1109.91 562.403 1082.11C563.125 1068.62 556.37 1060.75 549.223 1056.21C542.558 1056.11 538.571 1056.06 538.571 1056.06L468.432 1060.62C462.924 1060.98 458.639 1065.55 458.639 1071.07V1226.49C458.639 1230.57 461.757 1233.97 465.82 1234.32L513.967 1238.5L523.497 1248.14C523.497 1248.14 545.965 1249.94 576.306 1251.41V1193.82L562.403 1177.43Z" fill="url(#paint57_linear_73_7)"/>
<path d="M717.737 1261.25L712.34 1259.36V1248.42C712.34 1245.47 709.95 1243.08 707.001 1243.08H538.009C533.932 1243.08 530.628 1246.39 530.628 1250.46V1315.82C530.628 1319.42 533.616 1322.29 537.209 1322.15L718.162 1315.19C721.565 1315.06 724.256 1312.27 724.256 1308.86V1270.44C724.256 1266.3 721.641 1262.61 717.737 1261.25Z" fill="#97A6B7"/>
<path d="M697.145 1205.09H596.943C593.569 1205.09 590.902 1207.95 591.139 1211.31L596.659 1289.98C596.936 1293.94 600.292 1296.96 604.251 1296.83L690.337 1293.91C694.097 1293.78 697.156 1290.84 697.429 1287.09L702.948 1211.33C703.194 1207.96 700.526 1205.09 697.145 1205.09Z" fill="url(#paint58_linear_73_7)"/>
<g opacity="0.3">
<path d="M717.737 1261.25L712.34 1259.36V1248.42C712.34 1246.09 710.845 1244.11 708.764 1243.38L698.48 1291.74C697.255 1297.5 692.278 1301.69 686.396 1301.92L607.418 1304.99C601.757 1305.21 596.617 1301.7 594.762 1296.34L576.304 1243.08H538.009C533.932 1243.08 530.628 1246.39 530.628 1250.46V1315.82C530.628 1319.42 533.616 1322.29 537.209 1322.15L718.162 1315.19C721.565 1315.06 724.256 1312.27 724.256 1308.86V1270.44C724.256 1266.3 721.641 1262.61 717.737 1261.25Z" fill="#97A6B7"/>
</g>
<path d="M584.744 1300.56L565.953 1301.5C554.286 1302.08 544.261 1293.31 543.298 1281.67L542.543 1272.53H580.162C582.693 1272.53 584.744 1274.58 584.744 1277.11V1300.56Z" fill="url(#paint59_linear_73_7)"/>
<path d="M705.964 1276.4L702.964 1296.83C702.964 1296.83 722.775 1296.14 722.278 1271.17L709.984 1272.52C707.918 1272.75 706.266 1274.34 705.964 1276.4Z" fill="url(#paint60_linear_73_7)"/>
<path d="M566.697 1178.86C563.537 1178.86 560.408 1177.84 557.856 1175.97L550.124 1170.31C547.001 1168.02 545.137 1164.34 545.137 1160.47V1115.46C545.137 1113.11 546.167 1110.89 547.966 1109.38C549.763 1107.86 552.127 1107.23 554.441 1107.62L562.019 1108.92L698.651 1108.9L711.89 1167.98L710.227 1176.31L566.964 1178.86C566.875 1178.86 566.786 1178.86 566.697 1178.86ZM553.089 1110.51C551.931 1110.51 550.804 1110.92 549.904 1111.68C548.786 1112.62 548.144 1114 548.144 1115.46V1160.47C548.144 1163.39 549.55 1166.16 551.903 1167.88L559.635 1173.54C561.729 1175.08 564.298 1175.85 566.911 1175.85L707.751 1173.34L708.817 1168.02L696.242 1111.91H561.765L553.932 1110.59C553.651 1110.54 553.369 1110.51 553.089 1110.51Z" fill="#808080"/>
<path d="M697.445 1110.41H561.764L554.186 1109.1C550.243 1108.42 546.639 1111.46 546.639 1115.46V1160.47C546.639 1163.88 548.263 1167.08 551.012 1169.09L558.744 1174.75C561.117 1176.49 563.994 1177.41 566.936 1177.35L708.988 1174.83L710.353 1168L697.445 1110.41Z" fill="url(#paint61_linear_73_7)"/>
<path d="M613.106 1094.77H601.563C599.815 1094.77 598.398 1096.19 598.398 1097.93V1102.78C598.398 1104.52 599.815 1105.94 601.563 1105.94H613.106C614.854 1105.94 616.271 1104.52 616.271 1102.78V1097.93C616.271 1096.19 614.854 1094.77 613.106 1094.77Z" fill="#97A6B7"/>
<path d="M680.876 1094.77H669.333C667.585 1094.77 666.168 1096.19 666.168 1097.93V1102.78C666.168 1104.52 667.585 1105.94 669.333 1105.94H680.876C682.624 1105.94 684.041 1104.52 684.041 1102.78V1097.93C684.041 1096.19 682.624 1094.77 680.876 1094.77Z" fill="#97A6B7"/>
<path opacity="0.3" d="M654.997 1142.43C619.984 1129.04 587.049 1145.73 571.96 1127.54C567.88 1122.62 566.233 1116.5 565.851 1110.41H561.765L554.188 1109.1C550.245 1108.42 546.64 1111.46 546.64 1115.46V1160.47C546.64 1163.88 548.265 1167.08 551.014 1169.09L558.746 1174.75C561.119 1176.49 563.996 1177.4 566.938 1177.35L695.616 1175.06C681.069 1155.46 666.297 1146.75 654.997 1142.43Z" fill="white"/>
<path d="M758.263 1280.2V1341.5C758.263 1347.21 762.579 1351.98 768.253 1352.56L1395.95 1412.04L1480.43 1467.96L1597.1 1312.76L758.263 1280.2Z" fill="url(#paint62_linear_73_7)"/>
<path d="M1239.39 1364.45V1419.32C1239.39 1423.93 1242.73 1427.84 1247.27 1428.57L1397.96 1452.78L1393.58 1364.33L1249.35 1355.11C1243.96 1354.76 1239.39 1359.04 1239.39 1364.45Z" fill="url(#paint63_linear_73_7)"/>
<path d="M821.85 1308.48C821.339 1308.48 820.834 1308.52 820.332 1308.57L812.363 1308.48L812.41 1311.99C804.689 1318.02 799.331 1331.22 799.331 1346.55C799.331 1362.47 805.12 1376.11 813.335 1381.79L813.372 1384.61H821.85C834.287 1384.61 844.369 1367.57 844.369 1346.55C844.369 1325.52 834.287 1308.48 821.85 1308.48Z" fill="url(#paint64_linear_73_7)"/>
<path d="M812.363 1384.61C824.8 1384.61 834.882 1367.57 834.882 1346.54C834.882 1325.52 824.8 1308.48 812.363 1308.48C799.926 1308.48 789.844 1325.52 789.844 1346.54C789.844 1367.57 799.926 1384.61 812.363 1384.61Z" fill="url(#paint65_linear_73_7)"/>
<path d="M821.85 1346.54C821.85 1358.36 816.186 1367.93 809.199 1367.93C802.212 1367.93 796.548 1358.36 796.548 1346.54C796.548 1334.73 802.212 1325.16 809.199 1325.16C816.186 1325.16 821.85 1334.73 821.85 1346.54Z" fill="#D8DEE8"/>
<path d="M821.85 1346.55C821.85 1357.51 817.043 1366.4 811.113 1366.4C805.183 1366.4 800.376 1357.51 800.376 1346.55C800.376 1335.58 805.183 1326.69 811.113 1326.69C817.043 1326.69 821.85 1335.58 821.85 1346.55Z" fill="url(#paint66_linear_73_7)"/>
<path d="M875.067 1312.76C874.507 1312.76 873.954 1312.8 873.404 1312.87L864.673 1312.76L864.724 1316.6C856.265 1323.22 850.394 1337.68 850.394 1354.47C850.394 1371.92 856.737 1386.86 865.737 1393.08L865.778 1396.18H875.067C888.693 1396.18 899.74 1377.5 899.74 1354.47C899.739 1331.43 888.693 1312.76 875.067 1312.76Z" fill="url(#paint67_linear_73_7)"/>
<path d="M864.673 1396.18C878.299 1396.18 889.346 1377.5 889.346 1354.47C889.346 1331.43 878.299 1312.76 864.673 1312.76C851.046 1312.76 840 1331.43 840 1354.47C840 1377.5 851.046 1396.18 864.673 1396.18Z" fill="url(#paint68_linear_73_7)"/>
<path d="M861.205 1377.9C868.86 1377.9 875.066 1367.41 875.066 1354.47C875.066 1341.53 868.86 1331.04 861.205 1331.04C853.549 1331.04 847.344 1341.53 847.344 1354.47C847.344 1367.41 853.549 1377.9 861.205 1377.9Z" fill="#D8DEE8"/>
<path d="M863.303 1376.22C869.8 1376.22 875.067 1366.48 875.067 1354.47C875.067 1342.45 869.8 1332.71 863.303 1332.71C856.806 1332.71 851.539 1342.45 851.539 1354.47C851.539 1366.48 856.806 1376.22 863.303 1376.22Z" fill="url(#paint69_linear_73_7)"/>
<path d="M931.872 1312.76C931.261 1312.76 930.657 1312.81 930.056 1312.88L920.523 1312.76L920.579 1316.96C911.343 1324.18 904.932 1339.97 904.932 1358.3C904.932 1377.36 911.858 1393.67 921.685 1400.46L921.73 1403.84H931.872C946.75 1403.84 958.812 1383.45 958.812 1358.3C958.811 1333.15 946.75 1312.76 931.872 1312.76Z" fill="url(#paint70_linear_73_7)"/>
<path d="M920.523 1403.84C935.402 1403.84 947.463 1383.45 947.463 1358.3C947.463 1333.15 935.402 1312.76 920.523 1312.76C905.645 1312.76 893.583 1333.15 893.583 1358.3C893.583 1383.45 905.645 1403.84 920.523 1403.84Z" fill="url(#paint71_linear_73_7)"/>
<path d="M931.872 1358.3C931.872 1372.43 925.096 1383.88 916.737 1383.88C908.378 1383.88 901.602 1372.43 901.602 1358.3C901.602 1344.17 908.378 1332.71 916.737 1332.71C925.096 1332.72 931.872 1344.17 931.872 1358.3Z" fill="#D8DEE8"/>
<path d="M931.872 1358.3C931.872 1371.42 926.121 1382.05 919.027 1382.05C911.933 1382.05 906.182 1371.42 906.182 1358.3C906.182 1345.18 911.933 1334.55 919.027 1334.55C926.121 1334.55 931.872 1345.18 931.872 1358.3Z" fill="url(#paint72_linear_73_7)"/>
<path d="M1193.79 1336.51C1193.01 1336.51 1192.24 1336.57 1191.47 1336.66L1179.3 1336.51L1179.37 1341.87C1167.58 1351.09 1159.4 1371.25 1159.4 1394.65C1159.4 1418.97 1168.24 1439.8 1180.78 1448.47L1180.84 1452.78H1193.79C1212.78 1452.78 1228.18 1426.75 1228.18 1394.65C1228.18 1362.54 1212.78 1336.51 1193.79 1336.51Z" fill="url(#paint73_linear_73_7)"/>
<path d="M1179.3 1452.78C1198.29 1452.78 1213.69 1426.76 1213.69 1394.65C1213.69 1362.54 1198.29 1336.51 1179.3 1336.51C1160.31 1336.51 1144.91 1362.54 1144.91 1394.65C1144.91 1426.76 1160.31 1452.78 1179.3 1452.78Z" fill="url(#paint74_linear_73_7)"/>
<path d="M1174.47 1427.31C1185.14 1427.31 1193.79 1412.69 1193.79 1394.65C1193.79 1376.61 1185.14 1361.99 1174.47 1361.99C1163.8 1361.99 1155.15 1376.61 1155.15 1394.65C1155.15 1412.69 1163.8 1427.31 1174.47 1427.31Z" fill="#D8DEE8"/>
<path d="M1193.79 1394.65C1193.79 1411.4 1186.45 1424.97 1177.39 1424.97C1168.33 1424.97 1160.99 1411.4 1160.99 1394.65C1160.99 1377.9 1168.33 1364.33 1177.39 1364.33C1186.45 1364.33 1193.79 1377.9 1193.79 1394.65Z" fill="url(#paint75_linear_73_7)"/>
<path d="M1422.65 1345.7C1421.65 1345.7 1420.66 1345.78 1419.68 1345.89L1404.14 1345.7L1404.23 1352.55C1389.17 1364.32 1378.71 1390.08 1378.71 1419.97C1378.71 1451.05 1390.01 1477.65 1406.03 1488.73L1406.11 1494.24H1422.65C1446.91 1494.24 1466.58 1460.99 1466.58 1419.97C1466.58 1378.96 1446.91 1345.7 1422.65 1345.7Z" fill="url(#paint76_linear_73_7)"/>
<path d="M1404.14 1494.24C1428.4 1494.24 1448.07 1460.99 1448.07 1419.97C1448.07 1378.95 1428.4 1345.7 1404.14 1345.7C1379.87 1345.7 1360.2 1378.95 1360.2 1419.97C1360.2 1460.99 1379.87 1494.24 1404.14 1494.24Z" fill="url(#paint77_linear_73_7)"/>
<path d="M1397.96 1461.7C1411.6 1461.7 1422.65 1443.02 1422.65 1419.97C1422.65 1396.93 1411.6 1378.25 1397.96 1378.25C1384.33 1378.25 1373.28 1396.93 1373.28 1419.97C1373.28 1443.02 1384.33 1461.7 1397.96 1461.7Z" fill="#D8DEE8"/>
<path d="M1401.7 1458.71C1413.27 1458.71 1422.65 1441.37 1422.65 1419.97C1422.65 1398.58 1413.27 1381.24 1401.7 1381.24C1390.13 1381.24 1380.75 1398.58 1380.75 1419.97C1380.75 1441.37 1390.13 1458.71 1401.7 1458.71Z" fill="url(#paint78_linear_73_7)"/>
<path d="M720.924 953.86C712.704 955.227 706.679 962.337 706.679 970.669V1281.43C706.679 1290.48 713.741 1297.94 722.769 1298.45L1306.88 1331.04V856.438L720.924 953.86Z" fill="url(#paint79_linear_73_7)"/>
<path d="M1636.27 867.52L1306.88 856.438V1331.04H1653.99V885.835C1653.99 875.954 1646.15 867.852 1636.27 867.52Z" fill="url(#paint80_linear_73_7)"/>
<path opacity="0.3" d="M1183.47 1211.74C1108.46 1177.19 1038.05 1229.92 969.418 1178.96C909.316 1134.32 928.694 1068.17 880.713 989.976C869.727 972.071 855.014 953.277 834.906 934.91L720.925 953.861C712.705 955.228 706.68 962.338 706.68 970.67V1281.43C706.68 1290.48 713.742 1297.94 722.77 1298.45L1276.75 1329.36C1251.33 1259.81 1216.78 1227.08 1183.47 1211.74Z" fill="url(#paint81_linear_73_7)"/>
<path d="M1829.46 1180.88L1805.12 1119.66L1804.4 1069.04L1828.99 1064.12C1831.37 1063.65 1832.88 1061.29 1832.29 1058.93C1828.57 1044 1814.96 994.696 1793.79 978.407C1778.87 966.927 1495.86 963.494 1495.86 963.494L1359.64 972.349C1348.95 973.045 1340.63 981.925 1340.63 992.645V1294.48C1340.63 1302.4 1346.68 1309.01 1354.57 1309.69L1448.07 1317.8L1466.58 1336.51C1466.58 1336.51 1731.59 1357.73 1837.35 1338.45C1842.83 1337.45 1846.82 1332.71 1846.82 1327.14V1194.38C1846.82 1175.1 1829.46 1180.88 1829.46 1180.88Z" fill="#F4F7FA"/>
<path opacity="0.8" d="M1542.14 1199.2C1542.14 1199.2 1539.25 1068.07 1542.14 1014.08C1543.54 987.889 1530.42 972.607 1516.54 963.794C1503.6 963.586 1495.86 963.492 1495.86 963.492L1359.64 972.347C1348.95 973.043 1340.63 981.923 1340.63 992.643V1294.48C1340.63 1302.4 1346.68 1309 1354.57 1309.69L1448.07 1317.8L1466.58 1336.51C1466.58 1336.51 1510.22 1340.01 1569.14 1342.87V1231.02L1542.14 1199.2Z" fill="url(#paint82_linear_73_7)"/>
<path d="M1843.8 1361.97L1833.32 1358.3V1337.06C1833.32 1331.33 1828.68 1326.69 1822.96 1326.69H1494.77C1486.85 1326.69 1480.43 1333.11 1480.43 1341.02V1467.95C1480.43 1474.94 1486.24 1480.52 1493.21 1480.25L1844.63 1466.74C1851.24 1466.48 1856.46 1461.05 1856.46 1454.44V1379.81C1856.46 1371.78 1851.38 1364.62 1843.8 1361.97Z" fill="#97A6B7"/>
<path d="M1803.81 1252.91H1609.22C1602.67 1252.91 1597.49 1258.47 1597.95 1265L1608.67 1417.78C1609.21 1425.46 1615.72 1431.33 1623.41 1431.07L1790.59 1425.4C1797.9 1425.16 1803.84 1419.44 1804.37 1412.16L1815.09 1265.03C1815.56 1258.49 1810.38 1252.91 1803.81 1252.91Z" fill="url(#paint83_linear_73_7)"/>
<g opacity="0.3">
<path d="M1843.8 1361.97L1833.32 1358.3V1337.06C1833.32 1332.53 1830.42 1328.7 1826.38 1327.28L1806.41 1421.18C1804.03 1432.37 1794.36 1440.51 1782.94 1440.95L1629.56 1446.91C1618.57 1447.34 1608.59 1440.53 1604.98 1430.13L1569.14 1326.69H1494.77C1486.85 1326.69 1480.44 1333.11 1480.44 1341.03V1467.95C1480.44 1474.94 1486.24 1480.52 1493.22 1480.25L1844.63 1466.74C1851.24 1466.48 1856.47 1461.05 1856.47 1454.44V1379.81C1856.46 1371.78 1851.38 1364.62 1843.8 1361.97Z" fill="#97A6B7"/>
</g>
<path d="M1585.53 1438.32L1549.04 1440.14C1526.38 1441.28 1506.91 1424.23 1505.04 1401.62L1503.57 1383.88H1576.63C1581.55 1383.88 1585.53 1387.87 1585.53 1392.78V1438.32Z" fill="url(#paint84_linear_73_7)"/>
<path d="M1820.94 1391.39L1815.12 1431.08C1815.12 1431.08 1853.59 1429.73 1852.62 1381.23L1828.75 1383.86C1824.74 1384.3 1821.53 1387.4 1820.94 1391.39Z" fill="url(#paint85_linear_73_7)"/>
<path d="M1550.48 1200.55C1544.64 1200.55 1538.86 1198.67 1534.15 1195.22L1519.13 1184.22C1513.43 1180.04 1510.02 1173.33 1510.02 1166.26V1078.85C1510.02 1074.7 1511.84 1070.79 1515.02 1068.11C1518.19 1065.45 1522.35 1064.32 1526.44 1065.02L1541.16 1067.55L1805.6 1067.53L1831 1180.87L1828.05 1195.63L1826.84 1195.65L1550.97 1200.55C1550.81 1200.55 1550.64 1200.55 1550.48 1200.55ZM1524.05 1067.82C1521.47 1067.82 1518.96 1068.73 1516.96 1070.42C1514.46 1072.51 1513.03 1075.59 1513.03 1078.85V1166.26C1513.03 1172.38 1515.98 1178.18 1520.91 1181.79L1535.93 1192.79C1540.24 1195.95 1545.47 1197.71 1550.92 1197.54L1825.58 1192.66L1827.93 1180.9L1803.19 1070.54H1540.9L1525.93 1067.99C1525.3 1067.88 1524.67 1067.82 1524.05 1067.82Z" fill="#808080"/>
<path d="M1804.4 1069.04H1540.9L1526.19 1066.5C1518.53 1065.18 1511.53 1071.08 1511.53 1078.85V1166.26C1511.53 1172.88 1514.68 1179.1 1520.02 1183.01L1535.04 1194C1539.65 1197.38 1545.23 1199.15 1550.95 1199.05L1826.82 1194.14L1829.47 1180.88L1804.4 1069.04Z" fill="url(#paint86_linear_73_7)"/>
<path d="M1640.61 1038.67H1618.19C1614.8 1038.67 1612.04 1041.42 1612.04 1044.81V1054.21C1612.04 1057.61 1614.79 1060.36 1618.19 1060.36H1640.61C1644 1060.36 1646.75 1057.61 1646.75 1054.21V1044.81C1646.75 1041.42 1644 1038.67 1640.61 1038.67Z" fill="#97A6B7"/>
<path d="M1772.22 1038.67H1749.8C1746.41 1038.67 1743.65 1041.42 1743.65 1044.81V1054.21C1743.65 1057.61 1746.4 1060.36 1749.8 1060.36H1772.22C1775.61 1060.36 1778.36 1057.61 1778.36 1054.21V1044.81C1778.36 1041.42 1775.61 1038.67 1772.22 1038.67Z" fill="#97A6B7"/>
<path opacity="0.3" d="M1721.96 1131.23C1653.96 1105.22 1590 1137.63 1560.7 1102.3C1552.78 1092.75 1549.58 1080.86 1548.84 1069.04H1540.9L1526.19 1066.5C1518.53 1065.18 1511.53 1071.08 1511.53 1078.85V1166.26C1511.53 1172.88 1514.68 1179.1 1520.02 1183L1535.04 1194C1539.65 1197.37 1545.23 1199.15 1550.95 1199.04L1800.84 1194.6C1772.59 1156.53 1743.91 1139.62 1721.96 1131.23Z" fill="white"/>
<defs>
<linearGradient id="paint0_linear_73_7" x1="1560.21" y1="545.884" x2="1567.72" y2="503.084" gradientUnits="userSpaceOnUse">
<stop stop-color="#AA80F9"/>
<stop offset="0.9964" stop-color="#6165D7"/>
</linearGradient>
<linearGradient id="paint1_linear_73_7" x1="1560.21" y1="641.25" x2="1567.72" y2="598.448" gradientUnits="userSpaceOnUse">
<stop stop-color="#AA80F9"/>
<stop offset="0.9964" stop-color="#6165D7"/>
</linearGradient>
<linearGradient id="paint2_linear_73_7" x1="1707.58" y1="545.884" x2="1715.08" y2="503.084" gradientUnits="userSpaceOnUse">
<stop stop-color="#AA80F9"/>
<stop offset="0.9964" stop-color="#6165D7"/>
</linearGradient>
<linearGradient id="paint3_linear_73_7" x1="1707.58" y1="641.25" x2="1715.08" y2="598.448" gradientUnits="userSpaceOnUse">
<stop stop-color="#AA80F9"/>
<stop offset="0.9964" stop-color="#6165D7"/>
</linearGradient>
<linearGradient id="paint4_linear_73_7" x1="1879.32" y1="641.25" x2="1886.83" y2="598.448" gradientUnits="userSpaceOnUse">
<stop stop-color="#FFC444"/>
<stop offset="0.9964" stop-color="#F36F56"/>
</linearGradient>
<linearGradient id="paint5_linear_73_7" x1="1748.98" y1="718.162" x2="1530.63" y2="1039.19" gradientUnits="userSpaceOnUse">
<stop stop-color="#FFC444"/>
<stop offset="0.9964" stop-color="#F36F56"/>
</linearGradient>
<linearGradient id="paint6_linear_73_7" x1="1742.08" y1="728.304" x2="1537.3" y2="1029.37" gradientUnits="userSpaceOnUse">
<stop stop-color="#FFC444"/>
<stop offset="0.9964" stop-color="#F36F56"/>
</linearGradient>
<linearGradient id="paint7_linear_73_7" x1="1760.54" y1="773.642" x2="1624.79" y2="1072.87" gradientUnits="userSpaceOnUse">
<stop stop-color="#FFC444"/>
<stop offset="0.9964" stop-color="#F36F56"/>
</linearGradient>
<linearGradient id="paint8_linear_73_7" x1="1638.33" y1="718.199" x2="1502.58" y2="1017.43" gradientUnits="userSpaceOnUse">
<stop stop-color="#FFC444"/>
<stop offset="0.9964" stop-color="#F36F56"/>
</linearGradient>
<linearGradient id="paint9_linear_73_7" x1="1560.52" y1="855.37" x2="1568.03" y2="812.569" gradientUnits="userSpaceOnUse">
<stop stop-color="#FFC444"/>
<stop offset="0.9964" stop-color="#F36F56"/>
</linearGradient>
<linearGradient id="paint10_linear_73_7" x1="1560.52" y1="950.735" x2="1568.03" y2="907.934" gradientUnits="userSpaceOnUse">
<stop stop-color="#FFC444"/>
<stop offset="0.9964" stop-color="#F36F56"/>
</linearGradient>
<linearGradient id="paint11_linear_73_7" x1="1707.88" y1="855.37" x2="1715.39" y2="812.569" gradientUnits="userSpaceOnUse">
<stop stop-color="#FFC444"/>
<stop offset="0.9964" stop-color="#F36F56"/>
</linearGradient>
<linearGradient id="paint12_linear_73_7" x1="1707.88" y1="950.735" x2="1715.39" y2="907.934" gradientUnits="userSpaceOnUse">
<stop stop-color="#FFC444"/>
<stop offset="0.9964" stop-color="#F36F56"/>
</linearGradient>
<linearGradient id="paint13_linear_73_7" x1="1861.04" y1="878.887" x2="1887.99" y2="878.887" gradientUnits="userSpaceOnUse">
<stop offset="0.0036" stop-color="#E38DDD"/>
<stop offset="1" stop-color="#9571F6"/>
</linearGradient>
<linearGradient id="paint14_linear_73_7" x1="1825.54" y1="815.994" x2="2169.31" y2="1212.54" gradientUnits="userSpaceOnUse">
<stop offset="0.0036" stop-color="#E38DDD"/>
<stop offset="1" stop-color="#9571F6"/>
</linearGradient>
<linearGradient id="paint15_linear_73_7" x1="1929.73" y1="878.887" x2="1956.68" y2="878.887" gradientUnits="userSpaceOnUse">
<stop offset="0.0036" stop-color="#E38DDD"/>
<stop offset="1" stop-color="#9571F6"/>
</linearGradient>
<linearGradient id="paint16_linear_73_7" x1="1866.98" y1="784.551" x2="2210.75" y2="1181.1" gradientUnits="userSpaceOnUse">
<stop offset="0.0036" stop-color="#E38DDD"/>
<stop offset="1" stop-color="#9571F6"/>
</linearGradient>
<linearGradient id="paint17_linear_73_7" x1="1998.43" y1="878.887" x2="2025.38" y2="878.887" gradientUnits="userSpaceOnUse">
<stop offset="0.0036" stop-color="#E38DDD"/>
<stop offset="1" stop-color="#9571F6"/>
</linearGradient>
<linearGradient id="paint18_linear_73_7" x1="1908.42" y1="753.107" x2="2252.19" y2="1149.65" gradientUnits="userSpaceOnUse">
<stop offset="0.0036" stop-color="#E38DDD"/>
<stop offset="1" stop-color="#9571F6"/>
</linearGradient>
<linearGradient id="paint19_linear_73_7" x1="67.2519" y1="145.985" x2="1469.07" y2="1271.06" gradientUnits="userSpaceOnUse">
<stop stop-color="#D8DEE8"/>
<stop offset="1" stop-color="white"/>
</linearGradient>
<linearGradient id="paint20_linear_73_7" x1="-197.723" y1="700.712" x2="558.068" y2="700.712" gradientUnits="userSpaceOnUse">
<stop stop-color="#D8DEE8"/>
<stop offset="1" stop-color="white"/>
</linearGradient>
<linearGradient id="paint21_linear_73_7" x1="1414.17" y1="1339.8" x2="2091.79" y2="1339.8" gradientUnits="userSpaceOnUse">
<stop stop-color="#444B8C"/>
<stop offset="0.9964" stop-color="#26264F"/>
</linearGradient>
<linearGradient id="paint22_linear_73_7" x1="1802.83" y1="1363.92" x2="1930.92" y2="1363.92" gradientUnits="userSpaceOnUse">
<stop stop-color="#444B8C"/>
<stop offset="0.9964" stop-color="#26264F"/>
</linearGradient>
<linearGradient id="paint23_linear_73_7" x1="1447.34" y1="1317.56" x2="1483.73" y2="1317.56" gradientUnits="userSpaceOnUse">
<stop stop-color="#311944"/>
<stop offset="1" stop-color="#6B3976"/>
</linearGradient>
<linearGradient id="paint24_linear_73_7" x1="1439.68" y1="1317.56" x2="1476.06" y2="1317.56" gradientUnits="userSpaceOnUse">
<stop stop-color="#311944"/>
<stop offset="1" stop-color="#6B3976"/>
</linearGradient>
<linearGradient id="paint25_linear_73_7" x1="1475.12" y1="1320.02" x2="1446.71" y2="1316.19" gradientUnits="userSpaceOnUse">
<stop offset="0.0054" stop-color="#D8DEE8"/>
<stop offset="1" stop-color="#F4F7FA"/>
</linearGradient>
<linearGradient id="paint26_linear_73_7" x1="1488.59" y1="1323.96" x2="1528.45" y2="1323.96" gradientUnits="userSpaceOnUse">
<stop stop-color="#311944"/>
<stop offset="1" stop-color="#6B3976"/>
</linearGradient>
<linearGradient id="paint27_linear_73_7" x1="1480.2" y1="1323.96" x2="1520.06" y2="1323.96" gradientUnits="userSpaceOnUse">
<stop stop-color="#311944"/>
<stop offset="1" stop-color="#6B3976"/>
</linearGradient>
<linearGradient id="paint28_linear_73_7" x1="1519.03" y1="1326.65" x2="1487.9" y2="1322.46" gradientUnits="userSpaceOnUse">
<stop offset="0.0054" stop-color="#D8DEE8"/>
<stop offset="1" stop-color="#F4F7FA"/>
</linearGradient>
<linearGradient id="paint29_linear_73_7" x1="1532.65" y1="1327.05" x2="1576.17" y2="1327.05" gradientUnits="userSpaceOnUse">
<stop stop-color="#311944"/>
<stop offset="1" stop-color="#6B3976"/>
</linearGradient>
<linearGradient id="paint30_linear_73_7" x1="1523.48" y1="1327.05" x2="1567.01" y2="1327.05" gradientUnits="userSpaceOnUse">
<stop stop-color="#311944"/>
<stop offset="1" stop-color="#6B3976"/>
</linearGradient>
<linearGradient id="paint31_linear_73_7" x1="1565.88" y1="1329.99" x2="1531.89" y2="1325.42" gradientUnits="userSpaceOnUse">
<stop offset="0.0054" stop-color="#D8DEE8"/>
<stop offset="1" stop-color="#F4F7FA"/>
</linearGradient>
<linearGradient id="paint32_linear_73_7" x1="1738.21" y1="1356.42" x2="1793.77" y2="1356.42" gradientUnits="userSpaceOnUse">
<stop stop-color="#311944"/>
<stop offset="1" stop-color="#6B3976"/>
</linearGradient>
<linearGradient id="paint33_linear_73_7" x1="1726.5" y1="1356.42" x2="1782.07" y2="1356.42" gradientUnits="userSpaceOnUse">
<stop stop-color="#311944"/>
<stop offset="1" stop-color="#6B3976"/>
</linearGradient>
<linearGradient id="paint34_linear_73_7" x1="1780.63" y1="1360.17" x2="1737.24" y2="1354.33" gradientUnits="userSpaceOnUse">
<stop offset="0.0054" stop-color="#D8DEE8"/>
<stop offset="1" stop-color="#F4F7FA"/>
</linearGradient>
<linearGradient id="paint35_linear_73_7" x1="1915.37" y1="1376.87" x2="1986.35" y2="1376.87" gradientUnits="userSpaceOnUse">
<stop stop-color="#311944"/>
<stop offset="1" stop-color="#6B3976"/>
</linearGradient>
<linearGradient id="paint36_linear_73_7" x1="1900.42" y1="1376.87" x2="1971.4" y2="1376.87" gradientUnits="userSpaceOnUse">
<stop stop-color="#311944"/>
<stop offset="1" stop-color="#6B3976"/>
</linearGradient>
<linearGradient id="paint37_linear_73_7" x1="1969.56" y1="1381.67" x2="1914.13" y2="1374.21" gradientUnits="userSpaceOnUse">
<stop offset="0.0054" stop-color="#D8DEE8"/>
<stop offset="1" stop-color="#F4F7FA"/>
</linearGradient>
<linearGradient id="paint38_linear_73_7" x1="1773.33" y1="1052.81" x2="1056.68" y2="1518.49" gradientUnits="userSpaceOnUse">
<stop stop-color="#FFC444"/>
<stop offset="0.3138" stop-color="#FBA94A"/>
<stop offset="0.9964" stop-color="#F36F56"/>
</linearGradient>
<linearGradient id="paint39_linear_73_7" x1="2252.51" y1="951.207" x2="1708.75" y2="1296.98" gradientUnits="userSpaceOnUse">
<stop stop-color="#FFC444"/>
<stop offset="0.3138" stop-color="#FBA94A"/>
<stop offset="0.9964" stop-color="#F36F56"/>
</linearGradient>
<linearGradient id="paint40_linear_73_7" x1="1372.5" y1="1144.35" x2="1833.01" y2="1144.35" gradientUnits="userSpaceOnUse">
<stop stop-color="#FFC444"/>
<stop offset="0.9964" stop-color="#F36F56"/>
</linearGradient>
<linearGradient id="paint41_linear_73_7" x1="1884.61" y1="1161.36" x2="2069.2" y2="1161.36" gradientUnits="userSpaceOnUse">
<stop offset="0.0054" stop-color="#D8DEE8"/>
<stop offset="1" stop-color="#F4F7FA"/>
</linearGradient>
<linearGradient id="paint42_linear_73_7" x1="2092.45" y1="1313.88" x2="2267.9" y2="1313.88" gradientUnits="userSpaceOnUse">
<stop stop-color="#444B8C"/>
<stop offset="0.9964" stop-color="#26264F"/>
</linearGradient>
<linearGradient id="paint43_linear_73_7" x1="2066.07" y1="1311.4" x2="1979.63" y2="1612.56" gradientUnits="userSpaceOnUse">
<stop stop-color="#FF9085"/>
<stop offset="1" stop-color="#FB6FBB"/>
</linearGradient>
<linearGradient id="paint44_linear_73_7" x1="2280.12" y1="1372.84" x2="2193.68" y2="1674" gradientUnits="userSpaceOnUse">
<stop stop-color="#FF9085"/>
<stop offset="1" stop-color="#FB6FBB"/>
</linearGradient>
<linearGradient id="paint45_linear_73_7" x1="2022.66" y1="1144.8" x2="2279.49" y2="1144.8" gradientUnits="userSpaceOnUse">
<stop stop-color="#444B8C"/>
<stop offset="0.9964" stop-color="#26264F"/>
</linearGradient>
<linearGradient id="paint46_linear_73_7" x1="158.763" y1="1269.98" x2="590.702" y2="1269.98" gradientUnits="userSpaceOnUse">
<stop stop-color="#444B8C"/>
<stop offset="0.9964" stop-color="#26264F"/>
</linearGradient>
<linearGradient id="paint47_linear_73_7" x1="406.507" y1="1282.85" x2="488.162" y2="1282.85" gradientUnits="userSpaceOnUse">
<stop stop-color="#444B8C"/>
<stop offset="0.9964" stop-color="#26264F"/>
</linearGradient>
<linearGradient id="paint48_linear_73_7" x1="365.317" y1="1278.07" x2="400.735" y2="1278.07" gradientUnits="userSpaceOnUse">
<stop stop-color="#311944"/>
<stop offset="1" stop-color="#6B3976"/>
</linearGradient>
<linearGradient id="paint49_linear_73_7" x1="357.858" y1="1278.07" x2="393.275" y2="1278.07" gradientUnits="userSpaceOnUse">
<stop stop-color="#311944"/>
<stop offset="1" stop-color="#6B3976"/>
</linearGradient>
<linearGradient id="paint50_linear_73_7" x1="392.357" y1="1280.46" x2="364.701" y2="1276.74" gradientUnits="userSpaceOnUse">
<stop offset="0.0054" stop-color="#D8DEE8"/>
<stop offset="1" stop-color="#F4F7FA"/>
</linearGradient>
<linearGradient id="paint51_linear_73_7" x1="478.248" y1="1291.11" x2="523.496" y2="1291.11" gradientUnits="userSpaceOnUse">
<stop stop-color="#311944"/>
<stop offset="1" stop-color="#6B3976"/>
</linearGradient>
<linearGradient id="paint52_linear_73_7" x1="468.717" y1="1291.11" x2="513.965" y2="1291.11" gradientUnits="userSpaceOnUse">
<stop stop-color="#311944"/>
<stop offset="1" stop-color="#6B3976"/>
</linearGradient>
<linearGradient id="paint53_linear_73_7" x1="512.793" y1="1294.17" x2="477.46" y2="1289.42" gradientUnits="userSpaceOnUse">
<stop offset="0.0054" stop-color="#D8DEE8"/>
<stop offset="1" stop-color="#F4F7FA"/>
</linearGradient>
<linearGradient id="paint54_linear_73_7" x1="404.261" y1="1110.02" x2="-52.5553" y2="1406.86" gradientUnits="userSpaceOnUse">
<stop stop-color="#FFC444"/>
<stop offset="0.3138" stop-color="#FBA94A"/>
<stop offset="0.9964" stop-color="#F36F56"/>
</linearGradient>
<linearGradient id="paint55_linear_73_7" x1="693.151" y1="1019.78" x2="346.539" y2="1240.19" gradientUnits="userSpaceOnUse">
<stop stop-color="#FFC444"/>
<stop offset="0.3138" stop-color="#FBA94A"/>
<stop offset="0.9964" stop-color="#F36F56"/>
</linearGradient>
<linearGradient id="paint56_linear_73_7" x1="132.201" y1="1210.63" x2="425.746" y2="1210.63" gradientUnits="userSpaceOnUse">
<stop stop-color="#FFC444"/>
<stop offset="0.9964" stop-color="#F36F56"/>
</linearGradient>
<linearGradient id="paint57_linear_73_7" x1="458.638" y1="1153.73" x2="576.304" y2="1153.73" gradientUnits="userSpaceOnUse">
<stop offset="0.0054" stop-color="#D8DEE8"/>
<stop offset="1" stop-color="#F4F7FA"/>
</linearGradient>
<linearGradient id="paint58_linear_73_7" x1="591.125" y1="1250.96" x2="702.965" y2="1250.96" gradientUnits="userSpaceOnUse">
<stop stop-color="#444B8C"/>
<stop offset="0.9964" stop-color="#26264F"/>
</linearGradient>
<linearGradient id="paint59_linear_73_7" x1="574.312" y1="1249.38" x2="519.209" y2="1441.35" gradientUnits="userSpaceOnUse">
<stop stop-color="#FF9085"/>
<stop offset="1" stop-color="#FB6FBB"/>
</linearGradient>
<linearGradient id="paint60_linear_73_7" x1="710.751" y1="1288.54" x2="655.649" y2="1480.51" gradientUnits="userSpaceOnUse">
<stop stop-color="#FF9085"/>
<stop offset="1" stop-color="#FB6FBB"/>
</linearGradient>
<linearGradient id="paint61_linear_73_7" x1="546.639" y1="1143.18" x2="710.354" y2="1143.18" gradientUnits="userSpaceOnUse">
<stop stop-color="#444B8C"/>
<stop offset="0.9964" stop-color="#26264F"/>
</linearGradient>
<linearGradient id="paint62_linear_73_7" x1="758.263" y1="1374.08" x2="1597.1" y2="1374.08" gradientUnits="userSpaceOnUse">
<stop stop-color="#444B8C"/>
<stop offset="0.9964" stop-color="#26264F"/>
</linearGradient>
<linearGradient id="paint63_linear_73_7" x1="1239.39" y1="1403.93" x2="1397.96" y2="1403.93" gradientUnits="userSpaceOnUse">
<stop stop-color="#444B8C"/>
<stop offset="0.9964" stop-color="#26264F"/>
</linearGradient>
<linearGradient id="paint64_linear_73_7" x1="799.331" y1="1346.54" x2="844.369" y2="1346.54" gradientUnits="userSpaceOnUse">
<stop stop-color="#311944"/>
<stop offset="1" stop-color="#6B3976"/>
</linearGradient>
<linearGradient id="paint65_linear_73_7" x1="789.845" y1="1346.54" x2="834.883" y2="1346.54" gradientUnits="userSpaceOnUse">
<stop stop-color="#311944"/>
<stop offset="1" stop-color="#6B3976"/>
</linearGradient>
<linearGradient id="paint66_linear_73_7" x1="833.716" y1="1349.59" x2="798.547" y2="1344.85" gradientUnits="userSpaceOnUse">
<stop offset="0.0054" stop-color="#D8DEE8"/>
<stop offset="1" stop-color="#F4F7FA"/>
</linearGradient>
<linearGradient id="paint67_linear_73_7" x1="850.394" y1="1354.47" x2="899.74" y2="1354.47" gradientUnits="userSpaceOnUse">
<stop stop-color="#311944"/>
<stop offset="1" stop-color="#6B3976"/>
</linearGradient>
<linearGradient id="paint68_linear_73_7" x1="840" y1="1354.47" x2="889.345" y2="1354.47" gradientUnits="userSpaceOnUse">
<stop stop-color="#311944"/>
<stop offset="1" stop-color="#6B3976"/>
</linearGradient>
<linearGradient id="paint69_linear_73_7" x1="888.067" y1="1357.8" x2="849.535" y2="1352.62" gradientUnits="userSpaceOnUse">
<stop offset="0.0054" stop-color="#D8DEE8"/>
<stop offset="1" stop-color="#F4F7FA"/>
</linearGradient>
<linearGradient id="paint70_linear_73_7" x1="904.932" y1="1358.3" x2="958.812" y2="1358.3" gradientUnits="userSpaceOnUse">
<stop stop-color="#311944"/>
<stop offset="1" stop-color="#6B3976"/>
</linearGradient>
<linearGradient id="paint71_linear_73_7" x1="893.584" y1="1358.3" x2="947.463" y2="1358.3" gradientUnits="userSpaceOnUse">
<stop stop-color="#311944"/>
<stop offset="1" stop-color="#6B3976"/>
</linearGradient>
<linearGradient id="paint72_linear_73_7" x1="946.067" y1="1361.94" x2="903.994" y2="1356.28" gradientUnits="userSpaceOnUse">
<stop offset="0.0054" stop-color="#D8DEE8"/>
<stop offset="1" stop-color="#F4F7FA"/>
</linearGradient>
<linearGradient id="paint73_linear_73_7" x1="1159.4" y1="1394.65" x2="1228.18" y2="1394.65" gradientUnits="userSpaceOnUse">
<stop stop-color="#311944"/>
<stop offset="1" stop-color="#6B3976"/>
</linearGradient>
<linearGradient id="paint74_linear_73_7" x1="1144.91" y1="1394.65" x2="1213.69" y2="1394.65" gradientUnits="userSpaceOnUse">
<stop stop-color="#311944"/>
<stop offset="1" stop-color="#6B3976"/>
</linearGradient>
<linearGradient id="paint75_linear_73_7" x1="1211.91" y1="1399.29" x2="1158.2" y2="1392.06" gradientUnits="userSpaceOnUse">
<stop offset="0.0054" stop-color="#D8DEE8"/>
<stop offset="1" stop-color="#F4F7FA"/>
</linearGradient>
<linearGradient id="paint76_linear_73_7" x1="1378.71" y1="1419.97" x2="1466.58" y2="1419.97" gradientUnits="userSpaceOnUse">
<stop stop-color="#311944"/>
<stop offset="1" stop-color="#6B3976"/>
</linearGradient>
<linearGradient id="paint77_linear_73_7" x1="1360.2" y1="1419.97" x2="1448.07" y2="1419.97" gradientUnits="userSpaceOnUse">
<stop stop-color="#311944"/>
<stop offset="1" stop-color="#6B3976"/>
</linearGradient>
<linearGradient id="paint78_linear_73_7" x1="1445.8" y1="1425.91" x2="1377.18" y2="1416.67" gradientUnits="userSpaceOnUse">
<stop offset="0.0054" stop-color="#D8DEE8"/>
<stop offset="1" stop-color="#F4F7FA"/>
</linearGradient>
<linearGradient id="paint79_linear_73_7" x1="1202.87" y1="1018.8" x2="315.726" y2="1595.28" gradientUnits="userSpaceOnUse">
<stop stop-color="#FFC444"/>
<stop offset="0.3138" stop-color="#FBA94A"/>
</linearGradient>
<linearGradient id="paint80_linear_73_7" x1="1796.06" y1="893.033" x2="1122.93" y2="1321.07" gradientUnits="userSpaceOnUse">
<stop stop-color="#FFC444"/>
<stop offset="0.3138" stop-color="#FBA94A"/>
<stop offset="0.9964" stop-color="#F36F56"/>
</linearGradient>
<linearGradient id="paint81_linear_73_7" x1="706.679" y1="1132.13" x2="1276.75" y2="1132.13" gradientUnits="userSpaceOnUse">
<stop stop-color="#FFC444"/>
<stop offset="0.9964" stop-color="#F36F56"/>
</linearGradient>
<linearGradient id="paint82_linear_73_7" x1="1340.63" y1="1153.18" x2="1569.14" y2="1153.18" gradientUnits="userSpaceOnUse">
<stop offset="0.0054" stop-color="#D8DEE8"/>
<stop offset="1" stop-color="#F4F7FA"/>
</linearGradient>
<linearGradient id="paint83_linear_73_7" x1="1597.92" y1="1342" x2="1815.11" y2="1342" gradientUnits="userSpaceOnUse">
<stop stop-color="#444B8C"/>
<stop offset="0.9964" stop-color="#26264F"/>
</linearGradient>
<linearGradient id="paint84_linear_73_7" x1="1565.27" y1="1338.93" x2="1458.26" y2="1711.74" gradientUnits="userSpaceOnUse">
<stop stop-color="#FF9085"/>
<stop offset="1" stop-color="#903FEE"/>
</linearGradient>
<linearGradient id="paint85_linear_73_7" x1="1830.24" y1="1414.98" x2="1723.23" y2="1787.79" gradientUnits="userSpaceOnUse">
<stop stop-color="#FF9085"/>
<stop offset="1" stop-color="#FE6336"/>
</linearGradient>
<linearGradient id="paint86_linear_73_7" x1="1511.53" y1="1132.68" x2="1829.47" y2="1132.68" gradientUnits="userSpaceOnUse">
<stop stop-color="#444B8C"/>
<stop offset="0.9964" stop-color="#26264F"/>
</linearGradient>
</defs>
</svg>
